<?xml version="1.0" encoding="iso-8859-1"?>
<!-- Generator: Adobe Illustrator 16.0.0, SVG Export Plug-In . SVG Version: 6.00 Build 0)  -->
<!DOCTYPE svg PUBLIC "-//W3C//DTD SVG 1.1//EN" "http://www.w3.org/Graphics/SVG/1.1/DTD/svg11.dtd">
<svg version="1.1" id="Capa_1" xmlns="http://www.w3.org/2000/svg" xmlns:xlink="http://www.w3.org/1999/xlink" x="0px" y="0px"
	 width="45.057px" height="45.057px" viewBox="0 0 45.057 45.057" style="enable-background:new 0 0 45.057 45.057;"
	 xml:space="preserve">
<g>
	<g id="_x36_3_4_">
		<g>
			<circle cx="14.1" cy="31.302" r="2.103"/>
			<path d="M26.868,16.46c0,2.163,1.762,3.923,3.926,3.923c2.162,0,3.922-1.76,3.922-3.923c0-2.164-1.76-3.924-3.922-3.924
				C28.63,12.536,26.868,14.296,26.868,16.46z"/>
			<path d="M32.722,24.015l-1.855,0.015l0.008,0.594c0.029,2.162,0.057,4.203-1.293,5.404c-0.986,0.881-3.703,1.211-5.582,1.242
				v-2.738l-4.475,3.851l4.475,3.485v-2.742c1.59-0.021,5.17-0.245,6.814-1.711c1.984-1.766,1.947-4.449,1.916-6.815L32.722,24.015z
				"/>
			<path d="M12.934,23.617c-0.029-2.163-0.057-4.204,1.294-5.405c0.987-0.88,3.703-1.21,5.582-1.242v2.739l4.474-3.851l-4.474-3.485
				v2.742c-1.59,0.022-5.171,0.245-6.816,1.711c-1.983,1.766-1.947,4.449-1.915,6.815l0.007,0.583l1.855-0.015L12.934,23.617z"/>
			<path d="M33.431,0H5.179v45.057h34.699V6.251L33.431,0z M36.878,42.056H8.179V3h23.707v4.76h4.992V42.056z"/>
		</g>
	</g>
</g>
<g>
</g>
<g>
</g>
<g>
</g>
<g>
</g>
<g>
</g>
<g>
</g>
<g>
</g>
<g>
</g>
<g>
</g>
<g>
</g>
<g>
</g>
<g>
</g>
<g>
</g>
<g>
</g>
<g>
</g>
</svg>
