<?xml version="1.0" encoding="iso-8859-1"?>
<!-- Generator: Adobe Illustrator 16.0.0, SVG Export Plug-In . SVG Version: 6.00 Build 0)  -->
<!DOCTYPE svg PUBLIC "-//W3C//DTD SVG 1.1//EN" "http://www.w3.org/Graphics/SVG/1.1/DTD/svg11.dtd">
<svg version="1.1" id="Capa_1" xmlns="http://www.w3.org/2000/svg" xmlns:xlink="http://www.w3.org/1999/xlink" x="0px" y="0px"
	 width="256.539px" height="256.539px" viewBox="0 0 256.539 256.539" style="enable-background:new 0 0 256.539 256.539;"
	 xml:space="preserve">
<g>
	<g id="_x31_8_8_">
		<g>
			<path d="M90.189,142.519v0.03h83.03v-0.04c13.061-0.432,22.312-12.522,22.973-24.877c-0.65-12.086-8.13-21.165-19.139-23.988
				c0.116-0.836,0.213-1.673,0.259-2.511c-0.757-14.091-10.786-24.128-24.882-24.885c-8.684-0.47-15.844,4.195-20.241,10.872
				c-4.425-5.438-11.105-8.856-19.093-9.283c-14.061-0.759-24.179,11.928-24.882,24.882c0,0.011,0,0.025,0,0.036
				c-13.01,0.484-22.219,12.547-22.884,24.877C64.571,131.692,77.249,141.808,90.189,142.519z M132.931,135.161
				c-1.437,0-2.6-1.163-2.6-2.601c0-1.432,1.163-2.595,2.6-2.595c1.433,0,2.59,1.163,2.59,2.595
				C135.531,133.998,134.368,135.161,132.931,135.161z M134.698,126.432c-1.168-0.731-2.696-0.751-3.818-0.076l-4.918-2.366
				c1.549-2.214,3.981-3.758,6.918-3.598c2.94,0.162,5.373,1.503,6.916,3.598L134.698,126.432z M143.768,122.077
				c-5.322-8.257-18.702-8.627-23.798-0.962l-4.228-2.029c3.344-5.642,9.143-9.696,16.255-9.313
				c7.444,0.401,13.359,4.192,16.62,9.979L143.768,122.077z M153.385,117.459c-4.138-7.784-11.831-13.513-21.383-12.995
				c-8.542,0.457-16.92,5.05-21.381,12.157l-4.352-2.09c5.081-9.234,14.315-15.993,25.733-15.381
				c11.796,0.64,21.221,6.683,26.182,16.006L153.385,117.459z M132.88,88.532c16.001,0.863,28.777,9.069,35.485,21.727l-4.819,2.312
				c-5.896-11.209-16.955-19.469-30.666-18.73c-12.639,0.675-25.077,7.67-31.27,18.448l-4.124-1.975
				C104.24,97.31,117.017,87.679,132.88,88.532z"/>
			<path d="M0,22.364v169.163h91.985v34.83h69.414v-34.83h95.141V22.364H0z M230.54,165.527H25.999V48.363H230.54V165.527z"/>
			<rect x="54.613" y="227.017" width="144.159" height="7.159"/>
		</g>
	</g>
</g>
<g>
</g>
<g>
</g>
<g>
</g>
<g>
</g>
<g>
</g>
<g>
</g>
<g>
</g>
<g>
</g>
<g>
</g>
<g>
</g>
<g>
</g>
<g>
</g>
<g>
</g>
<g>
</g>
<g>
</g>
</svg>
