<?xml version="1.0" encoding="iso-8859-1"?>
<!-- Generator: Adobe Illustrator 16.0.0, SVG Export Plug-In . SVG Version: 6.00 Build 0)  -->
<!DOCTYPE svg PUBLIC "-//W3C//DTD SVG 1.1//EN" "http://www.w3.org/Graphics/SVG/1.1/DTD/svg11.dtd">
<svg version="1.1" id="Capa_1" xmlns="http://www.w3.org/2000/svg" xmlns:xlink="http://www.w3.org/1999/xlink" x="0px" y="0px"
	 width="48.697px" height="48.697px" viewBox="0 0 48.697 48.697" style="enable-background:new 0 0 48.697 48.697;"
	 xml:space="preserve">
<g>
	<g id="_x32_8_52_">
		<g>
			<path d="M19.181,21.048c0.677,0,1.234-0.497,1.338-1.145c1.297,0,2.594,0,3.892,0c0.026,0.083,0.068,0.157,0.122,0.224
				c-0.898,0.852-1.797,1.705-2.695,2.557c-0.235-0.194-0.534-0.316-0.862-0.316c-0.752,0-1.361,0.608-1.361,1.36
				s0.609,1.361,1.361,1.361c0.751,0,1.36-0.609,1.36-1.361c0-0.266-0.079-0.512-0.211-0.721c0.913-0.866,1.826-1.732,2.739-2.598
				c0,1.245,0,2.49,0,3.736c-0.647,0.104-1.146,0.662-1.146,1.34c0,0.75,0.609,1.361,1.362,1.361c0.752,0,1.359-0.609,1.359-1.361
				c0-0.678-0.496-1.235-1.145-1.34c0-1.264,0-2.526,0-3.79c0.03-0.01,0.062-0.019,0.091-0.032c0.911,0.862,1.821,1.726,2.73,2.589
				c-0.172,0.228-0.276,0.508-0.276,0.814c0,0.753,0.607,1.362,1.36,1.362c0.752,0,1.36-0.609,1.36-1.362
				c0-0.752-0.608-1.36-1.36-1.36c-0.288,0-0.558,0.091-0.774,0.243c-0.908-0.862-1.818-1.726-2.729-2.588
				c0.021-0.039,0.038-0.076,0.052-0.118c1.321,0,2.643,0,3.964,0c0.085,0.671,0.649,1.191,1.345,1.191
				c0.752,0,1.36-0.608,1.36-1.361c0-0.751-0.608-1.36-1.36-1.36c-0.662,0-1.211,0.472-1.334,1.097c-1.289,0-2.58,0-3.87,0
				c0.974-0.922,1.944-1.846,2.919-2.769c0.228,0.173,0.509,0.278,0.815,0.278c0.753,0,1.361-0.608,1.361-1.36
				c0-0.751-0.608-1.361-1.361-1.361c-0.752,0-1.36,0.609-1.36,1.361c0,0.288,0.091,0.554,0.242,0.772
				c-0.972,0.922-1.945,1.846-2.917,2.769c-0.074-0.066-0.16-0.112-0.257-0.145c0-1.323,0-2.646,0-3.971
				c0.647-0.104,1.145-0.661,1.145-1.339c0-0.751-0.607-1.361-1.359-1.361c-0.753,0-1.362,0.609-1.362,1.361
				c0,0.678,0.499,1.234,1.146,1.339c0,1.324,0,2.646,0,3.971c-0.054,0.019-0.103,0.043-0.149,0.073
				c-0.928-0.88-1.855-1.759-2.782-2.639c0.179-0.231,0.29-0.518,0.29-0.832c0-0.751-0.609-1.361-1.36-1.361
				c-0.753,0-1.362,0.609-1.362,1.361s0.609,1.36,1.362,1.36c0.281,0,0.541-0.085,0.757-0.229c0.936,0.886,1.869,1.771,2.804,2.659
				c-0.007,0.019-0.007,0.042-0.012,0.061c-1.298,0-2.595,0-3.892,0c-0.104-0.647-0.661-1.145-1.338-1.145
				c-0.752,0-1.361,0.608-1.361,1.36C17.82,20.438,18.429,21.048,19.181,21.048z"/>
			<path d="M43.26,6.792H5.444v24.936H43.26V6.792z M39.426,27.894H9.277v-17.27h30.148V27.894z"/>
			<polygon points="43.254,32.886 24.887,32.886 23.81,32.886 5.443,32.886 0,40.157 0,41.905 48.697,41.905 48.697,40.157 			"/>
		</g>
	</g>
</g>
<g>
</g>
<g>
</g>
<g>
</g>
<g>
</g>
<g>
</g>
<g>
</g>
<g>
</g>
<g>
</g>
<g>
</g>
<g>
</g>
<g>
</g>
<g>
</g>
<g>
</g>
<g>
</g>
<g>
</g>
</svg>
