<?xml version="1.0" encoding="iso-8859-1"?>
<!-- Generator: Adobe Illustrator 16.0.0, SVG Export Plug-In . SVG Version: 6.00 Build 0)  -->
<!DOCTYPE svg PUBLIC "-//W3C//DTD SVG 1.1//EN" "http://www.w3.org/Graphics/SVG/1.1/DTD/svg11.dtd">
<svg version="1.1" id="Capa_1" xmlns="http://www.w3.org/2000/svg" xmlns:xlink="http://www.w3.org/1999/xlink" x="0px" y="0px"
	 width="256.539px" height="256.539px" viewBox="0 0 256.539 256.539" style="enable-background:new 0 0 256.539 256.539;"
	 xml:space="preserve">
<g>
	<g id="_x31_85_6_">
		<g>
			<path d="M256.539,195.437V26.273H0v169.163h91.985v27.568H58.747v7.159H91.99v0.102h69.414v-0.102h41.502v-7.159h-41.502v-27.568
				H256.539z M25.999,169.437V52.272H230.54v117.164H25.999z"/>
			<rect x="182.654" y="127.914" width="38.349" height="6.765"/>
			<rect x="172.255" y="140.157" width="48.748" height="6.77"/>
			<rect x="172.255" y="152.675" width="48.748" height="6.769"/>
			<circle cx="211.025" cy="74.024" r="8.127"/>
			<circle cx="167.807" cy="88.001" r="8.127"/>
			<circle cx="109.306" cy="121.473" r="8.127"/>
			<circle cx="42.357" cy="131.426" r="8.127"/>
			<circle cx="66.869" cy="120.147" r="3.712"/>
			<circle cx="128.27" cy="99.375" r="3.713"/>
			<circle cx="50.48" cy="142.272" r="3.715"/>
			<circle cx="139.105" cy="123.304" r="3.712"/>
			<path d="M142.817,84.29c2.052,0,3.713,1.663,3.713,3.712c0,2.051-1.661,3.712-3.713,3.712c-2.046,0-3.712-1.661-3.712-3.712
				C139.105,85.952,140.771,84.29,142.817,84.29z"/>
			<path d="M186.366,65.902c2.052,0,3.713,1.663,3.713,3.712c0,2.051-1.661,3.714-3.713,3.714c-2.046,0-3.712-1.663-3.712-3.714
				C182.654,67.565,184.32,65.902,186.366,65.902z"/>
			<path d="M222.862,84.29c2.051,0,3.707,1.663,3.707,3.712c0,2.051-1.656,3.712-3.707,3.712c-2.052,0-3.718-1.661-3.718-3.712
				C219.145,85.952,220.811,84.29,222.862,84.29z"/>
			<circle cx="163.389" cy="109.639" r="3.712"/>
			<circle cx="92.63" cy="129.6" r="3.712"/>
			<circle cx="58.747" cy="134.714" r="2.311"/>
			<circle cx="57.932" cy="126.706" r="1.584"/>
			<circle cx="94.763" cy="116.429" r="1.585"/>
			<circle cx="115.841" cy="105.925" r="1.585"/>
			<circle cx="142.817" cy="109.639" r="1.587"/>
			<path d="M148.114,92.952c0.873,0,1.584,0.711,1.584,1.587s-0.711,1.584-1.584,1.584c-0.879,0-1.584-0.708-1.584-1.584
				S147.235,92.952,148.114,92.952z"/>
			<path d="M186.366,88.542c0.879,0,1.59,0.711,1.59,1.587s-0.711,1.584-1.59,1.584c-0.878,0-1.584-0.708-1.584-1.584
				S185.488,88.542,186.366,88.542z"/>
			<circle cx="193.095" cy="76.953" r="1.586"/>
			<path d="M219.155,56.19c0.873,0,1.584,0.708,1.584,1.584c0,0.876-0.711,1.587-1.584,1.587c-0.879,0-1.59-0.711-1.59-1.587
				C217.565,56.899,218.276,56.19,219.155,56.19z"/>
			<circle cx="179.404" cy="79.875" r="1.585"/>
			<circle cx="159.677" cy="99.375" r="1.586"/>
			<circle cx="123.829" cy="121.474" r="1.585"/>
			<circle cx="87.336" cy="113.352" r="1.585"/>
			<path d="M70.581,130.819c0.876,0,1.587,0.711,1.587,1.584s-0.711,1.584-1.587,1.584c-0.874,0-1.584-0.711-1.584-1.584
				S69.708,130.819,70.581,130.819z"/>
			<circle cx="29.607" cy="119.887" r="1.585"/>
			<circle cx="31.922" cy="145.987" r="2.311"/>
		</g>
	</g>
</g>
<g>
</g>
<g>
</g>
<g>
</g>
<g>
</g>
<g>
</g>
<g>
</g>
<g>
</g>
<g>
</g>
<g>
</g>
<g>
</g>
<g>
</g>
<g>
</g>
<g>
</g>
<g>
</g>
<g>
</g>
</svg>
