<?xml version="1.0" encoding="iso-8859-1"?>
<!-- Generator: Adobe Illustrator 16.0.0, SVG Export Plug-In . SVG Version: 6.00 Build 0)  -->
<!DOCTYPE svg PUBLIC "-//W3C//DTD SVG 1.1//EN" "http://www.w3.org/Graphics/SVG/1.1/DTD/svg11.dtd">
<svg version="1.1" id="Capa_1" xmlns="http://www.w3.org/2000/svg" xmlns:xlink="http://www.w3.org/1999/xlink" x="0px" y="0px"
	 width="40.384px" height="40.383px" viewBox="0 0 40.384 40.383" style="enable-background:new 0 0 40.384 40.383;"
	 xml:space="preserve">
<g>
	<g id="_x34_9_18_">
		<g>
			<path d="M18.324,30.84c0.105,1.99,2.98,1.99,3.089,0C21.305,28.856,18.217,28.85,18.324,30.84z"/>
			<path d="M8.198,30.653c-0.088-1.627-2.622-1.633-2.535,0C5.751,32.286,8.11,32.29,8.198,30.653z"/>
			<path d="M0.101,6.664H0v27.624v2.268v0.611h10.539V26.834c-0.021,0-0.039,0.008-0.061,0.006c-0.57-0.078-1.068-0.436-1.068-1.068
				c0-0.631,0.498-0.99,1.068-1.066c0.021-0.004,0.039,0.008,0.061,0.006v-3.733c-2.448,0-4.896,0-7.346,0
				c-1.066,0-1.066-1.653,0-1.653c2.448,0,4.896,0,7.346,0v-1.333c-2.42,0-4.84,0-7.261,0c-1.066,0-1.066-1.653,0-1.653
				c2.421,0,4.841,0,7.261,0v-1.533c-2.42,0-4.84,0-7.261,0c-1.066,0-1.066-1.652,0-1.652c2.421,0,4.841,0,7.261,0v-1.384
				c-2.42,0-4.84,0-7.261,0c-1.066,0-1.066-1.653,0-1.653c2.421,0,4.841,0,7.261,0v-3.45H2.097H0.101V6.664z M6.991,24.706
				c0.514-0.068,0.855,0.359,1.001,0.795c0.048,0.084,0.079,0.174,0.066,0.271c0.019,0.143-0.024,0.248-0.09,0.336
				C7.814,26.52,7.48,26.905,6.99,26.84c-0.569-0.078-1.067-0.436-1.067-1.068C5.923,25.141,6.422,24.782,6.991,24.706z
				 M6.935,28.678c1.116,0.061,1.911,0.857,1.972,1.975C8.851,31.68,8.05,32.69,6.935,32.629c-1.027-0.055-2.04-0.859-1.979-1.977
				C5.009,29.625,5.818,28.618,6.935,28.678z M3.588,24.803c0.515-0.068,0.856,0.357,1,0.795c0.048,0.082,0.079,0.172,0.066,0.271
				c0.019,0.141-0.024,0.246-0.089,0.336c-0.154,0.412-0.488,0.797-0.979,0.73C3.019,26.86,2.52,26.502,2.52,25.87
				C2.52,25.239,3.019,24.879,3.588,24.803z"/>
			<path d="M32.079,30.653c0.088,1.633,2.446,1.637,2.534,0C34.525,29.026,31.992,29.02,32.079,30.653z"/>
			<path d="M28.43,6.664L28.43,6.664c-0.001-0.515-0.001-1.03-0.001-1.544V1.94V1.612H13.98h-2.435h-0.121v33.654v2.762v0.744
				h17.009v-2.205c0.014-0.082,0.016-0.156,0-0.227v-1.074H28.43V6.664z M16.987,25.422c-0.188,0.504-0.596,0.971-1.191,0.893
				c-0.693-0.094-1.302-0.529-1.302-1.301s0.607-1.209,1.302-1.301c0.626-0.084,1.043,0.438,1.218,0.969
				c0.06,0.102,0.098,0.211,0.081,0.332C17.117,25.184,17.065,25.313,16.987,25.422z M19.873,33.249
				c-1.252-0.068-2.485-1.047-2.412-2.408c0.067-1.254,1.052-2.48,2.412-2.408c1.361,0.074,2.33,1.047,2.402,2.408
				C22.208,32.09,21.23,33.319,19.873,33.249z M18.642,24.893c0-0.77,0.605-1.207,1.301-1.299c0.625-0.084,1.043,0.436,1.218,0.967
				c0.06,0.102,0.098,0.211,0.082,0.332c0.021,0.172-0.029,0.301-0.108,0.408c-0.188,0.504-0.596,0.973-1.19,0.893
				C19.248,26.1,18.642,25.665,18.642,24.893z M25.383,25.301c-0.188,0.504-0.596,0.973-1.191,0.893
				c-0.694-0.094-1.302-0.529-1.302-1.301c0-0.77,0.606-1.207,1.302-1.299c0.627-0.084,1.043,0.436,1.219,0.967
				c0.059,0.102,0.097,0.211,0.08,0.332C25.513,25.065,25.462,25.194,25.383,25.301z M24.668,19.05c-3.117,0-6.233,0-9.352,0
				c-1.299,0-1.299-2.014,0-2.014c3.117,0,6.233,0,9.352,0C25.966,17.037,25.966,19.05,24.668,19.05z M24.77,15.412
				c-3.115,0-6.232,0-9.351,0c-1.299,0-1.299-2.014,0-2.014c3.117,0,6.233,0,9.351,0C26.07,13.399,26.07,15.412,24.77,15.412z
				 M24.77,11.53c-3.115,0-6.232,0-9.351,0c-1.299,0-1.299-2.014,0-2.014c3.117,0,6.233,0,9.351,0
				C26.07,9.517,26.07,11.53,24.77,11.53z M24.77,7.83c-3.115,0-6.232,0-9.351,0c-1.299,0-1.299-2.014,0-2.014
				c3.117,0,6.233,0,9.351,0C26.07,5.816,26.07,7.83,24.77,7.83z"/>
			<path d="M40.374,34.286c0-8.246,0-16.496,0-24.744V6.933v-0.27H29.43v3.504c0.082-0.026,0.164-0.054,0.266-0.054
				c2.559,0,5.117,0,7.674,0c1.068,0,1.068,1.653,0,1.653c-2.557,0-5.115,0-7.674,0c-0.102,0-0.184-0.027-0.266-0.055v1.492
				c0.082-0.027,0.164-0.054,0.266-0.054c2.559,0,5.117,0,7.674,0c1.068,0,1.068,1.652,0,1.652c-2.557,0-5.115,0-7.674,0
				c-0.102,0-0.184-0.026-0.266-0.054v1.642c0.082-0.027,0.164-0.055,0.266-0.055c2.559,0,5.117,0,7.674,0
				c1.068,0,1.068,1.653,0,1.653c-2.557,0-5.115,0-7.674,0c-0.102,0-0.184-0.027-0.266-0.054v1.424
				c0.061-0.014,0.111-0.037,0.18-0.037c2.56,0,5.117,0,7.676,0c1.066,0,1.066,1.653,0,1.653c-2.559,0-5.116,0-7.676,0
				c-0.067,0-0.119-0.024-0.18-0.037v4.077c0.17-0.105,0.361-0.186,0.573-0.213c0.515-0.07,0.856,0.357,1,0.793
				c0.048,0.084,0.079,0.174,0.065,0.271c0.02,0.143-0.023,0.248-0.088,0.336c-0.154,0.414-0.488,0.799-0.979,0.732
				c-0.212-0.029-0.403-0.109-0.573-0.215v10.441h10.946v-1.811c0.012-0.066,0.013-0.129,0-0.186v-0.883h-0.001V34.286z
				 M33.406,24.706c0.515-0.068,0.856,0.359,1.002,0.795c0.048,0.084,0.078,0.174,0.065,0.271c0.019,0.143-0.024,0.248-0.089,0.336
				c-0.154,0.412-0.488,0.797-0.979,0.732c-0.569-0.078-1.067-0.436-1.067-1.068C32.339,25.141,32.838,24.782,33.406,24.706z
				 M33.35,32.629c-1.027-0.055-2.039-0.859-1.979-1.977c0.055-1.027,0.863-2.035,1.979-1.975c1.117,0.061,1.912,0.857,1.973,1.975
				C35.266,31.68,34.465,32.69,33.35,32.629z M37.874,26.108c-0.155,0.412-0.489,0.797-0.979,0.732
				c-0.57-0.078-1.068-0.436-1.068-1.068c0-0.631,0.498-0.99,1.068-1.066c0.514-0.068,0.856,0.359,1,0.795
				c0.049,0.084,0.079,0.174,0.066,0.271C37.98,25.915,37.938,26.02,37.874,26.108z"/>
		</g>
	</g>
</g>
<g>
</g>
<g>
</g>
<g>
</g>
<g>
</g>
<g>
</g>
<g>
</g>
<g>
</g>
<g>
</g>
<g>
</g>
<g>
</g>
<g>
</g>
<g>
</g>
<g>
</g>
<g>
</g>
<g>
</g>
</svg>
