<?xml version="1.0" encoding="iso-8859-1"?>
<!-- Generator: Adobe Illustrator 16.0.0, SVG Export Plug-In . SVG Version: 6.00 Build 0)  -->
<!DOCTYPE svg PUBLIC "-//W3C//DTD SVG 1.1//EN" "http://www.w3.org/Graphics/SVG/1.1/DTD/svg11.dtd">
<svg version="1.1" id="Capa_1" xmlns="http://www.w3.org/2000/svg" xmlns:xlink="http://www.w3.org/1999/xlink" x="0px" y="0px"
	 width="258.098px" height="258.098px" viewBox="0 0 258.098 258.098" style="enable-background:new 0 0 258.098 258.098;"
	 xml:space="preserve">
<g>
	<path d="M51.93,184.416c-0.561,10.349-15.511,10.339-16.062,0C35.317,174.067,51.374,174.103,51.93,184.416z M88.417,207.43h0.02
		v5.586c0.084,0.36,0.079,0.762,0,1.178v11.472H0v-3.87V207.43V32.433h0.629h12.649h75.139v1.711v16.524
		C88.417,102.928,88.417,155.177,88.417,207.43z M29.478,154.11c0.079-0.619-0.12-1.193-0.422-1.726
		c-0.909-2.758-3.077-5.464-6.334-5.027c-3.613,0.478-6.769,2.752-6.769,6.753c0,4.007,3.156,6.287,6.769,6.77
		c3.095,0.416,5.217-2.026,6.195-4.646C29.32,155.68,29.592,155.01,29.478,154.11z M56.411,184.416
		c-0.374-7.073-5.411-12.136-12.489-12.517c-7.071-0.376-12.192,5.986-12.543,12.517c-0.378,7.068,6.033,12.167,12.543,12.513
		C50.982,197.31,56.063,190.916,56.411,184.416z M44.287,160.261c3.093,0.416,5.215-2.026,6.193-4.646
		c0.411-0.554,0.675-1.225,0.561-2.118c0.084-0.63-0.114-1.193-0.421-1.727c-0.914-2.762-3.087-5.479-6.337-5.042
		c-3.615,0.492-6.767,2.752-6.767,6.769S40.672,159.772,44.287,160.261z M73.141,153.496c0.083-0.63-0.114-1.193-0.422-1.727
		c-0.909-2.762-3.077-5.479-6.332-5.042c-3.621,0.492-6.771,2.752-6.771,6.769s3.156,6.276,6.771,6.765
		c3.092,0.416,5.215-2.026,6.192-4.646C72.983,155.056,73.255,154.39,73.141,153.496z M68.854,112.634c-16.211,0-32.42,0-48.629,0
		c-6.754,0-6.754,10.479,0,10.479c16.214,0,32.423,0,48.629,0C75.611,123.112,75.611,112.634,68.854,112.634z M69.385,93.719
		c-16.207,0-32.416,0-48.624,0c-6.754,0-6.754,10.471,0,10.471c16.214,0,32.423,0,48.624,0
		C76.146,104.189,76.146,93.724,69.385,93.719z M69.385,73.533c-16.207,0-32.416,0-48.624,0c-6.754,0-6.754,10.471,0,10.471
		c16.214,0,32.423,0,48.624,0C76.146,84.004,76.146,73.539,69.385,73.533z M69.385,54.288c-16.207,0-32.416,0-48.624,0
		c-6.754,0-6.754,10.479,0,10.479c16.214,0,32.423,0,48.624,0C76.146,64.767,76.146,54.293,69.385,54.288z M258.098,69.332v101.841
		h-57.274v20.962h-41.791v-20.962h-55.373V69.332H258.098z M242.453,84.982H119.314v70.536h123.139V84.982z M136.531,196.842h86.777
		v-4.312h-86.777V196.842z M148.805,113.561c0-12.291,10.004-22.297,22.292-22.297c12.299,0,22.303,10.006,22.303,22.297
		s-10.004,22.3-22.303,22.3C158.809,135.86,148.805,125.852,148.805,113.561z M154.4,113.561c0,9.209,7.49,16.704,16.696,16.704
		c9.217,0,16.707-7.495,16.707-16.704s-7.495-16.701-16.707-16.701C161.891,96.859,154.4,104.352,154.4,113.561z M186.123,134.479
		l17.133,17.128l4.931-4.921l-17.133-17.133L186.123,134.479z"/>
</g>
<g>
</g>
<g>
</g>
<g>
</g>
<g>
</g>
<g>
</g>
<g>
</g>
<g>
</g>
<g>
</g>
<g>
</g>
<g>
</g>
<g>
</g>
<g>
</g>
<g>
</g>
<g>
</g>
<g>
</g>
</svg>
