<?xml version="1.0" encoding="iso-8859-1"?>
<!-- Generator: Adobe Illustrator 16.0.0, SVG Export Plug-In . SVG Version: 6.00 Build 0)  -->
<!DOCTYPE svg PUBLIC "-//W3C//DTD SVG 1.1//EN" "http://www.w3.org/Graphics/SVG/1.1/DTD/svg11.dtd">
<svg version="1.1" id="Capa_1" xmlns="http://www.w3.org/2000/svg" xmlns:xlink="http://www.w3.org/1999/xlink" x="0px" y="0px"
	 width="48.696px" height="48.695px" viewBox="0 0 48.696 48.695" style="enable-background:new 0 0 48.696 48.695;"
	 xml:space="preserve">
<g>
	<g id="_x32_6_30_">
		<g>
			<path d="M33.198,15.051v2.073h0.326v-2.661h-0.209c-0.057,0.114-0.154,0.232-0.291,0.354c-0.135,0.121-0.295,0.226-0.475,0.312
				v0.313c0.1-0.036,0.215-0.093,0.342-0.168C33.018,15.2,33.122,15.125,33.198,15.051z"/>
			<path d="M34.983,15.051v2.073h0.326v-2.661h-0.211c-0.057,0.114-0.152,0.232-0.289,0.354c-0.135,0.121-0.295,0.226-0.477,0.312
				v0.313c0.102-0.036,0.217-0.093,0.342-0.168C34.803,15.2,34.905,15.125,34.983,15.051z"/>
			<path d="M28.907,19.26c-0.137,0.122-0.297,0.226-0.477,0.312v0.313c0.102-0.038,0.215-0.093,0.342-0.168
				c0.129-0.075,0.229-0.15,0.309-0.225v2.073h0.324v-2.66h-0.209C29.139,19.02,29.042,19.138,28.907,19.26z"/>
			<path d="M31.745,19.239c-0.07-0.108-0.16-0.19-0.266-0.248c-0.109-0.058-0.232-0.086-0.375-0.086
				c-0.191,0-0.354,0.052-0.48,0.155c-0.127,0.104-0.223,0.251-0.287,0.442c-0.062,0.191-0.098,0.443-0.098,0.756
				c0,0.498,0.088,0.857,0.264,1.078c0.146,0.183,0.346,0.275,0.602,0.275c0.193,0,0.354-0.053,0.48-0.157s0.225-0.252,0.287-0.442
				c0.064-0.19,0.098-0.441,0.098-0.753c0-0.263-0.02-0.471-0.061-0.626C31.868,19.478,31.813,19.348,31.745,19.239z M31.481,21.127
				c-0.104,0.145-0.229,0.217-0.377,0.217c-0.15,0-0.275-0.072-0.377-0.217c-0.104-0.145-0.152-0.433-0.152-0.868
				c0-0.435,0.057-0.733,0.168-0.895c0.088-0.126,0.207-0.19,0.357-0.19c0.152,0,0.277,0.071,0.381,0.215
				c0.102,0.145,0.152,0.434,0.152,0.87C31.633,20.694,31.583,20.982,31.481,21.127z"/>
			<path d="M33.803,19.239c-0.072-0.108-0.16-0.19-0.266-0.248c-0.107-0.058-0.232-0.086-0.375-0.086
				c-0.193,0-0.354,0.052-0.48,0.155c-0.127,0.104-0.225,0.251-0.287,0.442c-0.064,0.191-0.096,0.443-0.096,0.756
				c0,0.498,0.086,0.857,0.26,1.078c0.146,0.183,0.348,0.275,0.604,0.275c0.193,0,0.355-0.053,0.48-0.157
				c0.129-0.104,0.225-0.252,0.287-0.442s0.098-0.441,0.098-0.753c0-0.263-0.021-0.471-0.061-0.626
				C33.928,19.478,33.872,19.348,33.803,19.239z M33.54,21.127c-0.104,0.145-0.229,0.217-0.377,0.217s-0.275-0.072-0.379-0.217
				c-0.102-0.145-0.15-0.433-0.15-0.868c0-0.435,0.055-0.733,0.168-0.895c0.09-0.126,0.209-0.19,0.357-0.19
				c0.152,0,0.277,0.071,0.381,0.215c0.102,0.145,0.152,0.434,0.152,0.87C33.692,20.694,33.641,20.982,33.54,21.127z"/>
			<path d="M35.862,19.239c-0.07-0.108-0.158-0.19-0.266-0.248c-0.109-0.058-0.232-0.086-0.375-0.086
				c-0.191,0-0.354,0.052-0.479,0.155c-0.129,0.104-0.225,0.251-0.289,0.442c-0.062,0.191-0.096,0.443-0.096,0.756
				c0,0.498,0.086,0.857,0.262,1.078c0.146,0.183,0.348,0.275,0.604,0.275c0.191,0,0.354-0.053,0.48-0.157s0.223-0.252,0.285-0.442
				c0.064-0.19,0.098-0.441,0.098-0.753c0-0.263-0.021-0.471-0.061-0.626C35.987,19.478,35.932,19.348,35.862,19.239z
				 M35.598,21.127c-0.102,0.145-0.229,0.217-0.377,0.217c-0.15,0-0.275-0.072-0.377-0.217c-0.104-0.145-0.152-0.433-0.152-0.868
				c0-0.435,0.057-0.733,0.168-0.895c0.088-0.126,0.209-0.19,0.357-0.19c0.15,0,0.279,0.071,0.381,0.215
				c0.104,0.145,0.152,0.434,0.152,0.87C35.75,20.694,35.702,20.982,35.598,21.127z"/>
			<path d="M37.143,19.26c-0.137,0.122-0.295,0.226-0.477,0.312v0.313c0.102-0.038,0.215-0.093,0.342-0.168
				c0.129-0.075,0.23-0.15,0.309-0.225v2.073h0.326v-2.66h-0.211C37.375,19.02,37.28,19.138,37.143,19.26z"/>
			<polygon points="43.254,32.885 24.887,32.885 23.809,32.885 5.442,32.885 0,40.158 0,41.904 48.696,41.904 48.696,40.158 			"/>
			<path d="M39.844,24.663c0.01-0.015,0.02-0.026,0.029-0.041c0.123-0.167,0.238-0.338,0.348-0.515
				c0.02-0.031,0.039-0.063,0.057-0.094c0.098-0.164,0.191-0.332,0.277-0.503c0.025-0.051,0.051-0.104,0.076-0.156
				c0.074-0.156,0.145-0.314,0.211-0.478c0.029-0.076,0.055-0.152,0.082-0.229c0.053-0.146,0.105-0.292,0.148-0.442
				c0.031-0.104,0.055-0.21,0.082-0.315c0.033-0.13,0.068-0.259,0.094-0.392c0.027-0.143,0.045-0.288,0.066-0.434
				c0.014-0.102,0.033-0.202,0.043-0.307c0.025-0.252,0.039-0.508,0.039-0.768c0-0.261-0.014-0.516-0.039-0.769
				c-0.01-0.104-0.029-0.205-0.043-0.307c-0.021-0.146-0.039-0.291-0.066-0.434c-0.025-0.133-0.061-0.261-0.094-0.392
				c-0.027-0.104-0.051-0.212-0.082-0.315c-0.043-0.149-0.096-0.297-0.148-0.442c-0.027-0.077-0.055-0.153-0.082-0.229
				c-0.066-0.163-0.137-0.32-0.211-0.478c-0.025-0.052-0.051-0.105-0.076-0.156c-0.086-0.171-0.18-0.338-0.277-0.502
				c-0.018-0.031-0.037-0.062-0.057-0.094c-0.109-0.176-0.225-0.349-0.348-0.516c-0.01-0.014-0.02-0.026-0.029-0.041
				c-1.436-1.931-3.725-3.188-6.309-3.188c-4.334,0-7.859,3.526-7.859,7.861s3.525,7.86,7.859,7.86c2.039,0,3.893-0.785,5.289-2.062
				h0.023v-0.02C39.211,25.434,39.547,25.062,39.844,24.663z M39.395,19.428c0.018,0.187,0.029,0.374,0.029,0.564
				c0,0.417-0.047,0.823-0.129,1.217c-0.086,0.081-0.18,0.135-0.289,0.135c-0.15,0-0.275-0.073-0.381-0.217
				c-0.102-0.145-0.15-0.433-0.15-0.868c0-0.435,0.057-0.733,0.168-0.895c0.09-0.126,0.209-0.189,0.357-0.189
				c0.15,0,0.277,0.072,0.381,0.215C39.387,19.397,39.389,19.418,39.395,19.428z M37.536,15.816c0,0.435-0.051,0.724-0.152,0.868
				c-0.104,0.146-0.229,0.218-0.375,0.218c-0.15,0-0.275-0.073-0.381-0.218c-0.102-0.144-0.15-0.433-0.15-0.868
				c0-0.395,0.053-0.66,0.145-0.83c0.324,0.2,0.625,0.431,0.904,0.688C37.526,15.726,37.536,15.76,37.536,15.816z M31.1,14.731
				c0.152,0,0.277,0.072,0.381,0.216c0.102,0.144,0.152,0.434,0.152,0.869c0,0.435-0.051,0.724-0.152,0.868
				c-0.104,0.146-0.229,0.218-0.377,0.218c-0.15,0-0.275-0.073-0.377-0.218c-0.104-0.144-0.152-0.433-0.152-0.868
				c0-0.435,0.057-0.732,0.168-0.895C30.831,14.795,30.95,14.731,31.1,14.731z M29.446,15.794c0,0.434-0.051,0.723-0.152,0.868
				c-0.102,0.145-0.227,0.217-0.375,0.217c-0.111,0-0.205-0.053-0.291-0.132c0.236-0.355,0.512-0.684,0.816-0.979
				C29.444,15.778,29.446,15.784,29.446,15.794z M27.717,20.26c0,0.158-0.016,0.276-0.029,0.396
				c-0.023-0.219-0.039-0.439-0.039-0.664c0-0.106,0.01-0.21,0.016-0.315C27.696,19.828,27.717,20.015,27.717,20.26z M29.944,24.645
				c-0.164-0.127-0.322-0.26-0.471-0.404c0.055-0.027,0.102-0.045,0.164-0.081c0.127-0.075,0.23-0.149,0.307-0.224V24.645z
				 M30.905,24.702c0-0.435,0.055-0.733,0.166-0.896c0.09-0.126,0.209-0.188,0.359-0.188s0.277,0.071,0.381,0.215
				c0.102,0.144,0.15,0.435,0.15,0.87c0,0.434-0.051,0.723-0.15,0.867c-0.012,0.018-0.027,0.023-0.041,0.039
				c-0.283-0.09-0.555-0.205-0.82-0.336C30.922,25.122,30.905,24.938,30.905,24.702z M36.137,24.702
				c0-0.435,0.057-0.733,0.168-0.896c0.09-0.126,0.209-0.188,0.357-0.188c0.15,0,0.277,0.071,0.381,0.215
				c0.092,0.13,0.137,0.397,0.145,0.769c-0.312,0.248-0.652,0.465-1.014,0.646C36.149,25.102,36.137,24.92,36.137,24.702z
				 M37.512,24.321c-0.012-0.091-0.023-0.175-0.041-0.245c-0.039-0.154-0.096-0.287-0.164-0.396
				c-0.072-0.106-0.16-0.189-0.268-0.247c-0.107-0.057-0.23-0.086-0.373-0.086c-0.191,0-0.354,0.051-0.48,0.155
				c-0.127,0.104-0.221,0.251-0.287,0.441c-0.062,0.19-0.096,0.444-0.096,0.757c0,0.271,0.031,0.495,0.084,0.684
				c-0.189,0.082-0.381,0.156-0.578,0.219v-2.256h-0.211c-0.057,0.115-0.152,0.233-0.289,0.354
				c-0.135,0.122-0.295,0.226-0.477,0.312v0.313c0.102-0.037,0.217-0.093,0.342-0.168c0.129-0.075,0.23-0.149,0.309-0.224v1.754
				c-0.465,0.119-0.947,0.188-1.447,0.188c-0.004,0-0.008,0-0.012,0v-2.529h-0.209c-0.057,0.115-0.154,0.233-0.291,0.354
				c-0.135,0.122-0.295,0.226-0.475,0.312v0.313c0.1-0.037,0.215-0.093,0.342-0.168s0.23-0.149,0.307-0.224v1.924
				c-0.379-0.021-0.75-0.078-1.107-0.17c0.043-0.07,0.082-0.146,0.111-0.236c0.064-0.189,0.098-0.441,0.098-0.752
				c0-0.262-0.021-0.473-0.061-0.626c-0.039-0.155-0.096-0.287-0.164-0.396c-0.072-0.106-0.16-0.189-0.268-0.247
				c-0.107-0.057-0.23-0.085-0.373-0.085c-0.193,0-0.354,0.051-0.48,0.155c-0.127,0.104-0.223,0.251-0.287,0.441
				c-0.062,0.19-0.098,0.444-0.098,0.757c0,0.15,0.025,0.266,0.041,0.391c-0.115-0.066-0.23-0.134-0.34-0.207v-1.537h-0.209
				c-0.057,0.115-0.154,0.233-0.291,0.354c-0.135,0.122-0.295,0.226-0.477,0.312v0.049c-0.725-0.756-1.25-1.702-1.492-2.759
				c0.062-0.083,0.115-0.178,0.152-0.292c0.064-0.19,0.1-0.441,0.1-0.753c0-0.262-0.021-0.472-0.062-0.626
				c-0.039-0.155-0.094-0.287-0.164-0.395c-0.027-0.044-0.074-0.066-0.109-0.103c0.113-0.771,0.375-1.493,0.758-2.138
				c0.123,0.087,0.264,0.147,0.441,0.147c0.191,0,0.354-0.052,0.48-0.156s0.223-0.252,0.285-0.443
				c0.064-0.191,0.098-0.442,0.098-0.753c0-0.119-0.004-0.224-0.014-0.321c0.182-0.15,0.373-0.289,0.568-0.417
				c0,0.001,0,0.002-0.002,0.004c-0.062,0.191-0.096,0.444-0.096,0.757c0,0.499,0.088,0.857,0.262,1.077
				c0.146,0.184,0.348,0.275,0.604,0.275c0.191,0,0.354-0.052,0.48-0.157c0.127-0.104,0.223-0.252,0.285-0.443
				c0.066-0.19,0.098-0.441,0.098-0.753c0-0.262-0.02-0.472-0.061-0.626c-0.039-0.154-0.094-0.286-0.164-0.395
				c-0.07-0.107-0.158-0.19-0.266-0.247c-0.031-0.017-0.076-0.013-0.111-0.025c0.672-0.268,1.402-0.419,2.168-0.419
				c1.02,0,1.979,0.262,2.816,0.719c-0.045,0.069-0.082,0.147-0.113,0.236c-0.064,0.191-0.098,0.444-0.098,0.757
				c0,0.499,0.088,0.857,0.264,1.077c0.145,0.184,0.346,0.275,0.602,0.275c0.193,0,0.355-0.052,0.48-0.157
				c0.127-0.104,0.223-0.252,0.287-0.443c0.049-0.146,0.074-0.341,0.086-0.56c0.75,0.813,1.271,1.835,1.469,2.97
				c-0.096-0.043-0.201-0.073-0.324-0.073c-0.193,0-0.354,0.051-0.48,0.154c-0.127,0.104-0.223,0.251-0.287,0.441
				s-0.098,0.443-0.098,0.757c0,0.499,0.088,0.857,0.264,1.077c0.145,0.183,0.346,0.274,0.602,0.274c0.07,0,0.133-0.015,0.193-0.028
				c-0.207,0.737-0.555,1.417-1.014,2.007c-0.1,0.072-0.193,0.149-0.314,0.205v0.166C37.756,24.086,37.637,24.205,37.512,24.321z"/>
			<polygon points="43.192,31.727 44.87,33.404 46.608,31.666 43.26,28.318 40.569,25.627 39.426,26.77 38.831,27.365 39.36,27.895 
							"/>
			<path d="M38.124,28.072l-0.178-0.178h-0.422c-1.201,0.607-2.553,0.957-3.988,0.957c-1.434,0-2.787-0.352-3.986-0.957H9.276
				V10.623h30.15v2.767c1.816,1.624,2.971,3.979,2.971,6.602c0,1.724-0.506,3.325-1.363,4.687l0.242,0.241l1.984,1.983V6.791H5.443
				v24.936h36.334L38.124,28.072z"/>
		</g>
	</g>
</g>
<g>
</g>
<g>
</g>
<g>
</g>
<g>
</g>
<g>
</g>
<g>
</g>
<g>
</g>
<g>
</g>
<g>
</g>
<g>
</g>
<g>
</g>
<g>
</g>
<g>
</g>
<g>
</g>
<g>
</g>
</svg>
