<?xml version="1.0" encoding="iso-8859-1"?>
<!-- Generator: Adobe Illustrator 16.0.0, SVG Export Plug-In . SVG Version: 6.00 Build 0)  -->
<!DOCTYPE svg PUBLIC "-//W3C//DTD SVG 1.1//EN" "http://www.w3.org/Graphics/SVG/1.1/DTD/svg11.dtd">
<svg version="1.1" id="Capa_1" xmlns="http://www.w3.org/2000/svg" xmlns:xlink="http://www.w3.org/1999/xlink" x="0px" y="0px"
	 width="48.697px" height="48.697px" viewBox="0 0 48.697 48.697" style="enable-background:new 0 0 48.697 48.697;"
	 xml:space="preserve">
<g>
	<g id="_x34_0_95_">
		<g>
			<path d="M22.872,21.441c0.662,0,1.321,0,1.982,0c0,0.08,0,0.16,0,0.239c0,0.154,0.154,0.288,0.308,0.206
				c0.424-0.228,0.85-0.456,1.271-0.684c0.062-0.034,0.095-0.084,0.106-0.139c0.031-0.08,0.019-0.173-0.081-0.229
				c-0.014-0.008-0.027-0.018-0.041-0.024c-0.003,0-0.007-0.003-0.008-0.004c-0.408-0.236-0.815-0.474-1.224-0.711
				c-0.128-0.075-0.332-0.013-0.333,0.162c0,0.092,0,0.185,0,0.277c-0.66,0-1.32,0-1.982,0c-0.169,0-0.31,0.141-0.31,0.311
				c0,0.095,0,0.192,0,0.288C22.563,21.302,22.703,21.441,22.872,21.441z"/>
			<path d="M27.232,23.26c0,0.321-0.106,0.95,0.146,1.216c0.193,0.205,0.523,0.154,0.768,0.154c0.662,0,1.324,0,1.986,0
				c1.646,0,3.293,0,4.939,0c0.609,0,1.359,0.206,1.65-0.449c0.006-0.01,0.012-0.47,0.016-0.481c0-0.002,0.002,0.446,0.004,0.442
				c0.012-0.029,0.011-0.056,0.004-0.078c0-1.36,0-3.173,0-4.532c0-0.114,0.004-0.226,0.005-0.334h-5.987
				c-0.201,0-0.365-0.173-0.365-0.385v-0.826c-0.867,0-1.735,0-2.604,0c-0.897,0-0.562,1.797-0.562,2.335
				C27.232,21.15,27.232,22.431,27.232,23.26z"/>
			<path d="M28.107,17.283c0.832-0.012,1.662-0.021,2.494-0.031c0.156-0.002,0.312-0.004,0.47-0.006
				c-0.001,0.398-0.003,0.799-0.004,1.197c-0.001,0.118,0.099,0.218,0.217,0.218c1.956,0,3.912,0,5.87,0
				c0.033,0,0.056-0.005,0.081-0.008c-0.003,0.015-0.007,0.022-0.007,0.04c0,0.588,0,1.175,0,1.762c0,0.596,0,1.191,0,1.788
				c0,0.167,0,0.335,0,0.503c-0.032-0.01-0.073-0.019-0.135-0.019c-0.279,0-0.279,0.435,0,0.435c0.117,0,0.233,0,0.353,0
				c0.116,0,0.217-0.1,0.217-0.217c0-1.5,0-3,0-4.502c0-0.117-0.101-0.217-0.217-0.217c-1.347,0-2.692,0-4.04,0
				c-0.639,0-1.28,0-1.92,0c0.009-0.038,0.016-0.086,0.016-0.15c0.002-0.351,0.004-0.699,0.004-1.05
				c0.002-0.116-0.099-0.218-0.217-0.217c-1.061,0.014-2.121,0.026-3.182,0.04C27.827,16.852,27.827,17.287,28.107,17.283z"/>
			<path d="M11.156,23.337c0,0.305-0.107,0.903,0.146,1.156c0.194,0.193,0.522,0.146,0.766,0.146c0.659,0,1.319,0,1.979,0
				c1.643,0,3.285,0,4.928,0c0.608,0,1.356,0.194,1.648-0.428c0.005-0.009,0.01-0.447,0.013-0.457
				c0.002-0.003,0.004,0.424,0.005,0.42c0.011-0.027,0.01-0.052,0.005-0.074c0-1.293,0-3.015,0-4.308
				c0-0.107,0.002-0.213,0.004-0.316h-5.973c-0.2,0-0.364-0.164-0.364-0.365v-0.785c-0.865,0-1.73,0-2.597,0
				c-0.896,0-0.561,1.707-0.561,2.218C11.156,21.332,11.156,22.549,11.156,23.337z"/>
			<path d="M14.807,19.142h5.934c0-0.138,0-0.274,0-0.413c0-0.607,0-1.217,0-1.824c0-0.523-0.701-0.41-1.071-0.41
				c-1.015,0-2.03,0-3.044,0c-0.482,0-1.371-0.173-1.748,0.174c-0.237,0.217-0.07,1.082-0.07,1.333
				C14.807,18.381,14.807,18.761,14.807,19.142z M15.902,17.58c1.314,0,2.631,0,3.947,0c0.217,0,0.217,0.309,0,0.309
				c-1.316,0-2.633,0-3.947,0C15.684,17.89,15.684,17.58,15.902,17.58z M15.902,18.59c1.314,0,2.631,0,3.947,0
				c0.217,0,0.217,0.309,0,0.309c-1.316,0-2.633,0-3.947,0C15.684,18.898,15.684,18.59,15.902,18.59z"/>
			<path d="M16.576,16.237c0.146,0.01,0.281,0.019,0.394,0.019h3.046c0.054,0,0.114-0.002,0.179-0.005
				c0.07-0.002,0.145-0.006,0.219-0.006c0.457,0,0.549,0.119,0.549,0.298v2.07h0.249v-2.07c0-0.544-0.601-0.544-0.798-0.544
				c-0.078,0-0.155,0.002-0.228,0.005c-0.061,0.002-0.118,0.005-0.17,0.005H16.97c-0.107,0-0.237-0.009-0.377-0.019
				c-0.164-0.012-0.352-0.024-0.533-0.024c-0.25,0-0.45,0.026-0.612,0.079v0.271c0.142-0.065,0.341-0.103,0.612-0.103
				C16.233,16.213,16.407,16.225,16.576,16.237z"/>
			<path d="M17.091,15.731c0.146,0.011,0.282,0.021,0.395,0.021h3.045c0.054,0,0.114-0.003,0.179-0.005
				c0.07-0.003,0.145-0.005,0.219-0.005c0.457,0,0.55,0.119,0.55,0.297v2.07h0.248v-2.07c0-0.544-0.601-0.544-0.798-0.544
				c-0.077,0-0.156,0.003-0.229,0.005c-0.06,0.002-0.117,0.004-0.169,0.004h-3.045c-0.108,0-0.237-0.009-0.377-0.018
				c-0.165-0.013-0.353-0.024-0.533-0.024c-0.25,0-0.45,0.026-0.612,0.078v0.271c0.142-0.066,0.34-0.104,0.612-0.104
				C16.748,15.708,16.923,15.72,17.091,15.731z"/>
			<path d="M43.26,6.792H5.444v24.936H43.26V6.792z M39.426,27.896H9.277V10.624h30.148V27.896z"/>
			<polygon points="43.254,32.886 24.887,32.886 23.81,32.886 5.443,32.886 0,40.159 0,41.905 48.697,41.905 48.697,40.159 			"/>
		</g>
	</g>
</g>
<g>
</g>
<g>
</g>
<g>
</g>
<g>
</g>
<g>
</g>
<g>
</g>
<g>
</g>
<g>
</g>
<g>
</g>
<g>
</g>
<g>
</g>
<g>
</g>
<g>
</g>
<g>
</g>
<g>
</g>
</svg>
