<?xml version="1.0" encoding="iso-8859-1"?>
<!-- Generator: Adobe Illustrator 16.0.0, SVG Export Plug-In . SVG Version: 6.00 Build 0)  -->
<!DOCTYPE svg PUBLIC "-//W3C//DTD SVG 1.1//EN" "http://www.w3.org/Graphics/SVG/1.1/DTD/svg11.dtd">
<svg version="1.1" id="Capa_1" xmlns="http://www.w3.org/2000/svg" xmlns:xlink="http://www.w3.org/1999/xlink" x="0px" y="0px"
	 width="43.412px" height="43.412px" viewBox="0 0 43.412 43.412" style="enable-background:new 0 0 43.412 43.412;"
	 xml:space="preserve">
<g>
	<g id="_x34_5_13_">
		<g>
			<path d="M15.467,34.481c-2.113,0.027-4.109,0.057-5.285-1.264C9.323,32.253,9,29.597,8.968,27.761h2.678l-3.765-4.375
				l-3.405,4.375h2.68c0.023,1.553,0.241,5.055,1.673,6.662c1.726,1.939,4.349,1.902,6.663,1.871l0.569-0.006l-0.014-1.814
				L15.467,34.481z"/>
			<path d="M27.993,9.902c2.112-0.028,4.108-0.056,5.284,1.264c0.859,0.965,1.183,3.62,1.215,5.457h-2.678l3.765,4.374l3.405-4.374
				h-2.68c-0.022-1.554-0.24-5.055-1.673-6.663c-1.726-1.938-4.349-1.901-6.663-1.871L27.4,8.097l0.014,1.812L27.993,9.902z"/>
			<polygon points="7.318,19.456 21.933,19.456 21.933,6.788 7.318,6.788 7.318,4.149 0,4.149 0,19.456 7.018,19.456 			"/>
			<polygon points="8.857,4.695 8.857,5.551 8.857,5.707 22.747,5.707 22.747,14.858 22.402,14.858 22.402,15.87 22.747,15.87 
				23.184,15.87 23.745,15.87 23.745,5.707 23.745,4.89 23.745,4.695 9.843,4.695 9.843,2.578 9.843,1.878 9.843,1.517 1.7,1.517 
				1.7,2.578 8.857,2.578 			"/>
			<polygon points="26.984,26.589 19.667,26.589 19.667,41.896 26.686,41.896 26.984,41.896 41.6,41.896 41.6,29.228 26.984,29.228 
							"/>
			<polygon points="29.51,27.134 29.51,25.019 29.51,24.317 29.51,23.956 21.367,23.956 21.367,25.019 28.523,25.019 28.523,27.134 
				28.523,27.991 28.523,28.147 42.414,28.147 42.414,37.298 42.07,37.298 42.07,38.31 42.414,38.31 42.852,38.31 43.412,38.31 
				43.412,28.147 43.412,27.329 43.412,27.134 			"/>
		</g>
	</g>
</g>
<g>
</g>
<g>
</g>
<g>
</g>
<g>
</g>
<g>
</g>
<g>
</g>
<g>
</g>
<g>
</g>
<g>
</g>
<g>
</g>
<g>
</g>
<g>
</g>
<g>
</g>
<g>
</g>
<g>
</g>
</svg>
