<?xml version="1.0" encoding="iso-8859-1"?>
<!-- Generator: Adobe Illustrator 16.0.0, SVG Export Plug-In . SVG Version: 6.00 Build 0)  -->
<!DOCTYPE svg PUBLIC "-//W3C//DTD SVG 1.1//EN" "http://www.w3.org/Graphics/SVG/1.1/DTD/svg11.dtd">
<svg version="1.1" id="Capa_1" xmlns="http://www.w3.org/2000/svg" xmlns:xlink="http://www.w3.org/1999/xlink" x="0px" y="0px"
	 width="46.926px" height="46.926px" viewBox="0 0 46.926 46.926" style="enable-background:new 0 0 46.926 46.926;"
	 xml:space="preserve">
<g>
	<g id="_x33_1_102_">
		<g>
			<polygon points="9.14,18.665 0,18.665 0,37.781 8.765,37.781 9.14,37.781 21.828,37.781 21.828,42.202 16.444,42.202 
				16.444,39.546 12.109,43.276 16.444,46.655 16.444,43.999 21.828,43.999 23.119,43.999 23.638,43.999 23.638,37.781 
				27.395,37.781 27.395,21.959 9.14,21.959 			"/>
			<polygon points="12.294,16.7 12.294,15.827 12.294,15.375 2.123,15.375 2.123,16.7 11.062,16.7 11.062,19.344 11.062,20.415 
				11.062,20.609 28.41,20.609 28.41,32.038 27.98,32.038 27.98,33.302 28.41,33.302 28.956,33.302 29.656,33.302 29.656,20.609 
				29.656,19.587 29.656,19.344 12.294,19.344 			"/>
			<polygon points="24.83,4.24 24.83,5.311 24.83,5.505 42.178,5.505 42.178,16.935 41.749,16.935 41.749,18.197 42.178,18.197 
				42.725,18.197 43.425,18.197 43.425,5.505 43.425,4.483 43.425,4.24 26.061,4.24 26.061,1.596 26.061,0.722 26.061,0.271 
				15.89,0.271 15.89,1.596 24.83,1.596 			"/>
			<polygon points="46.926,27.901 42.591,24.17 42.591,26.827 37.207,26.827 37.207,22.677 41.161,22.677 41.161,6.855 
				22.907,6.855 22.907,3.561 13.767,3.561 13.767,17.824 31.102,17.824 31.102,22.677 35.396,22.677 35.396,28.624 35.916,28.624 
				37.207,28.624 42.591,28.624 42.591,31.28 			"/>
		</g>
	</g>
</g>
<g>
</g>
<g>
</g>
<g>
</g>
<g>
</g>
<g>
</g>
<g>
</g>
<g>
</g>
<g>
</g>
<g>
</g>
<g>
</g>
<g>
</g>
<g>
</g>
<g>
</g>
<g>
</g>
<g>
</g>
</svg>
