<?xml version="1.0" encoding="iso-8859-1"?>
<!-- Generator: Adobe Illustrator 16.0.0, SVG Export Plug-In . SVG Version: 6.00 Build 0)  -->
<!DOCTYPE svg PUBLIC "-//W3C//DTD SVG 1.1//EN" "http://www.w3.org/Graphics/SVG/1.1/DTD/svg11.dtd">
<svg version="1.1" id="Capa_1" xmlns="http://www.w3.org/2000/svg" xmlns:xlink="http://www.w3.org/1999/xlink" x="0px" y="0px"
	 width="42.752px" height="42.752px" viewBox="0 0 42.752 42.752" style="enable-background:new 0 0 42.752 42.752;"
	 xml:space="preserve">
<g>
	<g id="_x33_5_59_">
		<g>
			<polygon points="33.112,8.494 29.733,8.494 29.733,0 27.444,0 27.444,8.494 24.065,8.494 28.813,14.011 			"/>
			<polygon points="40.948,18.706 39.397,18.706 19.009,18.706 19.855,14.532 19.434,14.532 17.922,14.532 8.901,14.532 
				7.78,20.681 9.59,20.681 10.412,16.427 17.567,16.427 16.801,20.519 39.046,20.519 35.091,40.984 33.911,40.984 31.907,25.189 
				13.48,25.311 12.918,21.2 1.48,21.311 3.668,42.514 3.699,42.514 3.699,42.752 36.597,42.752 36.597,42.746 36.628,42.752 
				41.272,18.706 			"/>
		</g>
	</g>
</g>
<g>
</g>
<g>
</g>
<g>
</g>
<g>
</g>
<g>
</g>
<g>
</g>
<g>
</g>
<g>
</g>
<g>
</g>
<g>
</g>
<g>
</g>
<g>
</g>
<g>
</g>
<g>
</g>
<g>
</g>
</svg>
