<?xml version="1.0" encoding="iso-8859-1"?>
<!-- Generator: Adobe Illustrator 16.0.0, SVG Export Plug-In . SVG Version: 6.00 Build 0)  -->
<!DOCTYPE svg PUBLIC "-//W3C//DTD SVG 1.1//EN" "http://www.w3.org/Graphics/SVG/1.1/DTD/svg11.dtd">
<svg version="1.1" id="Capa_1" xmlns="http://www.w3.org/2000/svg" xmlns:xlink="http://www.w3.org/1999/xlink" x="0px" y="0px"
	 width="46.58px" height="46.58px" viewBox="0 0 46.58 46.58" style="enable-background:new 0 0 46.58 46.58;" xml:space="preserve"
	>
<g>
	<g id="_x31_27_42_">
		<g>
			<polygon points="7.336,18.988 0,18.988 0,34.332 7.035,34.332 7.336,34.332 21.984,34.332 21.984,21.633 7.336,21.633 			"/>
			<polygon points="9.866,17.413 9.866,16.711 9.866,16.348 1.704,16.348 1.704,17.413 8.878,17.413 8.878,19.535 8.878,20.393 
				8.878,20.55 22.801,20.55 22.801,29.724 22.456,29.724 22.456,30.735 22.801,30.735 23.239,30.735 23.802,30.735 23.802,20.55 
				23.802,19.729 23.802,19.535 9.866,19.535 			"/>
			<polygon points="37.128,17.411 45.536,17.411 45.536,10.12 37.128,10.12 37.128,8.603 32.917,8.603 32.917,17.411 36.956,17.411 
							"/>
			<polygon points="38.58,8.917 38.58,7.699 38.58,7.296 38.58,7.087 33.895,7.087 33.895,7.699 38.014,7.699 38.014,8.917 
				38.014,9.409 38.014,9.499 46.005,9.499 46.005,14.765 45.807,14.765 45.807,15.346 46.005,15.346 46.257,15.346 46.58,15.346 
				46.58,9.499 46.58,9.028 46.58,8.917 			"/>
			<polygon points="37.128,30.685 32.917,30.685 32.917,39.493 36.956,39.493 37.128,39.493 45.536,39.493 45.536,32.203 
				37.128,32.203 			"/>
			<polygon points="38.58,29.781 38.58,29.378 38.58,29.17 33.895,29.17 33.895,29.781 38.014,29.781 38.014,30.999 38.014,31.492 
				38.014,31.582 46.005,31.582 46.005,36.847 45.807,36.847 45.807,37.429 46.005,37.429 46.257,37.429 46.58,37.429 46.58,31.582 
				46.58,31.11 46.58,30.999 38.58,30.999 			"/>
			<path d="M28.459,33.437c0-2.698,0-5.397,0-8.098c0-0.439,0-0.879,0-1.318c0-0.07,0-0.141,0-0.209c0-2.878,0-5.756,0-8.634
				c0-0.572,0-1.145,0-1.717h3.03v-1.529h-0.697c-0.985,0-1.972,0-2.958,0h-0.626v1.529h0.001c0,3.45,0,6.9,0,10.352h-2.062v1.528
				h2.062c0,3.382,0,6.765,0,10.146c0,0.008,0.005,0.015,0.005,0.023v0.695h4.281v-1.529h-3.036
				C28.459,34.263,28.459,33.851,28.459,33.437z"/>
		</g>
	</g>
</g>
<g>
</g>
<g>
</g>
<g>
</g>
<g>
</g>
<g>
</g>
<g>
</g>
<g>
</g>
<g>
</g>
<g>
</g>
<g>
</g>
<g>
</g>
<g>
</g>
<g>
</g>
<g>
</g>
<g>
</g>
</svg>
