<?xml version="1.0" encoding="iso-8859-1"?>
<!-- Generator: Adobe Illustrator 16.0.0, SVG Export Plug-In . SVG Version: 6.00 Build 0)  -->
<!DOCTYPE svg PUBLIC "-//W3C//DTD SVG 1.1//EN" "http://www.w3.org/Graphics/SVG/1.1/DTD/svg11.dtd">
<svg version="1.1" id="Capa_1" xmlns="http://www.w3.org/2000/svg" xmlns:xlink="http://www.w3.org/1999/xlink" x="0px" y="0px"
	 width="43.77px" height="43.77px" viewBox="0 0 43.77 43.77" style="enable-background:new 0 0 43.77 43.77;" xml:space="preserve"
	>
<g>
	<g id="_x34_1_29_">
		<g>
			<polygon points="8.339,11.556 15.019,11.556 14.303,15.375 23.436,15.371 24.492,13.679 16.365,13.683 17.155,9.787 
				16.761,9.787 15.35,9.787 6.928,9.787 5.881,15.527 7.572,15.527 			"/>
			<polygon points="30.277,34.481 28.406,19.736 11.203,19.848 10.678,16.011 0,16.114 2.043,35.909 2.072,35.909 2.072,36.132 
				27.623,36.132 31.308,36.132 32.783,36.132 32.783,36.126 32.814,36.132 33.097,34.456 31.379,34.481 			"/>
			<path d="M24.564,18.997h-0.014C24.517,19.052,24.51,19.069,24.564,18.997z"/>
			<path d="M29.474,7.638l-1.303,1.991c-0.074,0.094-0.121,0.158-0.121,0.158s-4.419,7.081-5.776,9.19l2.276,0.021
				c0.03-0.05,0.084-0.132,0.14-0.215c0.33-0.507,0.658-1.012,0.987-1.517c0.088-0.133,0.243-0.681,0.521-0.667
				c0.438,0.023,1.131,0.606,1.537,0.872c0.861,0.559,1.721,1.119,2.58,1.678c0.312,0.205,0.944,0.531,0.766,0.809
				c-0.211,0.321-0.42,0.643-0.631,0.965c-0.219,0.334-0.436,0.668-0.652,1.002l0.213,1.706c0.225-0.343,0.447-0.685,0.671-1.028
				c0.33-0.507,0.66-1.013,0.988-1.518c0.087-0.133,0.241-0.681,0.519-0.667c0.439,0.025,1.131,0.607,1.539,0.873
				c0.859,0.559,1.721,1.118,2.578,1.678c0.314,0.204,0.946,0.53,0.766,0.808c-0.211,0.321-0.42,0.645-0.631,0.967
				c-0.511,0.785-1.021,1.569-1.533,2.354c-0.002,0-0.004,0.002-0.006,0.003c-0.002,0.002-0.002,0.004-0.002,0.004
				c-0.002,0.002-0.004,0.002-0.006,0.002s-0.004,0.002-0.006,0.002c-0.348,0.195-1.139-0.479-1.551-0.748
				c-0.918-0.597-1.836-1.194-2.756-1.793c-0.168-0.11-0.356-0.225-0.496-0.344l0.271,2.167c0.445,0.292,0.893,0.582,1.338,0.873
				c0.664,0.433,1.924,1.233,1.881,1.297c-0.049,0.076-0.098,0.151-0.147,0.226c-0.119,0.187-0.24,0.369-0.358,0.554
				c0,0-0.002-0.001-0.004-0.001c-0.003-0.001,0,0-0.003,0c-0.002,0-0.004-0.001-0.006-0.003c-0.004-0.001-0.005-0.001-0.006-0.002
				c-0.31-0.12-1.595-0.97-2.524-1.582l0.332,2.672c0.551,0.36,1.074,0.714,1.047,0.756c-0.049,0.075-0.099,0.151-0.148,0.228
				c-0.118,0.184-0.238,0.367-0.357,0.551c0,0-0.002,0-0.005-0.001c-0.002,0,0,0-0.002,0s-0.003-0.003-0.007-0.003
				c-0.002-0.002-0.003-0.002-0.004-0.002c-0.071-0.027-0.201-0.1-0.355-0.19l0.282,1.882c0,0,1.714,0.002,1.714,0
				c2.232-3.425,4.52-7.091,6.75-10.516c1.033-1.584,2.063-3.167,3.098-4.752c0-0.001,0-0.002,0-0.003l0.9-1.375L29.474,7.638z
				 M38.468,21.229c-0.119,0.184-0.24,0.368-0.358,0.553l-0.004-0.002c-0.003,0-0.003,0-0.004,0s-0.003-0.002-0.006-0.002
				c-0.002-0.002-0.002-0.002-0.004-0.002c-0.374-0.146-2.18-1.358-3.053-1.929c-1.938-1.262-3.875-2.526-5.815-3.79
				c-0.798-0.518-1.76-1.134-1.715-1.204c0.058-0.091,0.12-0.182,0.179-0.271c0.077-0.119,0.309-0.578,0.309-0.578l0.156,0.139
				c0,0,2.279,1.455,3.139,2.015c1.814,1.183,3.631,2.365,5.445,3.548c0.662,0.431,1.924,1.232,1.881,1.297
				C38.564,21.079,38.517,21.155,38.468,21.229z M40.138,18.611c-0.12,0.184-0.241,0.368-0.358,0.552c0,0-0.004-0.001-0.006-0.001
				c0-0.001,0,0,0,0c-0.004,0-0.005-0.002-0.008-0.003s-0.003-0.001-0.006-0.001c-0.373-0.146-2.178-1.358-3.053-1.928
				c-1.938-1.262-3.877-2.525-5.816-3.788c-0.797-0.52-1.758-1.136-1.715-1.204c0.061-0.092,0.119-0.183,0.18-0.274
				c0.077-0.119,0.312-0.553,0.312-0.553l0.15,0.115c0,0,2.281,1.455,3.143,2.014c1.814,1.183,3.629,2.366,5.445,3.549
				c0.66,0.431,1.922,1.232,1.879,1.298C40.234,18.46,40.186,18.536,40.138,18.611z"/>
		</g>
	</g>
</g>
<g>
</g>
<g>
</g>
<g>
</g>
<g>
</g>
<g>
</g>
<g>
</g>
<g>
</g>
<g>
</g>
<g>
</g>
<g>
</g>
<g>
</g>
<g>
</g>
<g>
</g>
<g>
</g>
<g>
</g>
</svg>
