<?xml version="1.0" encoding="iso-8859-1"?>
<!-- Generator: Adobe Illustrator 16.0.0, SVG Export Plug-In . SVG Version: 6.00 Build 0)  -->
<!DOCTYPE svg PUBLIC "-//W3C//DTD SVG 1.1//EN" "http://www.w3.org/Graphics/SVG/1.1/DTD/svg11.dtd">
<svg version="1.1" id="Capa_1" xmlns="http://www.w3.org/2000/svg" xmlns:xlink="http://www.w3.org/1999/xlink" x="0px" y="0px"
	 width="39.778px" height="39.777px" viewBox="0 0 39.778 39.777" style="enable-background:new 0 0 39.778 39.777;"
	 xml:space="preserve">
<g>
	<g id="_x33_2_63_">
		<g>
			<path d="M12.204,9.061H0v25.526h11.704h0.5h24.373V13.459H12.204V9.061z M8.02,28.928c0,0.007-0.004,0.012-0.004,0.021
				c-0.001,0.035-0.013,0.071-0.022,0.109c-0.011,0.046-0.021,0.092-0.043,0.13c-0.002,0.004-0.002,0.009-0.004,0.013
				c-0.008,0.016-0.021,0.021-0.03,0.033c-0.029,0.039-0.058,0.076-0.096,0.104c-0.259,0.26-0.637,0.233-1.002,0.233
				c-0.633,0-1.267,0-1.901,0c-0.36,0-0.939,0.096-1.223-0.189c-0.298-0.299-0.286-1.122-0.181-1.504
				c0.143-0.521,0.655-0.5,1.084-0.5c0.626,0,1.254,0,1.881,0c0.362,0,0.899-0.092,1.232,0.104
				C8.168,27.749,8.02,28.491,8.02,28.928z M8.02,26.3c0,0.007-0.004,0.012-0.004,0.02c-0.001,0.036-0.013,0.072-0.022,0.11
				c-0.011,0.046-0.021,0.092-0.043,0.13c-0.002,0.004-0.002,0.008-0.004,0.014c-0.008,0.015-0.021,0.019-0.03,0.032
				c-0.029,0.04-0.058,0.076-0.096,0.104c-0.259,0.26-0.637,0.232-1.002,0.232c-0.633,0-1.267,0-1.901,0
				c-0.36,0-0.939,0.096-1.223-0.188c-0.298-0.299-0.286-1.122-0.181-1.506c0.143-0.521,0.654-0.5,1.084-0.5
				c0.626,0,1.254,0,1.881,0c0.362,0,0.899-0.092,1.232,0.104C8.168,25.12,8.02,25.864,8.02,26.3z M8.02,23.586
				c0,0.007-0.003,0.012-0.004,0.019c-0.001,0.037-0.013,0.075-0.022,0.114c-0.011,0.045-0.022,0.09-0.043,0.127
				c-0.002,0.005-0.002,0.009-0.005,0.015c-0.008,0.014-0.021,0.019-0.03,0.032c-0.029,0.04-0.058,0.076-0.096,0.104
				c-0.259,0.26-0.637,0.232-1.001,0.232c-0.633,0-1.267,0-1.901,0c-0.36,0-0.939,0.098-1.223-0.188
				c-0.298-0.299-0.286-1.122-0.181-1.506c0.143-0.521,0.655-0.5,1.084-0.5c0.626,0,1.254,0,1.881,0c0.362,0,0.9-0.09,1.232,0.104
				C8.168,22.407,8.02,23.151,8.02,23.586z M8.02,21.015c0,0.007-0.003,0.012-0.004,0.018c-0.001,0.037-0.013,0.075-0.022,0.114
				c-0.011,0.046-0.022,0.091-0.043,0.128c-0.002,0.006-0.002,0.01-0.005,0.014c-0.008,0.015-0.021,0.02-0.03,0.033
				c-0.029,0.039-0.058,0.076-0.096,0.104c-0.259,0.259-0.637,0.233-1.001,0.233c-0.633,0-1.267,0-1.901,0
				c-0.36,0-0.939,0.096-1.223-0.188c-0.298-0.298-0.286-1.122-0.181-1.505c0.143-0.521,0.655-0.5,1.084-0.5
				c0.626,0,1.254,0,1.881,0c0.362,0,0.899-0.092,1.232,0.104C8.168,19.836,8.02,20.579,8.02,21.015z M17.389,28.917
				c0,0.007-0.003,0.011-0.003,0.018c-0.001,0.039-0.013,0.077-0.024,0.117c-0.011,0.045-0.022,0.089-0.042,0.126
				c-0.002,0.004-0.001,0.009-0.004,0.014c-0.009,0.015-0.021,0.019-0.03,0.032c-0.029,0.04-0.059,0.077-0.097,0.105
				c-0.26,0.258-0.636,0.232-1.001,0.232c-0.633,0-1.267,0-1.901,0c-0.36,0-0.938,0.096-1.223-0.188
				c-0.298-0.299-0.287-1.123-0.181-1.506c0.143-0.521,0.655-0.5,1.083-0.5c0.627,0,1.254,0,1.881,0c0.362,0,0.9-0.09,1.233,0.104
				C17.536,27.739,17.389,28.482,17.389,28.917z M17.389,26.273c0,0.007-0.003,0.011-0.003,0.019
				c-0.001,0.037-0.013,0.074-0.023,0.113c-0.011,0.045-0.022,0.09-0.043,0.127c-0.002,0.004-0.001,0.01-0.004,0.015
				c-0.009,0.014-0.021,0.019-0.03,0.032c-0.029,0.039-0.058,0.076-0.097,0.104c-0.259,0.259-0.637,0.232-1.002,0.232
				c-0.633,0-1.267,0-1.901,0c-0.36,0-0.938,0.097-1.223-0.188c-0.298-0.298-0.287-1.121-0.181-1.505
				c0.143-0.521,0.654-0.5,1.083-0.5c0.627,0,1.254,0,1.881,0c0.362,0,0.9-0.091,1.233,0.104
				C17.536,25.096,17.389,25.839,17.389,26.273z M17.389,23.682c0,0.007-0.003,0.011-0.003,0.017
				c-0.001,0.039-0.013,0.078-0.024,0.118c-0.011,0.046-0.022,0.089-0.042,0.125c-0.002,0.005-0.001,0.009-0.004,0.015
				c-0.009,0.014-0.021,0.019-0.03,0.031c-0.029,0.041-0.059,0.077-0.097,0.105c-0.26,0.259-0.636,0.232-1.001,0.232
				c-0.633,0-1.267,0-1.901,0c-0.36,0-0.938,0.098-1.223-0.188c-0.298-0.299-0.287-1.123-0.181-1.506
				c0.143-0.52,0.655-0.5,1.083-0.5c0.627,0,1.254,0,1.881,0c0.363,0,0.9-0.092,1.233,0.104
				C17.536,22.504,17.389,23.245,17.389,23.682z M31.02,23.047c0.379-0.104,1.074-0.104,1.453,0C33.049,23.206,33,23.759,33,24.229
				c0,0.672,0,1.344,0,2.014c0,0.441,0.092,1.019-0.398,1.235c-0.412,0.183-0.998,0.074-1.438,0.074
				c-0.104,0-0.189-0.03-0.262-0.072c-0.004-0.001-0.008,0-0.012-0.002c-0.49-0.219-0.398-0.794-0.398-1.235c0-0.67,0-1.342,0-2.014
				C30.493,23.76,30.444,23.204,31.02,23.047z M25.915,16.944c0.299-0.298,1.121-0.286,1.506-0.181c0.52,0.143,0.5,0.655,0.5,1.083
				c0,0.627,0,1.254,0,1.88c0,0.363,0.092,0.9-0.104,1.232c-0.268,0.459-1.012,0.311-1.447,0.311c-0.006,0-0.012-0.003-0.018-0.003
				c-0.037-0.001-0.074-0.013-0.113-0.022c-0.047-0.012-0.09-0.021-0.129-0.043c-0.004-0.002-0.008-0.002-0.014-0.004
				c-0.014-0.009-0.02-0.021-0.031-0.031c-0.039-0.028-0.076-0.058-0.105-0.096c-0.26-0.259-0.232-0.637-0.232-1
				c0-0.634,0-1.268,0-1.902C25.727,17.807,25.629,17.229,25.915,16.944z M25.555,22.264c0-0.058,0-0.112,0-0.168
				c0-0.28,0.432-0.28,0.432,0c0,0.056,0,0.112,0,0.168c0.029,0,0.057,0,0.086,0c0.699,0,0.699,1.083,0,1.083
				c-0.029,0-0.057,0-0.086,0c0,0.617,0,1.234,0,1.852c1.174,0,2.346,0,3.52,0c0.279,0,0.279,0.434,0,0.434c-1.244,0-2.49,0-3.734,0
				c-0.119,0-0.217-0.1-0.217-0.217c0-0.689,0-1.379,0-2.068c-0.029,0-0.059,0-0.086,0c-0.697,0-0.697-1.083,0-1.083
				C25.497,22.264,25.526,22.264,25.555,22.264z M23.323,16.944c0.297-0.298,1.121-0.286,1.506-0.181
				c0.521,0.143,0.5,0.655,0.5,1.083c0,0.627,0,1.254,0,1.88c0,0.363,0.09,0.9-0.104,1.232c-0.27,0.459-1.012,0.311-1.447,0.311
				c-0.008,0-0.012-0.003-0.02-0.003c-0.037-0.001-0.074-0.013-0.111-0.022c-0.045-0.012-0.092-0.021-0.129-0.043
				c-0.004-0.002-0.01-0.002-0.014-0.004c-0.016-0.009-0.02-0.021-0.033-0.031c-0.039-0.028-0.074-0.058-0.104-0.096
				c-0.26-0.259-0.234-0.637-0.234-1.002c0-0.633,0-1.267,0-1.901C23.135,17.807,23.038,17.229,23.323,16.944z M21.928,18.342
				c0.279,0,0.279,0.433,0,0.433c-3.508,0-7.017,0-10.525,0c-0.272,0-0.543,0-0.815,0c0,0.809,0,1.619,0,2.428
				c0,1.371,0,2.74,0,4.11c0.028,0,0.057,0,0.085,0c0.253,0,0.411,0.144,0.481,0.325c0.145,0,0.29,0,0.435,0
				c0.279,0,0.279,0.434,0,0.434c-0.145,0-0.29,0-0.435,0c-0.07,0.18-0.228,0.324-0.481,0.324c-0.201,0-0.403,0-0.604,0
				c-0.253,0-0.411-0.145-0.481-0.324c-0.145,0-0.29,0-0.436,0c-0.279,0-0.279-0.434,0-0.434c0.146,0,0.291,0,0.436,0
				c0.07-0.182,0.228-0.325,0.481-0.325c0.028,0,0.057,0,0.085,0c0-2.252,0-4.504,0-6.755c0-0.118,0.098-0.216,0.216-0.216
				C14.223,18.342,18.076,18.342,21.928,18.342z"/>
			<polygon points="16.594,10.493 16.594,6.963 16.594,5.796 16.594,5.19 3.014,5.19 3.014,6.963 14.95,6.963 14.95,10.493 
				14.95,11.921 14.95,12.182 38.114,12.182 38.114,27.441 37.54,27.441 37.54,29.128 38.114,29.128 38.842,29.128 39.778,29.128 
				39.778,12.182 39.778,10.816 39.778,10.493 			"/>
		</g>
	</g>
</g>
<g>
</g>
<g>
</g>
<g>
</g>
<g>
</g>
<g>
</g>
<g>
</g>
<g>
</g>
<g>
</g>
<g>
</g>
<g>
</g>
<g>
</g>
<g>
</g>
<g>
</g>
<g>
</g>
<g>
</g>
</svg>
