<?xml version="1.0" encoding="iso-8859-1"?>
<!-- Generator: Adobe Illustrator 16.0.0, SVG Export Plug-In . SVG Version: 6.00 Build 0)  -->
<!DOCTYPE svg PUBLIC "-//W3C//DTD SVG 1.1//EN" "http://www.w3.org/Graphics/SVG/1.1/DTD/svg11.dtd">
<svg version="1.1" id="Capa_1" xmlns="http://www.w3.org/2000/svg" xmlns:xlink="http://www.w3.org/1999/xlink" x="0px" y="0px"
	 width="41.43px" height="41.43px" viewBox="0 0 41.43 41.43" style="enable-background:new 0 0 41.43 41.43;" xml:space="preserve"
	>
<g>
	<g id="_x34_2_25_">
		<g>
			<polygon points="12.204,13.94 0,13.94 0,39.466 11.704,39.466 12.204,39.466 36.576,39.466 36.576,18.34 12.204,18.34 			"/>
			<polygon points="38.186,3.934 16.898,3.934 16.898,5.126 38.186,5.126 38.186,14.27 39.377,14.27 39.377,3.934 39.281,3.934 			
				"/>
			<polygon points="40.835,1.964 40.238,1.964 18.452,1.964 18.452,3.155 40.238,3.155 40.238,12.299 41.43,12.299 41.43,1.964 			
				"/>
			<path d="M36.252,5.94H15.061H13.87v1.192v9.201h23.388c0-0.028,0-0.057,0-0.085c0-0.509,0-1.017,0-1.526c0-2.376,0-4.751,0-7.126
				V5.953h-1.005L36.252,5.94L36.252,5.94z M33.773,15.383c-5.136,0-10.272,0-15.409,0c-0.847,0-0.847-1.207,0-1.207
				c5.136,0,10.272,0,15.409,0C34.621,14.177,34.621,15.383,33.773,15.383z M33.773,11.444c-5.136,0-10.272,0-15.409,0
				c-0.847,0-0.847-1.207,0-1.207c5.136,0,10.272,0,15.409,0C34.621,10.238,34.621,11.444,33.773,11.444z"/>
		</g>
	</g>
</g>
<g>
</g>
<g>
</g>
<g>
</g>
<g>
</g>
<g>
</g>
<g>
</g>
<g>
</g>
<g>
</g>
<g>
</g>
<g>
</g>
<g>
</g>
<g>
</g>
<g>
</g>
<g>
</g>
<g>
</g>
</svg>
