<?xml version="1.0" encoding="iso-8859-1"?>
<!-- Generator: Adobe Illustrator 16.0.0, SVG Export Plug-In . SVG Version: 6.00 Build 0)  -->
<!DOCTYPE svg PUBLIC "-//W3C//DTD SVG 1.1//EN" "http://www.w3.org/Graphics/SVG/1.1/DTD/svg11.dtd">
<svg version="1.1" id="Capa_1" xmlns="http://www.w3.org/2000/svg" xmlns:xlink="http://www.w3.org/1999/xlink" x="0px" y="0px"
	 width="234.287px" height="234.288px" viewBox="0 0 234.287 234.288" style="enable-background:new 0 0 234.287 234.288;"
	 xml:space="preserve">
<g>
	<g id="_x38_6_7_">
		<g>
			<path d="M173.832,0H26.931v234.288h180.426V32.504L173.832,0z M191.757,218.683H42.53V15.6h123.269v24.75h25.958V218.683z"/>
			<path d="M148.995,103.819h-1.432c-0.092-19.027-9.323-37.559-30.717-38.339c-21.366-0.79-30.938,19.743-31.626,38.339h-7.472
				h-0.086v7.894c-0.213,3.161,0.086,7.353,0.086,8.878c0,9.014,0,18.048,0,27.076c0,6.398,0,12.807,0,19.2c0,0.543,0,1.092,0,1.63
				v8.119h9.75h61.497h7.714h2.036v-72.797h-2.123H148.995z M126.236,158.625c-5.698,0-11.391,0-17.085,0
				c-1.028,0-1.907-1.106-1.574-2.163c1.737-5.464,3.474-10.928,5.21-16.392c-2.991-1.767-5.185-4.896-4.981-8.765
				c0.279-5.362,4.311-10.623,9.895-10.318c5.585,0.325,9.583,4.479,9.876,10.318c-0.172,3.463-1.93,6.846-4.646,8.755
				c1.631,5.474,3.256,10.942,4.88,16.401C128.135,157.519,127.282,158.625,126.236,158.625z M91.472,103.819
				c0.556-15.615,7.551-31.422,25.37-32.073c17.864-0.665,24.201,16.836,24.409,32.073H91.472z"/>
		</g>
	</g>
</g>
<g>
</g>
<g>
</g>
<g>
</g>
<g>
</g>
<g>
</g>
<g>
</g>
<g>
</g>
<g>
</g>
<g>
</g>
<g>
</g>
<g>
</g>
<g>
</g>
<g>
</g>
<g>
</g>
<g>
</g>
</svg>
