<?xml version="1.0" encoding="iso-8859-1"?>
<!-- Generator: Adobe Illustrator 16.0.0, SVG Export Plug-In . SVG Version: 6.00 Build 0)  -->
<!DOCTYPE svg PUBLIC "-//W3C//DTD SVG 1.1//EN" "http://www.w3.org/Graphics/SVG/1.1/DTD/svg11.dtd">
<svg version="1.1" id="Capa_1" xmlns="http://www.w3.org/2000/svg" xmlns:xlink="http://www.w3.org/1999/xlink" x="0px" y="0px"
	 width="45.057px" height="45.057px" viewBox="0 0 45.057 45.057" style="enable-background:new 0 0 45.057 45.057;"
	 xml:space="preserve">
<g>
	<g id="_x31_74_48_">
		<g>
			<path d="M15.52,33.867c-0.278,0-0.471,0-0.604,0c-0.188,0-0.256,0-0.257,0c-0.133,0-0.325,0-0.604,0c-1.553,0-1.553,2.5,0,2.5
				c0.279,0,0.472,0,0.604,0c0.188,0,0.256,0,0.257,0c0.133,0,0.325,0,0.604,0C17.075,36.367,17.075,33.867,15.52,33.867z"/>
			<path d="M15.52,25.341c-0.278,0-0.471,0-0.604,0c-0.188,0-0.256,0-0.257,0c-0.133,0-0.325,0-0.604,0c-1.553,0-1.553,2.5,0,2.5
				c0.279,0,0.472,0,0.604,0c0.188,0,0.256,0,0.257,0c0.133,0,0.325,0,0.604,0C17.075,27.841,17.075,25.341,15.52,25.341z"/>
			<path d="M15.52,29.382c-0.278,0-0.471,0-0.604,0c-0.188,0-0.256,0-0.257,0c-0.133,0-0.325,0-0.604,0c-1.553,0-1.553,2.5,0,2.5
				c0.279,0,0.472,0,0.604,0c0.188,0,0.256,0,0.257,0c0.133,0,0.325,0,0.604,0C17.075,31.882,17.075,29.382,15.52,29.382z"/>
			<path d="M15.52,21.035c-0.278,0-0.471,0-0.604,0c-0.188,0-0.256,0-0.257,0c-0.133,0-0.325,0-0.604,0c-1.553,0-1.553,2.5,0,2.5
				c0.279,0,0.472,0,0.604,0c0.188,0,0.256,0,0.257,0c0.133,0,0.325,0,0.604,0C17.075,23.535,17.075,21.035,15.52,21.035z"/>
			<path d="M15.52,12.507c-0.278,0-0.471,0-0.604,0c-0.188,0-0.256,0-0.257,0c-0.133,0-0.325,0-0.604,0c-1.553,0-1.553,2.5,0,2.5
				c0.279,0,0.472,0,0.604,0c0.188,0,0.256,0,0.257,0c0.133,0,0.325,0,0.604,0C17.075,15.007,17.075,12.507,15.52,12.507z"/>
			<path d="M15.52,16.549c-0.278,0-0.471,0-0.604,0c-0.188,0-0.256,0-0.257,0c-0.133,0-0.325,0-0.604,0c-1.553,0-1.553,2.5,0,2.5
				c0.279,0,0.472,0,0.604,0c0.188,0,0.256,0,0.257,0c0.133,0,0.325,0,0.604,0C17.075,19.049,17.075,16.549,15.52,16.549z"/>
			<path d="M20.603,33.867c-0.278,0-0.471,0-0.604,0c-0.188,0-0.256,0-0.256,0c-0.134,0-0.326,0-0.605,0c-1.553,0-1.553,2.5,0,2.5
				c0.279,0,0.472,0,0.604,0c0.188,0,0.256,0,0.256,0c0.134,0,0.326,0,0.604,0C22.158,36.367,22.158,33.867,20.603,33.867z"/>
			<path d="M20.603,25.341c-0.278,0-0.471,0-0.604,0c-0.188,0-0.256,0-0.256,0c-0.134,0-0.326,0-0.605,0c-1.553,0-1.553,2.5,0,2.5
				c0.279,0,0.472,0,0.604,0c0.188,0,0.256,0,0.256,0c0.134,0,0.326,0,0.604,0C22.158,27.841,22.158,25.341,20.603,25.341z"/>
			<path d="M20.603,29.382c-0.278,0-0.471,0-0.604,0c-0.188,0-0.256,0-0.256,0c-0.134,0-0.326,0-0.605,0c-1.553,0-1.553,2.5,0,2.5
				c0.279,0,0.472,0,0.604,0c0.188,0,0.256,0,0.256,0c0.134,0,0.326,0,0.604,0C22.158,31.882,22.158,29.382,20.603,29.382z"/>
			<path d="M20.603,21.035c-0.278,0-0.471,0-0.604,0c-0.188,0-0.256,0-0.256,0c-0.134,0-0.326,0-0.605,0c-1.553,0-1.553,2.5,0,2.5
				c0.279,0,0.472,0,0.604,0c0.188,0,0.256,0,0.256,0c0.134,0,0.326,0,0.604,0C22.158,23.535,22.158,21.035,20.603,21.035z"/>
			<path d="M20.603,12.507c-0.278,0-0.471,0-0.604,0c-0.188,0-0.256,0-0.256,0c-0.134,0-0.326,0-0.605,0c-1.553,0-1.553,2.5,0,2.5
				c0.279,0,0.472,0,0.604,0c0.188,0,0.256,0,0.256,0c0.134,0,0.326,0,0.604,0C22.158,15.007,22.158,12.507,20.603,12.507z"/>
			<path d="M20.603,16.549c-0.278,0-0.471,0-0.604,0c-0.188,0-0.256,0-0.256,0c-0.134,0-0.326,0-0.605,0c-1.553,0-1.553,2.5,0,2.5
				c0.279,0,0.472,0,0.604,0c0.188,0,0.256,0,0.256,0c0.134,0,0.326,0,0.604,0C22.158,19.049,22.158,16.549,20.603,16.549z"/>
			<path d="M25.919,33.867c-0.278,0-0.472,0-0.604,0c-0.188,0-0.256,0-0.257,0c-0.133,0-0.325,0-0.604,0c-1.552,0-1.552,2.5,0,2.5
				c0.279,0,0.473,0,0.604,0c0.188,0,0.257,0,0.257,0c0.133,0,0.325,0,0.604,0C27.473,36.367,27.473,33.867,25.919,33.867z"/>
			<path d="M25.919,25.341c-0.278,0-0.472,0-0.604,0c-0.188,0-0.256,0-0.257,0c-0.133,0-0.325,0-0.604,0c-1.552,0-1.552,2.5,0,2.5
				c0.279,0,0.473,0,0.604,0c0.188,0,0.257,0,0.257,0c0.133,0,0.325,0,0.604,0C27.473,27.841,27.473,25.341,25.919,25.341z"/>
			<path d="M25.919,29.382c-0.278,0-0.472,0-0.604,0c-0.188,0-0.256,0-0.257,0c-0.133,0-0.325,0-0.604,0c-1.552,0-1.552,2.5,0,2.5
				c0.279,0,0.473,0,0.604,0c0.188,0,0.257,0,0.257,0c0.133,0,0.325,0,0.604,0C27.473,31.882,27.473,29.382,25.919,29.382z"/>
			<path d="M25.919,21.035c-0.278,0-0.472,0-0.604,0c-0.188,0-0.256,0-0.257,0c-0.133,0-0.325,0-0.604,0c-1.552,0-1.552,2.5,0,2.5
				c0.279,0,0.473,0,0.604,0c0.188,0,0.257,0,0.257,0c0.133,0,0.325,0,0.604,0C27.473,23.535,27.473,21.035,25.919,21.035z"/>
			<path d="M25.919,12.507c-0.278,0-0.472,0-0.604,0c-0.188,0-0.256,0-0.257,0c-0.133,0-0.325,0-0.604,0c-1.552,0-1.552,2.5,0,2.5
				c0.279,0,0.473,0,0.604,0c0.188,0,0.257,0,0.257,0c0.133,0,0.325,0,0.604,0C27.473,15.007,27.473,12.507,25.919,12.507z"/>
			<path d="M25.919,16.549c-0.278,0-0.472,0-0.604,0c-0.188,0-0.256,0-0.257,0c-0.133,0-0.325,0-0.604,0c-1.552,0-1.552,2.5,0,2.5
				c0.279,0,0.473,0,0.604,0c0.188,0,0.257,0,0.257,0c0.133,0,0.325,0,0.604,0C27.473,19.049,27.473,16.549,25.919,16.549z"/>
			<path d="M31.002,33.867c-0.278,0-0.471,0-0.604,0c-0.188,0-0.257,0-0.257,0c-0.134,0-0.325,0-0.604,0c-1.553,0-1.553,2.5,0,2.5
				c0.279,0,0.472,0,0.604,0c0.188,0,0.256,0,0.256,0c0.135,0,0.326,0,0.604,0C32.556,36.367,32.556,33.867,31.002,33.867z"/>
			<path d="M31.002,25.341c-0.278,0-0.471,0-0.604,0c-0.188,0-0.257,0-0.257,0c-0.134,0-0.325,0-0.604,0c-1.553,0-1.553,2.5,0,2.5
				c0.279,0,0.472,0,0.604,0c0.188,0,0.256,0,0.256,0c0.135,0,0.326,0,0.604,0C32.556,27.841,32.556,25.341,31.002,25.341z"/>
			<path d="M31.002,29.382c-0.278,0-0.471,0-0.604,0c-0.188,0-0.257,0-0.257,0c-0.134,0-0.325,0-0.604,0c-1.553,0-1.553,2.5,0,2.5
				c0.279,0,0.472,0,0.604,0c0.188,0,0.256,0,0.256,0c0.135,0,0.326,0,0.604,0C32.556,31.882,32.556,29.382,31.002,29.382z"/>
			<path d="M31.002,21.035c-0.278,0-0.471,0-0.604,0c-0.188,0-0.257,0-0.257,0c-0.134,0-0.325,0-0.604,0c-1.553,0-1.553,2.5,0,2.5
				c0.279,0,0.472,0,0.604,0c0.188,0,0.256,0,0.256,0c0.135,0,0.326,0,0.604,0C32.556,23.535,32.556,21.035,31.002,21.035z"/>
			<path d="M31.002,12.507c-0.278,0-0.471,0-0.604,0c-0.188,0-0.257,0-0.257,0c-0.134,0-0.325,0-0.604,0c-1.553,0-1.553,2.5,0,2.5
				c0.279,0,0.472,0,0.604,0c0.188,0,0.256,0,0.256,0c0.135,0,0.326,0,0.604,0C32.556,15.007,32.556,12.507,31.002,12.507z"/>
			<path d="M31.002,16.549c-0.278,0-0.471,0-0.604,0c-0.188,0-0.257,0-0.257,0c-0.134,0-0.325,0-0.604,0c-1.553,0-1.553,2.5,0,2.5
				c0.279,0,0.472,0,0.604,0c0.188,0,0.256,0,0.256,0c0.135,0,0.326,0,0.604,0C32.556,19.049,32.556,16.549,31.002,16.549z"/>
			<path d="M33.43,0H5.18v45.057h34.697V6.251L33.43,0z M36.878,42.056H8.18V3h23.705v4.76h4.992L36.878,42.056L36.878,42.056z"/>
		</g>
	</g>
</g>
<g>
</g>
<g>
</g>
<g>
</g>
<g>
</g>
<g>
</g>
<g>
</g>
<g>
</g>
<g>
</g>
<g>
</g>
<g>
</g>
<g>
</g>
<g>
</g>
<g>
</g>
<g>
</g>
<g>
</g>
</svg>
