<?xml version="1.0" encoding="iso-8859-1"?>
<!-- Generator: Adobe Illustrator 16.0.0, SVG Export Plug-In . SVG Version: 6.00 Build 0)  -->
<!DOCTYPE svg PUBLIC "-//W3C//DTD SVG 1.1//EN" "http://www.w3.org/Graphics/SVG/1.1/DTD/svg11.dtd">
<svg version="1.1" id="Capa_1" xmlns="http://www.w3.org/2000/svg" xmlns:xlink="http://www.w3.org/1999/xlink" x="0px" y="0px"
	 width="48.875px" height="48.875px" viewBox="0 0 48.875 48.875" style="enable-background:new 0 0 48.875 48.875;"
	 xml:space="preserve">
<g>
	<g id="_x38_5_17_">
		<g>
			<path d="M5.11,18.546c-0.773,0-0.773,1.199,0,1.199c3.082,0,6.163,0,9.244,0c0.774,0,0.774-1.199,0-1.199
				C11.272,18.546,8.191,18.546,5.11,18.546z"/>
			<path d="M14.354,21.387c-3.081,0-6.162,0-9.244,0c-0.773,0-0.773,1.201,0,1.201c3.082,0,6.163,0,9.244,0
				C15.127,22.587,15.127,21.387,14.354,21.387z"/>
			<path d="M14.354,24.02c-3.081,0-6.162,0-9.244,0c-0.773,0-0.773,1.201,0,1.201c3.082,0,6.163,0,9.244,0
				C15.127,25.221,15.127,24.02,14.354,24.02z"/>
			<path d="M14.354,26.861c-3.081,0-6.162,0-9.244,0c-0.773,0-0.773,1.199,0,1.199c3.082,0,6.163,0,9.244,0
				C15.127,28.061,15.127,26.861,14.354,26.861z"/>
			<path d="M14.175,29.541c-3.082,0-6.163,0-9.244,0c-0.773,0-0.773,1.201,0,1.201c3.081,0,6.162,0,9.244,0
				C14.949,30.742,14.949,29.541,14.175,29.541z"/>
			<path d="M43.946,18.627c-3.082,0-6.162,0-9.244,0c-0.775,0-0.775,1.201,0,1.201c3.082,0,6.162,0,9.244,0
				C44.717,19.83,44.717,18.627,43.946,18.627z"/>
			<path d="M43.946,21.47c-3.082,0-6.162,0-9.244,0c-0.775,0-0.775,1.201,0,1.201c3.082,0,6.162,0,9.244,0
				C44.717,22.67,44.717,21.47,43.946,21.47z"/>
			<path d="M43.946,24.103c-3.082,0-6.162,0-9.244,0c-0.775,0-0.775,1.199,0,1.199c3.082,0,6.162,0,9.244,0
				C44.717,25.302,44.717,24.103,43.946,24.103z"/>
			<path d="M43.946,26.944c-3.082,0-6.162,0-9.244,0c-0.775,0-0.775,1.199,0,1.199c3.082,0,6.162,0,9.244,0
				C44.717,28.144,44.717,26.944,43.946,26.944z"/>
			<path d="M43.766,29.625c-3.08,0-6.162,0-9.242,0c-0.775,0-0.775,1.198,0,1.198c3.08,0,6.162,0,9.242,0
				C44.54,30.823,44.54,29.625,43.766,29.625z"/>
			<polygon points="23.996,20.68 21.11,23.163 23.996,25.412 23.996,23.644 28.44,23.644 28.44,22.447 23.996,22.447 			"/>
			<polygon points="25.555,28.512 21.11,28.512 21.11,29.709 25.555,29.709 25.555,31.477 28.44,28.994 25.555,26.744 			"/>
			<path d="M0,12.093v24.812h19.107V15.536l-3.55-3.442L0,12.093L0,12.093z M17.455,35.252H1.652V13.746h13.054v2.621h2.749V35.252z
				"/>
			<path d="M45.327,11.971H29.77v24.812h19.105V15.414L45.327,11.971z M47.225,35.129H31.42V13.624h13.055v2.621h2.75V35.129z"/>
		</g>
	</g>
</g>
<g>
</g>
<g>
</g>
<g>
</g>
<g>
</g>
<g>
</g>
<g>
</g>
<g>
</g>
<g>
</g>
<g>
</g>
<g>
</g>
<g>
</g>
<g>
</g>
<g>
</g>
<g>
</g>
<g>
</g>
</svg>
