<?xml version="1.0" encoding="iso-8859-1"?>
<!-- Generator: Adobe Illustrator 16.0.0, SVG Export Plug-In . SVG Version: 6.00 Build 0)  -->
<!DOCTYPE svg PUBLIC "-//W3C//DTD SVG 1.1//EN" "http://www.w3.org/Graphics/SVG/1.1/DTD/svg11.dtd">
<svg version="1.1" id="Capa_1" xmlns="http://www.w3.org/2000/svg" xmlns:xlink="http://www.w3.org/1999/xlink" x="0px" y="0px"
	 width="234.287px" height="234.288px" viewBox="0 0 234.287 234.288" style="enable-background:new 0 0 234.287 234.288;"
	 xml:space="preserve">
<g>
	<g id="_x35_3_13_">
		<g>
			<path d="M104.743,152.928H64.251c-1.467,0-2.653,0.884-2.653,1.991v40.816c0,1.097,1.186,1.99,2.653,1.99h40.492
				c1.47,0,2.656-0.894,2.656-1.99v-40.816C107.394,153.812,106.208,152.928,104.743,152.928z"/>
			<path d="M66.877,49.007c-3.537,0-6.391,0.823-6.391,1.841v37.793c0,1.013,2.859,1.841,6.391,1.841h97.581
				c3.539,0,6.393-0.822,6.393-1.841V50.848c0-1.013-2.858-1.841-6.393-1.841H66.877z"/>
			<path d="M165.245,102.359c-33.373,0-66.743,0-100.115,0c-8.384,0-8.384,13,0,13c33.373,0,66.742,0,100.115,0
				C173.623,115.359,173.623,102.359,165.245,102.359z"/>
			<path d="M164.275,126.736c-33.373,0-66.74,0-100.113,0c-8.381,0-8.381,13,0,13c33.373,0,66.74,0,100.113,0
				C172.658,139.736,172.658,126.736,164.275,126.736z"/>
			<path d="M158.318,158.321c-11.629,0-23.262,0-34.886,0c-8.384,0-8.384,13,0,13c11.629,0,23.263,0,34.886,0
				C166.707,171.321,166.707,158.321,158.318,158.321z"/>
			<path d="M158.318,179.333c-11.629,0-23.262,0-34.886,0c-8.384,0-8.384,13,0,13c11.629,0,23.263,0,34.886,0
				C166.707,192.333,166.707,179.333,158.318,179.333z"/>
			<path d="M173.832,0H26.931v234.288h180.426V32.499L173.832,0z M191.757,218.683H42.53V15.6h123.269v24.75h25.958V218.683z"/>
		</g>
	</g>
</g>
<g>
</g>
<g>
</g>
<g>
</g>
<g>
</g>
<g>
</g>
<g>
</g>
<g>
</g>
<g>
</g>
<g>
</g>
<g>
</g>
<g>
</g>
<g>
</g>
<g>
</g>
<g>
</g>
<g>
</g>
</svg>
