<?xml version="1.0" encoding="iso-8859-1"?>
<!-- Generator: Adobe Illustrator 16.0.0, SVG Export Plug-In . SVG Version: 6.00 Build 0)  -->
<!DOCTYPE svg PUBLIC "-//W3C//DTD SVG 1.1//EN" "http://www.w3.org/Graphics/SVG/1.1/DTD/svg11.dtd">
<svg version="1.1" id="Capa_1" xmlns="http://www.w3.org/2000/svg" xmlns:xlink="http://www.w3.org/1999/xlink" x="0px" y="0px"
	 width="234.287px" height="234.288px" viewBox="0 0 234.287 234.288" style="enable-background:new 0 0 234.287 234.288;"
	 xml:space="preserve">
<g>
	<g id="_x35_9_40_">
		<g>
			<path d="M158.938,120.612c-2.152,4.007-4.306,8.003-6.448,12.005c-3.555-11.015-7.095-22.026-10.644-33.04
				c-1.29-4.014-6.403-3.691-7.82,0c-3.778,9.879-7.556,19.758-11.334,29.647c-3.885-17.729-7.767-35.457-11.651-53.189
				c-0.868-3.971-6.827-3.783-7.815,0c-4.781,18.336-9.549,36.666-14.323,55.007c-2.694-5.53-5.38-11.061-8.074-16.585
				c-1.696-3.488-6.266-1.97-7.412,0.973c-2.724,7-5.443,13.997-8.163,20.995c-0.536,1.386-0.932,2.234-1.221,2.812
				c-3.979,0-7.962,0-11.934,0c-5.232,0-5.232,8.109,0,8.109c4.934,0,9.875,0,14.818,0c1.945,0,3.24-1.264,3.905-2.976
				c2.306-5.931,4.613-11.856,6.917-17.788c2.938,6.043,5.888,12.091,8.825,18.129c1.569,3.219,6.571,2.265,7.409-0.965
				c4.276-16.422,8.554-32.832,12.83-49.257c3.639,16.628,7.279,33.251,10.923,49.876c0.937,4.271,6.5,3.438,7.82,0
				c4.017-10.512,8.044-21.027,12.061-31.542c3.347,10.388,6.683,20.776,10.039,31.166c1.021,3.189,5.667,4.2,7.403,0.971
				c2.255-4.18,4.494-8.354,6.744-12.527c1.493,3.98,2.985,7.957,4.469,11.938c0.645,1.712,1.98,2.976,3.909,2.976
				c1.098,0,2.204,0,3.301,0c1.514,0,3.027,0,4.551,0c1.391,0,2.782,0,4.174,0c5.23,0,5.23-8.109,0-8.109c-1.392,0-2.783,0-4.174,0
				c-0.904,0-1.809,0-2.712,0c-0.614,0-1.229,0-1.839,0v0.163c-0.386,0.081-0.711,0.173-0.934,0.284
				c0.04-0.731-0.143-1.971-0.904-4.002c-1.762-4.691-3.524-9.404-5.281-14.096C165.194,118.51,160.735,117.276,158.938,120.612z"/>
			<path d="M173.837,0H26.931v234.288h180.426V32.504L173.837,0z M191.757,218.683H42.53V15.6h123.269v24.75h25.958V218.683z"/>
		</g>
	</g>
</g>
<g>
</g>
<g>
</g>
<g>
</g>
<g>
</g>
<g>
</g>
<g>
</g>
<g>
</g>
<g>
</g>
<g>
</g>
<g>
</g>
<g>
</g>
<g>
</g>
<g>
</g>
<g>
</g>
<g>
</g>
</svg>
