<?xml version="1.0" encoding="iso-8859-1"?>
<!-- Generator: Adobe Illustrator 16.0.0, SVG Export Plug-In . SVG Version: 6.00 Build 0)  -->
<!DOCTYPE svg PUBLIC "-//W3C//DTD SVG 1.1//EN" "http://www.w3.org/Graphics/SVG/1.1/DTD/svg11.dtd">
<svg version="1.1" id="Capa_1" xmlns="http://www.w3.org/2000/svg" xmlns:xlink="http://www.w3.org/1999/xlink" x="0px" y="0px"
	 width="45.057px" height="45.057px" viewBox="0 0 45.057 45.057" style="enable-background:new 0 0 45.057 45.057;"
	 xml:space="preserve">
<g>
	<g id="_x31_78_99_">
		<g>
			<path d="M33.43,0H5.18v45.057h34.697V6.251L33.43,0z M36.878,42.056H8.18V3h23.705v4.76h4.992L36.878,42.056L36.878,42.056z"/>
			<rect x="12.211" y="12.49" width="4.51" height="4.298"/>
			<rect x="17.799" y="12.49" width="4.511" height="4.298"/>
			<rect x="23.4" y="12.49" width="4.512" height="4.298"/>
			<rect x="12.117" y="17.964" width="4.51" height="4.298"/>
			<rect x="17.705" y="17.964" width="4.511" height="4.298"/>
			<rect x="23.308" y="17.964" width="4.511" height="4.298"/>
			<rect x="12.157" y="23.117" width="4.51" height="4.298"/>
			<rect x="17.745" y="23.117" width="4.511" height="4.298"/>
			<rect x="23.348" y="23.117" width="4.51" height="4.298"/>
			<rect x="28.805" y="12.445" width="4.512" height="4.298"/>
			<rect x="28.712" y="17.919" width="4.511" height="4.298"/>
			<rect x="28.752" y="23.072" width="4.51" height="4.297"/>
			<rect x="12.211" y="28.312" width="4.51" height="4.299"/>
			<rect x="17.799" y="28.312" width="4.511" height="4.299"/>
			<rect x="23.402" y="28.312" width="4.51" height="4.299"/>
			<rect x="12.251" y="33.467" width="4.51" height="4.298"/>
			<rect x="17.839" y="33.467" width="4.511" height="4.298"/>
			<rect x="28.805" y="28.268" width="4.512" height="4.299"/>
			<rect x="12.344" y="6.853" width="10.99" height="1.201"/>
			<rect x="12.344" y="9.128" width="10.99" height="1.201"/>
		</g>
	</g>
</g>
<g>
</g>
<g>
</g>
<g>
</g>
<g>
</g>
<g>
</g>
<g>
</g>
<g>
</g>
<g>
</g>
<g>
</g>
<g>
</g>
<g>
</g>
<g>
</g>
<g>
</g>
<g>
</g>
<g>
</g>
</svg>
