<?xml version="1.0" encoding="iso-8859-1"?>
<!-- Generator: Adobe Illustrator 16.0.0, SVG Export Plug-In . SVG Version: 6.00 Build 0)  -->
<!DOCTYPE svg PUBLIC "-//W3C//DTD SVG 1.1//EN" "http://www.w3.org/Graphics/SVG/1.1/DTD/svg11.dtd">
<svg version="1.1" id="Capa_1" xmlns="http://www.w3.org/2000/svg" xmlns:xlink="http://www.w3.org/1999/xlink" x="0px" y="0px"
	 width="45.057px" height="45.057px" viewBox="0 0 45.057 45.057" style="enable-background:new 0 0 45.057 45.057;"
	 xml:space="preserve">
<g>
	<g id="_x31_41_100_">
		<g>
			<path d="M33.431,0H5.179v45.057h34.699V6.251L33.431,0z M36.878,42.056H8.179V3h23.707v4.76h4.992V42.056L36.878,42.056z"/>
			<path d="M16.667,16.484l0.003-0.102l-4.581-0.171l-0.098,3.08l2.698,0.112l1.516,1.819l0.076,7.197v1.552h13.794l0.012,0.004
				l3.25-9.036l0.422-1.051H19.545L16.667,16.484z M27.919,26.889h-8.573l-0.05-3.917h10.031L27.919,26.889z"/>
			<circle cx="18.607" cy="32.993" r="2.229"/>
			<circle cx="27.647" cy="32.993" r="2.229"/>
		</g>
	</g>
</g>
<g>
</g>
<g>
</g>
<g>
</g>
<g>
</g>
<g>
</g>
<g>
</g>
<g>
</g>
<g>
</g>
<g>
</g>
<g>
</g>
<g>
</g>
<g>
</g>
<g>
</g>
<g>
</g>
<g>
</g>
</svg>
