<?xml version="1.0" encoding="iso-8859-1"?>
<!-- Generator: Adobe Illustrator 16.0.0, SVG Export Plug-In . SVG Version: 6.00 Build 0)  -->
<!DOCTYPE svg PUBLIC "-//W3C//DTD SVG 1.1//EN" "http://www.w3.org/Graphics/SVG/1.1/DTD/svg11.dtd">
<svg version="1.1" id="Capa_1" xmlns="http://www.w3.org/2000/svg" xmlns:xlink="http://www.w3.org/1999/xlink" x="0px" y="0px"
	 width="234.288px" height="234.288px" viewBox="0 0 234.288 234.288" style="enable-background:new 0 0 234.288 234.288;"
	 xml:space="preserve">
<g>
	<g id="_x31_31_63_">
		<g>
			<path d="M164.526,144.875c-11.212,0-22.414,0-33.616,0c-8.084,0-8.084,13,0,13c11.202,0,22.404,0,33.616,0
				C172.601,157.875,172.601,144.875,164.526,144.875z"/>
			<path d="M164.526,165.887c-11.212,0-22.414,0-33.616,0c-8.084,0-8.084,13,0,13c11.202,0,22.404,0,33.616,0
				C172.601,178.887,172.601,165.887,164.526,165.887z"/>
			<path d="M164.526,189.144c-11.212,0-22.414,0-33.616,0c-8.084,0-8.084,13,0,13c11.202,0,22.404,0,33.616,0
				C172.601,202.144,172.601,189.144,164.526,189.144z"/>
			<path d="M164.526,100.539c-11.212,0-22.414,0-33.616,0c-8.084,0-8.084,13,0,13c11.202,0,22.404,0,33.616,0
				C172.601,113.539,172.601,100.539,164.526,100.539z"/>
			<path d="M164.526,121.551c-11.212,0-22.414,0-33.616,0c-8.084,0-8.084,13,0,13c11.202,0,22.404,0,33.616,0
				C172.601,134.551,172.601,121.551,164.526,121.551z"/>
			<path d="M130.91,57.15c-8.084,0-8.084,13,0,13c11.202,0,22.404,0,33.616,0c8.074,0,8.074-13,0-13
				C153.314,57.15,142.112,57.15,130.91,57.15z"/>
			<path d="M164.526,78.163c-11.212,0-22.414,0-33.616,0c-8.084,0-8.084,13,0,13c11.202,0,22.404,0,33.616,0
				C172.601,91.163,172.601,78.163,164.526,78.163z"/>
			<path d="M103.888,144.255c-11.212,0-22.417,0-33.619,0c-8.084,0-8.084,12.999,0,12.999c11.202,0,22.406,0,33.619,0
				C111.962,157.254,111.962,144.255,103.888,144.255z"/>
			<path d="M103.888,165.268c-11.212,0-22.417,0-33.619,0c-8.084,0-8.084,12.999,0,12.999c11.202,0,22.406,0,33.619,0
				C111.962,178.267,111.962,165.268,103.888,165.268z"/>
			<path d="M103.888,188.525c-11.212,0-22.417,0-33.619,0c-8.084,0-8.084,13,0,13c11.202,0,22.406,0,33.619,0
				C111.962,201.525,111.962,188.525,103.888,188.525z"/>
			<path d="M103.888,99.919c-11.212,0-22.417,0-33.619,0c-8.084,0-8.084,13,0,13c11.202,0,22.406,0,33.619,0
				C111.962,112.919,111.962,99.919,103.888,99.919z"/>
			<path d="M103.888,120.932c-11.212,0-22.417,0-33.619,0c-8.084,0-8.084,12.999,0,12.999c11.202,0,22.406,0,33.619,0
				C111.962,133.931,111.962,120.932,103.888,120.932z"/>
			<path d="M103.888,56.531c-11.212,0-22.417,0-33.619,0c-8.084,0-8.084,13,0,13c11.202,0,22.406,0,33.619,0
				C111.962,69.53,111.962,56.531,103.888,56.531z"/>
			<path d="M103.888,77.543c-11.212,0-22.417,0-33.619,0c-8.084,0-8.084,13,0,13c11.202,0,22.406,0,33.619,0
				C111.962,90.543,111.962,77.543,103.888,77.543z"/>
			<path d="M173.835,0H26.934v234.288h180.421V32.504L173.835,0z M191.76,218.683H42.533V15.6h123.263v24.75h25.959v178.333H191.76z
				"/>
		</g>
	</g>
</g>
<g>
</g>
<g>
</g>
<g>
</g>
<g>
</g>
<g>
</g>
<g>
</g>
<g>
</g>
<g>
</g>
<g>
</g>
<g>
</g>
<g>
</g>
<g>
</g>
<g>
</g>
<g>
</g>
<g>
</g>
</svg>
