<?xml version="1.0" encoding="iso-8859-1"?>
<!-- Generator: Adobe Illustrator 16.0.0, SVG Export Plug-In . SVG Version: 6.00 Build 0)  -->
<!DOCTYPE svg PUBLIC "-//W3C//DTD SVG 1.1//EN" "http://www.w3.org/Graphics/SVG/1.1/DTD/svg11.dtd">
<svg version="1.1" id="Capa_1" xmlns="http://www.w3.org/2000/svg" xmlns:xlink="http://www.w3.org/1999/xlink" x="0px" y="0px"
	 width="44.166px" height="44.166px" viewBox="0 0 44.166 44.166" style="enable-background:new 0 0 44.166 44.166;"
	 xml:space="preserve">
<g>
	<g id="_x31_76_66_">
		<g>
			<path d="M14.894,14.381c0.295,0.343,0.602,0.699,0.949,1.019c0.171,0.156,0.391,0.242,0.617,0.242
				c0.388,0,0.733-0.252,0.859-0.629c0.299-0.895,0.916-1.768,1.513-2.613c0.138-0.196,0.275-0.389,0.406-0.58
				c0.184-0.269,0.206-0.593,0.061-0.868c-0.292-0.553-1.201-0.638-1.574-0.093l-0.334,0.481c-0.408,0.587-0.828,1.188-1.181,1.821
				c-0.005-0.005-0.011-0.012-0.017-0.018l-0.217-0.25c-0.409-0.469-1.201-0.313-1.456,0.25c-0.149,0.327-0.094,0.699,0.143,0.971
				L14.894,14.381z"/>
			<path d="M20.976,8.974h-8.42v8.42h8.42V8.974z M19.976,16.394h-6.42v-6.42h6.42V16.394z"/>
			<path d="M25.528,14.263c0.295,0.344,0.602,0.7,0.949,1.02c0.17,0.156,0.391,0.242,0.617,0.242c0.387,0,0.732-0.252,0.857-0.629
				c0.299-0.895,0.916-1.768,1.514-2.613c0.139-0.196,0.275-0.39,0.406-0.58c0.184-0.27,0.205-0.594,0.061-0.869
				c-0.291-0.553-1.201-0.637-1.574-0.093l-0.334,0.482c-0.408,0.587-0.828,1.188-1.18,1.821c-0.006-0.006-0.012-0.012-0.018-0.019
				l-0.217-0.249c-0.41-0.469-1.201-0.313-1.457,0.25c-0.148,0.327-0.094,0.699,0.143,0.971L25.528,14.263z"/>
			<path d="M31.61,8.856h-8.42v8.419h8.42V8.856z M30.61,16.275h-6.42V9.856h6.42V16.275z"/>
			<path d="M14.894,24.191c0.295,0.345,0.602,0.699,0.949,1.02c0.171,0.156,0.391,0.243,0.617,0.243
				c0.388,0,0.733-0.253,0.859-0.629c0.299-0.896,0.916-1.769,1.513-2.614c0.138-0.195,0.275-0.389,0.406-0.58
				c0.184-0.269,0.206-0.593,0.061-0.868c-0.292-0.553-1.201-0.637-1.574-0.093l-0.334,0.481c-0.408,0.587-0.828,1.188-1.181,1.822
				c-0.005-0.006-0.011-0.013-0.017-0.019l-0.217-0.25c-0.409-0.468-1.201-0.313-1.456,0.251c-0.149,0.326-0.094,0.697,0.143,0.97
				L14.894,24.191z"/>
			<path d="M20.976,18.785h-8.42v8.42h8.42V18.785z M19.976,26.205h-6.42v-6.42h6.42V26.205z"/>
			<path d="M25.528,24.075c0.295,0.343,0.602,0.698,0.949,1.019c0.17,0.156,0.391,0.242,0.617,0.242
				c0.387,0,0.732-0.252,0.857-0.629c0.299-0.895,0.916-1.768,1.514-2.613c0.139-0.196,0.275-0.39,0.406-0.58
				c0.184-0.27,0.205-0.593,0.061-0.868c-0.291-0.553-1.201-0.638-1.574-0.093l-0.334,0.481c-0.408,0.587-0.828,1.188-1.18,1.821
				c-0.006-0.006-0.012-0.013-0.018-0.02l-0.217-0.249c-0.41-0.469-1.201-0.313-1.457,0.25c-0.148,0.327-0.094,0.699,0.143,0.972
				L25.528,24.075z"/>
			<path d="M31.61,18.668h-8.42v8.419h8.42V18.668z M30.61,26.087h-6.42v-6.419h6.42V26.087z"/>
			<path d="M14.894,34.004c0.295,0.344,0.602,0.699,0.949,1.02c0.171,0.156,0.391,0.242,0.617,0.242
				c0.388,0,0.733-0.252,0.859-0.629c0.299-0.896,0.916-1.769,1.513-2.613c0.138-0.196,0.275-0.39,0.406-0.58
				c0.184-0.27,0.206-0.594,0.061-0.868c-0.292-0.554-1.201-0.638-1.574-0.093l-0.334,0.481c-0.408,0.586-0.828,1.188-1.181,1.821
				c-0.005-0.006-0.011-0.014-0.017-0.02l-0.217-0.25c-0.409-0.468-1.201-0.312-1.456,0.252c-0.149,0.326-0.094,0.697,0.143,0.969
				L14.894,34.004z"/>
			<path d="M20.976,28.598h-8.42v8.42h8.42V28.598z M19.976,36.018h-6.42v-6.42h6.42V36.018z"/>
			<path d="M25.528,33.887c0.295,0.344,0.602,0.699,0.949,1.02c0.17,0.156,0.391,0.242,0.617,0.242c0.387,0,0.732-0.252,0.857-0.629
				c0.299-0.896,0.916-1.769,1.514-2.613c0.139-0.196,0.275-0.389,0.406-0.58c0.184-0.27,0.205-0.594,0.061-0.868
				c-0.291-0.553-1.201-0.638-1.574-0.093l-0.334,0.48c-0.408,0.588-0.828,1.188-1.18,1.821c-0.006-0.005-0.012-0.012-0.018-0.019
				l-0.217-0.25c-0.41-0.469-1.201-0.312-1.457,0.25c-0.148,0.328-0.094,0.699,0.143,0.972L25.528,33.887z"/>
			<path d="M31.61,28.479h-8.42v8.42h8.42V28.479z M30.61,35.898h-6.42v-6.42h6.42V35.898z"/>
			<path d="M4.556,0v44.166H39.61V0H4.556z M36.61,41.166H7.556V3H36.61V41.166z"/>
		</g>
	</g>
</g>
<g>
</g>
<g>
</g>
<g>
</g>
<g>
</g>
<g>
</g>
<g>
</g>
<g>
</g>
<g>
</g>
<g>
</g>
<g>
</g>
<g>
</g>
<g>
</g>
<g>
</g>
<g>
</g>
<g>
</g>
</svg>
