<?xml version="1.0" encoding="iso-8859-1"?>
<!-- Generator: Adobe Illustrator 16.0.0, SVG Export Plug-In . SVG Version: 6.00 Build 0)  -->
<!DOCTYPE svg PUBLIC "-//W3C//DTD SVG 1.1//EN" "http://www.w3.org/Graphics/SVG/1.1/DTD/svg11.dtd">
<svg version="1.1" id="Capa_1" xmlns="http://www.w3.org/2000/svg" xmlns:xlink="http://www.w3.org/1999/xlink" x="0px" y="0px"
	 width="45.057px" height="45.057px" viewBox="0 0 45.057 45.057" style="enable-background:new 0 0 45.057 45.057;"
	 xml:space="preserve">
<g>
	<g id="_x38_3_78_">
		<g>
			<path d="M33.431,0H5.179v45.057h34.699V6.251L33.431,0z M36.878,42.056H8.179V3h23.707v4.76h4.992V42.056z"/>
			<path d="M25.274,10.456h-5.492h-1h-6.492v6.492v1v5.492v1v5.491v1v6.492h6.492h1h5.492h1h6.492v-6.492v-1v-5.491v-1v-5.492v-1
				v-6.492h-6.492H25.274z M18.782,36.424h-5.492v-5.492h5.492V36.424z M18.782,29.931h-5.492v-5.491h5.492V29.931z M18.782,23.439
				h-5.492v-5.492h5.492V23.439z M18.782,16.948h-5.492v-5.492h5.492V16.948z M25.274,36.424h-5.492v-5.492h5.492V36.424z
				 M25.274,29.931h-5.492v-5.491h5.492V29.931z M25.274,23.439h-5.492v-5.492h5.492V23.439z M25.274,16.948h-5.492v-5.492h5.492
				V16.948z M31.767,36.424h-5.492v-5.492h5.492V36.424z M31.767,29.931h-5.492v-5.491h5.492V29.931z M31.767,23.439h-5.492v-5.492
				h5.492V23.439z M31.767,16.948h-5.492v-5.492h5.492V16.948z"/>
		</g>
	</g>
</g>
<g>
</g>
<g>
</g>
<g>
</g>
<g>
</g>
<g>
</g>
<g>
</g>
<g>
</g>
<g>
</g>
<g>
</g>
<g>
</g>
<g>
</g>
<g>
</g>
<g>
</g>
<g>
</g>
<g>
</g>
</svg>
