<?xml version="1.0" encoding="iso-8859-1"?>
<!-- Generator: Adobe Illustrator 16.0.0, SVG Export Plug-In . SVG Version: 6.00 Build 0)  -->
<!DOCTYPE svg PUBLIC "-//W3C//DTD SVG 1.1//EN" "http://www.w3.org/Graphics/SVG/1.1/DTD/svg11.dtd">
<svg version="1.1" id="Capa_1" xmlns="http://www.w3.org/2000/svg" xmlns:xlink="http://www.w3.org/1999/xlink" x="0px" y="0px"
	 width="45.057px" height="45.057px" viewBox="0 0 45.057 45.057" style="enable-background:new 0 0 45.057 45.057;"
	 xml:space="preserve">
<g>
	<g id="_x36_2_22_">
		<g>
			<circle cx="13.34" cy="22.527" r="1.9"/>
			<circle cx="27.677" cy="15.493" r="1.9"/>
			<path d="M25.274,29.92c-0.752,0.73-0.77,1.936-0.041,2.688c0.73,0.754,1.936,0.771,2.688,0.039
				c0.75-0.727,0.77-1.934,0.041-2.686C27.231,29.21,26.026,29.191,25.274,29.92z"/>
			<path d="M21.213,13.659c-1.225-0.26-4.013-0.711-5.532,0.128c-1.831,1.011-2.27,3.078-2.657,4.9l-0.096,0.449l1.426,0.312
				l0.098-0.458c0.354-1.664,0.688-3.236,1.935-3.924c0.911-0.505,3.054-0.285,4.502,0.019l-0.477,2.104l4.106-2.178l-2.828-3.456
				L21.213,13.659z"/>
			<path d="M22.751,32.511c-1.622,0.515-3.155,1-4.369,0.254c-0.888-0.542-1.755-2.514-2.206-3.924l2.064-0.623l-3.919-2.497
				l-1.609,4.165l2.065-0.623c0.379,1.192,1.361,3.843,2.84,4.748c1.782,1.095,3.796,0.456,5.574-0.104l0.437-0.139l-0.433-1.396
				L22.751,32.511z"/>
			<path d="M30.896,17.194l-0.965,1.095l0.352,0.308c1.281,1.119,2.494,2.173,2.492,3.598c-0.002,1.042-1.234,2.808-2.203,3.926
				l-1.607-1.438l-0.09,4.646l4.393-0.795l-1.607-1.44c0.822-0.944,2.572-3.163,2.576-4.896c0.006-2.092-1.588-3.479-2.994-4.702
				L30.896,17.194z"/>
			<path d="M33.431,0H5.179v45.057h34.699V6.251L33.431,0z M36.878,42.056H8.179V3h23.707v4.76h4.992V42.056z"/>
		</g>
	</g>
</g>
<g>
</g>
<g>
</g>
<g>
</g>
<g>
</g>
<g>
</g>
<g>
</g>
<g>
</g>
<g>
</g>
<g>
</g>
<g>
</g>
<g>
</g>
<g>
</g>
<g>
</g>
<g>
</g>
<g>
</g>
</svg>
