<?xml version="1.0" encoding="iso-8859-1"?>
<!-- Generator: Adobe Illustrator 16.0.0, SVG Export Plug-In . SVG Version: 6.00 Build 0)  -->
<!DOCTYPE svg PUBLIC "-//W3C//DTD SVG 1.1//EN" "http://www.w3.org/Graphics/SVG/1.1/DTD/svg11.dtd">
<svg version="1.1" id="Capa_1" xmlns="http://www.w3.org/2000/svg" xmlns:xlink="http://www.w3.org/1999/xlink" x="0px" y="0px"
	 width="234.288px" height="234.288px" viewBox="0 0 234.288 234.288" style="enable-background:new 0 0 234.288 234.288;"
	 xml:space="preserve">
<g>
	<g id="_x35_5_33_">
		<g>
			<path d="M173.829,0H26.934v234.288h180.421V32.499L173.829,0z M191.76,218.683H42.533V15.6h123.263v24.75h25.959v178.333H191.76z
				"/>
			<polygon points="104.866,100.724 132.027,77.353 104.866,56.188 104.866,72.829 63.048,72.829 63.048,84.091 104.866,84.091 			
				"/>
			<polygon points="125.665,149.689 152.827,126.32 125.665,105.15 125.665,121.791 63.048,121.791 63.048,133.053 125.665,133.053 
							"/>
			<polygon points="152.101,171.189 63.48,171.189 63.48,182.452 152.101,182.452 152.101,199.087 179.253,175.718 152.101,154.548 
							"/>
		</g>
	</g>
</g>
<g>
</g>
<g>
</g>
<g>
</g>
<g>
</g>
<g>
</g>
<g>
</g>
<g>
</g>
<g>
</g>
<g>
</g>
<g>
</g>
<g>
</g>
<g>
</g>
<g>
</g>
<g>
</g>
<g>
</g>
</svg>
