<?xml version="1.0" encoding="iso-8859-1"?>
<!-- Generator: Adobe Illustrator 16.0.0, SVG Export Plug-In . SVG Version: 6.00 Build 0)  -->
<!DOCTYPE svg PUBLIC "-//W3C//DTD SVG 1.1//EN" "http://www.w3.org/Graphics/SVG/1.1/DTD/svg11.dtd">
<svg version="1.1" id="Capa_1" xmlns="http://www.w3.org/2000/svg" xmlns:xlink="http://www.w3.org/1999/xlink" x="0px" y="0px"
	 width="45.057px" height="45.057px" viewBox="0 0 45.057 45.057" style="enable-background:new 0 0 45.057 45.057;"
	 xml:space="preserve">
<g>
	<g id="_x31_75_6_">
		<g>
			<path d="M33.43,0H5.18v45.057h34.697V6.251L33.43,0z M36.878,42.056H8.18V3h23.705v4.76h4.992L36.878,42.056L36.878,42.056z"/>
			<path d="M11.362,18.768h6.487v-7.333h-6.487V18.768z M12.362,12.435h4.487v5.333h-4.487V12.435z"/>
			<path d="M19.4,18.768h6.488v-7.333H19.4V18.768z M20.4,12.435h4.488v5.333H20.4V12.435z"/>
			<path d="M27.459,18.768h6.486v-7.333h-6.486V18.768z M28.459,12.435h4.486v5.333h-4.486V12.435z"/>
			<path d="M17.715,20.774h-6.487v7.333h6.487V20.774z M16.715,27.107h-4.487v-5.333h4.487V27.107z"/>
			<path d="M25.754,20.774h-6.488v7.333h6.488V20.774z M24.754,27.107h-4.488v-5.333h4.488V27.107z"/>
			<path d="M33.811,20.774h-6.486v7.333h6.486V20.774z M32.811,27.107h-4.486v-5.333h4.486V27.107z"/>
			<path d="M11.285,36.902h6.487v-7.334h-6.487V36.902z M12.285,30.568h4.487v5.334h-4.487V30.568z"/>
			<path d="M19.323,36.902h6.488v-7.334h-6.488V36.902z M20.323,30.568h4.488v5.334h-4.488V30.568z"/>
			<path d="M27.382,36.902h6.487v-7.334h-6.487V36.902z M28.382,30.568h4.487v5.334h-4.487V30.568z"/>
		</g>
	</g>
</g>
<g>
</g>
<g>
</g>
<g>
</g>
<g>
</g>
<g>
</g>
<g>
</g>
<g>
</g>
<g>
</g>
<g>
</g>
<g>
</g>
<g>
</g>
<g>
</g>
<g>
</g>
<g>
</g>
<g>
</g>
</svg>
