<?xml version="1.0" encoding="iso-8859-1"?>
<!-- Generator: Adobe Illustrator 16.0.0, SVG Export Plug-In . SVG Version: 6.00 Build 0)  -->
<!DOCTYPE svg PUBLIC "-//W3C//DTD SVG 1.1//EN" "http://www.w3.org/Graphics/SVG/1.1/DTD/svg11.dtd">
<svg version="1.1" id="Capa_1" xmlns="http://www.w3.org/2000/svg" xmlns:xlink="http://www.w3.org/1999/xlink" x="0px" y="0px"
	 width="43.908px" height="43.908px" viewBox="0 0 43.908 43.908" style="enable-background:new 0 0 43.908 43.908;"
	 xml:space="preserve">
<g>
	<g id="_x34_6_54_">
		<g>
			<path d="M43.421,27.217c-1.813-0.265-3.63-0.527-5.444-0.791c-0.041-0.056-0.111-0.158-0.207-0.354
				c-0.328-0.663-0.656-1.326-0.982-1.989c-0.43-0.868-0.857-1.735-1.286-2.604c-0.215-0.435-0.937-0.435-1.151,0
				c-0.805,1.634-1.61,3.267-2.416,4.899c-0.057,0.021-0.185,0.065-0.433,0.103c-0.731,0.105-1.464,0.211-2.196,0.317
				c-0.957,0.14-1.914,0.279-2.873,0.419c-0.51,0.073-0.621,0.793-0.295,1.112c1.305,1.271,2.608,2.541,3.912,3.812
				c-0.008,0.07-0.02,0.156-0.039,0.271c-0.125,0.729-0.25,1.458-0.375,2.187c-0.164,0.955-0.328,1.907-0.492,2.861
				c-0.098,0.572,0.431,1.041,0.979,0.752c1.597-0.839,3.192-1.68,4.79-2.518c0.07,0.029,0.158,0.068,0.284,0.135
				c0.655,0.344,1.312,0.688,1.964,1.032c0.857,0.45,1.713,0.901,2.57,1.351c0.549,0.289,1.078-0.179,0.979-0.752
				c-0.303-1.764-0.605-3.527-0.908-5.291c0.051-0.061,0.125-0.145,0.246-0.263c0.53-0.517,1.059-1.032,1.59-1.55
				c0.691-0.676,1.385-1.351,2.08-2.026c0.176-0.172,0.215-0.369,0.18-0.553C43.904,27.512,43.768,27.268,43.421,27.217z"/>
			<path d="M22.838,29.684c0-6.073,4.924-10.999,10.999-10.999c2.269,0,4.376,0.688,6.127,1.865v-5.336H13.335v-4.807H0v27.89
				h12.788h0.546h13.674C24.471,36.284,22.838,33.178,22.838,29.684z"/>
			<path d="M16.139,11.401v1.56v0.286h25.308v8.508c0.705,0.677,1.314,1.446,1.818,2.289V13.247v-1.492v-0.354H17.935V7.544V6.269
				v-0.66H3.098v1.936h13.041V11.401z"/>
		</g>
	</g>
</g>
<g>
</g>
<g>
</g>
<g>
</g>
<g>
</g>
<g>
</g>
<g>
</g>
<g>
</g>
<g>
</g>
<g>
</g>
<g>
</g>
<g>
</g>
<g>
</g>
<g>
</g>
<g>
</g>
<g>
</g>
</svg>
