<?xml version="1.0" encoding="iso-8859-1"?>
<!-- Generator: Adobe Illustrator 16.0.0, SVG Export Plug-In . SVG Version: 6.00 Build 0)  -->
<!DOCTYPE svg PUBLIC "-//W3C//DTD SVG 1.1//EN" "http://www.w3.org/Graphics/SVG/1.1/DTD/svg11.dtd">
<svg version="1.1" id="Capa_1" xmlns="http://www.w3.org/2000/svg" xmlns:xlink="http://www.w3.org/1999/xlink" x="0px" y="0px"
	 width="234.287px" height="234.288px" viewBox="0 0 234.287 234.288" style="enable-background:new 0 0 234.287 234.288;"
	 xml:space="preserve">
<g>
	<g id="_x35_6_45_">
		<g>
			<path d="M84.03,132.206c-0.17-12.627-0.333-24.55,7.556-31.573c5.756-5.128,21.622-7.058,32.603-7.249v15.998l26.126-22.488
				l-26.126-20.357v16.016c-9.288,0.129-30.207,1.429-39.809,9.994c-11.581,10.311-11.367,25.979-11.182,39.806l0.043,3.402
				l10.836-0.091L84.03,132.206z"/>
			<path d="M161.061,113.569l-10.836,0.084l0.04,3.463c0.173,12.627,0.335,24.55-7.546,31.572
				c-5.764,5.14-21.632,7.054-32.605,7.257v-15.996l-26.129,22.485l26.129,20.353v-16.006c9.288-0.142,30.199-1.441,39.807-9.993
				c11.577-10.318,11.364-25.989,11.182-39.813L161.061,113.569z"/>
			<path d="M173.837,0H26.931v234.288h180.426V32.499L173.837,0z M191.762,218.683H42.53V15.6h123.269v24.75h25.958v178.333H191.762
				z"/>
		</g>
	</g>
</g>
<g>
</g>
<g>
</g>
<g>
</g>
<g>
</g>
<g>
</g>
<g>
</g>
<g>
</g>
<g>
</g>
<g>
</g>
<g>
</g>
<g>
</g>
<g>
</g>
<g>
</g>
<g>
</g>
<g>
</g>
</svg>
