<?xml version="1.0" encoding="iso-8859-1"?>
<!-- Generator: Adobe Illustrator 16.0.0, SVG Export Plug-In . SVG Version: 6.00 Build 0)  -->
<!DOCTYPE svg PUBLIC "-//W3C//DTD SVG 1.1//EN" "http://www.w3.org/Graphics/SVG/1.1/DTD/svg11.dtd">
<svg version="1.1" id="Capa_1" xmlns="http://www.w3.org/2000/svg" xmlns:xlink="http://www.w3.org/1999/xlink" x="0px" y="0px"
	 width="246.21px" height="246.211px" viewBox="0 0 246.21 246.211" style="enable-background:new 0 0 246.21 246.211;"
	 xml:space="preserve">
<g>
	<g id="_x34_3_58_">
		<g>
			<path d="M0,206.739h76.347V38.826H0V206.739z M38.176,182.025c-9.933,0-17.981-8.049-17.981-17.981s8.049-17.981,17.981-17.981
				s17.981,8.049,17.981,17.981S48.109,182.025,38.176,182.025z M14.439,52.372h46.735v79.604H14.439V52.372z"/>
			<path d="M84.066,207.38h76.348V39.471H84.066V207.38z M122.237,182.665c-9.933,0-17.981-8.049-17.981-17.981
				s8.048-17.98,17.981-17.98s17.981,8.048,17.981,17.98C140.223,174.616,132.169,182.665,122.237,182.665z M98.505,53.017h46.735
				v79.604H98.505V53.017z"/>
			<path d="M169.864,39.471v167.914h76.347V39.471H169.864z M208.035,182.665c-9.933,0-17.981-8.049-17.981-17.981
				s8.049-17.98,17.981-17.98s17.98,8.048,17.98,17.98C226.021,174.616,217.967,182.665,208.035,182.665z M231.038,132.616H184.3
				v-79.6h46.737V132.616z"/>
		</g>
	</g>
</g>
<g>
</g>
<g>
</g>
<g>
</g>
<g>
</g>
<g>
</g>
<g>
</g>
<g>
</g>
<g>
</g>
<g>
</g>
<g>
</g>
<g>
</g>
<g>
</g>
<g>
</g>
<g>
</g>
<g>
</g>
</svg>
