<?xml version="1.0" encoding="iso-8859-1"?>
<!-- Generator: Adobe Illustrator 16.0.0, SVG Export Plug-In . SVG Version: 6.00 Build 0)  -->
<!DOCTYPE svg PUBLIC "-//W3C//DTD SVG 1.1//EN" "http://www.w3.org/Graphics/SVG/1.1/DTD/svg11.dtd">
<svg version="1.1" id="Capa_1" xmlns="http://www.w3.org/2000/svg" xmlns:xlink="http://www.w3.org/1999/xlink" x="0px" y="0px"
	 width="205.901px" height="205.901px" viewBox="0 0 205.901 205.901" style="enable-background:new 0 0 205.901 205.901;"
	 xml:space="preserve">
<g>
	<g id="_x33_3_55_">
		<g>
			<polygon points="63.457,48.005 0,48.005 0,180.735 60.857,180.735 63.457,180.735 190.19,180.735 190.19,70.883 63.457,70.883 
							"/>
			<polygon points="85.355,52.729 85.355,34.375 85.355,28.307 85.355,25.166 14.741,25.166 14.741,34.375 76.802,34.375 
				76.802,52.729 76.802,60.156 76.802,61.515 197.244,61.515 197.244,140.863 194.263,140.863 194.263,149.638 197.244,149.638 
				201.037,149.638 205.901,149.638 205.901,61.515 205.901,54.416 205.901,52.729 			"/>
		</g>
	</g>
</g>
<g>
</g>
<g>
</g>
<g>
</g>
<g>
</g>
<g>
</g>
<g>
</g>
<g>
</g>
<g>
</g>
<g>
</g>
<g>
</g>
<g>
</g>
<g>
</g>
<g>
</g>
<g>
</g>
<g>
</g>
</svg>
