<?xml version="1.0" encoding="iso-8859-1"?>
<!-- Generator: Adobe Illustrator 16.0.0, SVG Export Plug-In . SVG Version: 6.00 Build 0)  -->
<!DOCTYPE svg PUBLIC "-//W3C//DTD SVG 1.1//EN" "http://www.w3.org/Graphics/SVG/1.1/DTD/svg11.dtd">
<svg version="1.1" id="Capa_1" xmlns="http://www.w3.org/2000/svg" xmlns:xlink="http://www.w3.org/1999/xlink" x="0px" y="0px"
	 width="234.287px" height="234.288px" viewBox="0 0 234.287 234.288" style="enable-background:new 0 0 234.287 234.288;"
	 xml:space="preserve">
<g>
	<g id="_x36_6_24_">
		<g>
			<path d="M75.504,128.326c0,0.503-0.01,1.112-0.033,1.843c-0.02,0.731-0.119,1.407-0.312,2.057
				c-0.186,0.64-0.513,1.204-0.973,1.687c-0.457,0.477-1.122,0.711-1.996,0.711c-0.914,0-1.623-0.178-2.123-0.554
				c-0.498-0.376-0.863-0.863-1.092-1.463c-0.229-0.609-0.358-1.3-0.398-2.092c-0.048-0.792-0.069-1.625-0.069-2.498v-2.555H56.155
				v3.748c0,2.452,0.328,4.656,0.972,6.606c0.645,1.96,1.628,3.636,2.958,5.062c1.333,1.406,3.026,2.493,5.091,3.239
				c2.059,0.757,4.499,1.128,7.333,1.128c2.783,0,5.23-0.32,7.328-0.935c2.1-0.63,3.847-1.63,5.245-2.996
				c1.394-1.386,2.433-3.144,3.121-5.307c0.686-2.163,1.028-4.783,1.028-7.86V99.617H75.499v28.708H75.504z"/>
			<path d="M131.979,104.871c-1.289-1.503-2.976-2.752-5.052-3.75c-2.082-0.993-4.646-1.503-7.684-1.503H96.281v44.557h13.733
				v-13.482h8.112c2.534,0,4.879-0.33,7.023-0.97c2.143-0.65,3.996-1.625,5.55-2.93c1.554-1.306,2.768-2.951,3.621-4.921
				c0.853-1.985,1.279-4.319,1.279-7.023c0-1.587-0.284-3.27-0.843-5.06C134.193,108.001,133.269,106.361,131.979,104.871z
				 M121.96,118c-0.437,0.64-0.995,1.117-1.681,1.43c-0.686,0.31-1.468,0.502-2.341,0.553c-0.874,0.076-1.747,0.107-2.62,0.107
				h-5.304v-9.047h6.117c0.83,0,1.643,0.031,2.432,0.092c0.79,0.063,1.488,0.246,2.087,0.533c0.609,0.294,1.086,0.731,1.441,1.31
				c0.346,0.587,0.528,1.371,0.528,2.377C122.62,116.466,122.402,117.35,121.96,118z"/>
			<path d="M153.221,99.904c-2.601,0.894-4.957,2.283-7.079,4.187c-2.123,1.886-3.859,4.347-5.21,7.363
				c-1.355,3.014-2.031,6.639-2.031,10.884c0,3.159,0.492,6.14,1.463,8.917c0.979,2.793,2.396,5.21,4.244,7.271
				c1.849,2.062,4.088,3.697,6.709,4.906c2.625,1.198,5.57,1.808,8.86,1.808c2.458,0,4.794-0.438,7.019-1.311
				c2.229-0.873,4.112-2.315,5.646-4.306l0.437,4.55h8.673v-24.517h-18.22v9.547h6.053c-0.162,0.832-0.477,1.554-0.934,2.183
				c-0.463,0.62-1.016,1.128-1.687,1.523c-0.66,0.396-1.386,0.701-2.152,0.904c-0.768,0.213-1.544,0.319-2.336,0.319
				c-2.082,0-3.778-0.406-5.089-1.213c-1.31-0.812-2.325-1.803-3.057-2.966c-0.731-1.157-1.229-2.407-1.498-3.737
				c-0.274-1.33-0.401-2.519-0.401-3.56c0-0.513,0.011-1.184,0.031-2.036c0.02-0.854,0.102-1.755,0.243-2.707
				c0.147-0.967,0.396-1.93,0.752-2.907s0.863-1.855,1.533-2.65c0.66-0.792,1.528-1.442,2.585-1.939
				c1.061-0.5,2.381-0.744,3.966-0.744c1.625,0,3.047,0.521,4.275,1.554c1.219,1.046,1.965,2.376,2.214,3.994h13.162
				c-0.995-5.281-3.239-9.374-6.738-12.286c-3.494-2.918-8.089-4.37-13.787-4.37C158.374,98.561,155.82,99.01,153.221,99.904z"/>
			<path d="M173.832,0H26.931v234.288h180.426V32.504L173.832,0z M191.757,218.683H42.53V15.6h123.269v24.75h25.958V218.683z"/>
		</g>
	</g>
</g>
<g>
</g>
<g>
</g>
<g>
</g>
<g>
</g>
<g>
</g>
<g>
</g>
<g>
</g>
<g>
</g>
<g>
</g>
<g>
</g>
<g>
</g>
<g>
</g>
<g>
</g>
<g>
</g>
<g>
</g>
</svg>
