<?xml version="1.0" encoding="iso-8859-1"?>
<!-- Generator: Adobe Illustrator 16.0.0, SVG Export Plug-In . SVG Version: 6.00 Build 0)  -->
<!DOCTYPE svg PUBLIC "-//W3C//DTD SVG 1.1//EN" "http://www.w3.org/Graphics/SVG/1.1/DTD/svg11.dtd">
<svg version="1.1" id="Capa_1" xmlns="http://www.w3.org/2000/svg" xmlns:xlink="http://www.w3.org/1999/xlink" x="0px" y="0px"
	 width="243.316px" height="243.316px" viewBox="0 0 243.316 243.316" style="enable-background:new 0 0 243.316 243.316;"
	 xml:space="preserve">
<g>
	<g id="_x39_4_56_">
		<g>
			<rect x="37.089" y="89.898" width="24.737" height="16.909"/>
			<rect x="72.724" y="89.898" width="24.737" height="16.909"/>
			<rect x="108.155" y="89.898" width="24.735" height="16.909"/>
			<rect x="143.788" y="89.898" width="24.734" height="16.909"/>
			<rect x="179.049" y="89.898" width="24.74" height="16.909"/>
			<rect x="37.221" y="121.658" width="24.735" height="16.91"/>
			<rect x="72.856" y="121.658" width="24.735" height="16.91"/>
			<rect x="108.288" y="121.658" width="24.735" height="16.91"/>
			<rect x="143.915" y="121.658" width="24.734" height="16.91"/>
			<rect x="179.182" y="121.658" width="24.734" height="16.91"/>
			<rect x="37.308" y="151.558" width="24.737" height="16.909"/>
			<rect x="72.938" y="151.558" width="24.737" height="16.909"/>
			<rect x="108.369" y="151.558" width="24.734" height="16.909"/>
			<rect x="144.001" y="151.558" width="24.74" height="16.909"/>
			<rect x="179.263" y="151.558" width="24.739" height="16.909"/>
			<path d="M200.509,44.757v-8.247h-15.6v8.247h-29.346v-8.247h-15.6v8.247h-31.849v-8.247h-15.6v8.247H58.066v-8.247h-15.6v8.247H0
				v162.048h243.316V44.757H200.509z M227.712,191.206H15.599V60.357h26.873v9.953h15.6v-9.953h34.449v9.953h15.6v-9.953h31.849
				v9.953h15.6v-9.953h29.341v9.953h15.6v-9.953h27.208v130.849H227.712z"/>
		</g>
	</g>
</g>
<g>
</g>
<g>
</g>
<g>
</g>
<g>
</g>
<g>
</g>
<g>
</g>
<g>
</g>
<g>
</g>
<g>
</g>
<g>
</g>
<g>
</g>
<g>
</g>
<g>
</g>
<g>
</g>
<g>
</g>
</svg>
