<?xml version="1.0" encoding="iso-8859-1"?>
<!-- Generator: Adobe Illustrator 16.0.0, SVG Export Plug-In . SVG Version: 6.00 Build 0)  -->
<!DOCTYPE svg PUBLIC "-//W3C//DTD SVG 1.1//EN" "http://www.w3.org/Graphics/SVG/1.1/DTD/svg11.dtd">
<svg version="1.1" id="Capa_1" xmlns="http://www.w3.org/2000/svg" xmlns:xlink="http://www.w3.org/1999/xlink" x="0px" y="0px"
	 width="234.288px" height="234.288px" viewBox="0 0 234.288 234.288" style="enable-background:new 0 0 234.288 234.288;"
	 xml:space="preserve">
<g>
	<g id="_x31_79_41_">
		<g>
			<path d="M173.829,0H26.934v234.288h180.421V32.504L173.829,0z M191.76,218.683H42.533V15.6h123.263v24.75h25.959v178.333H191.76z
				"/>
			<path d="M137.675,63.495h-11.213v80.151c-5.062-2.823-11.463-4.52-18.436-4.52c-16.374,0-29.65,9.298-29.65,20.769
				c0,11.477,13.276,20.77,29.65,20.77s29.648-9.293,29.648-20.77c0-0.518,0-81.727,0-81.727l23.033,23.811l7.322-7.082
				l-30.355-31.371V63.495z"/>
		</g>
	</g>
</g>
<g>
</g>
<g>
</g>
<g>
</g>
<g>
</g>
<g>
</g>
<g>
</g>
<g>
</g>
<g>
</g>
<g>
</g>
<g>
</g>
<g>
</g>
<g>
</g>
<g>
</g>
<g>
</g>
<g>
</g>
</svg>
