<?xml version="1.0" encoding="iso-8859-1"?>
<!-- Generator: Adobe Illustrator 16.0.0, SVG Export Plug-In . SVG Version: 6.00 Build 0)  -->
<!DOCTYPE svg PUBLIC "-//W3C//DTD SVG 1.1//EN" "http://www.w3.org/Graphics/SVG/1.1/DTD/svg11.dtd">
<svg version="1.1" id="Capa_1" xmlns="http://www.w3.org/2000/svg" xmlns:xlink="http://www.w3.org/1999/xlink" x="0px" y="0px"
	 width="45.057px" height="45.057px" viewBox="0 0 45.057 45.057" style="enable-background:new 0 0 45.057 45.057;"
	 xml:space="preserve">
<g>
	<g id="_x36_7_106_">
		<g>
			<path d="M16.25,20.792c-0.248-0.287-0.572-0.527-0.972-0.721c-0.4-0.191-0.893-0.287-1.477-0.287H9.384v8.568h2.641V25.76h1.56
				c0.488,0,0.938-0.062,1.351-0.188c0.411-0.123,0.768-0.312,1.067-0.563c0.299-0.252,0.532-0.567,0.696-0.948
				c0.164-0.38,0.246-0.83,0.246-1.351c0-0.305-0.054-0.627-0.162-0.973C16.675,21.395,16.497,21.079,16.25,20.792z M14.323,23.316
				c-0.084,0.125-0.192,0.217-0.324,0.277c-0.132,0.059-0.282,0.096-0.45,0.107c-0.168,0.011-0.336,0.018-0.504,0.018h-1.02v-1.74
				h1.176c0.16,0,0.316,0.006,0.468,0.02c0.152,0.012,0.286,0.045,0.402,0.102c0.116,0.055,0.208,0.139,0.276,0.252
				c0.067,0.111,0.102,0.264,0.102,0.455C14.449,23.023,14.407,23.193,14.323,23.316z"/>
			<polygon points="23.065,24.367 23.042,24.367 20.546,19.784 17.845,19.784 17.845,28.352 20.342,28.352 20.342,23.673 
				20.365,23.673 22.993,28.352 25.562,28.352 25.562,19.784 23.065,19.784 			"/>
			<path d="M29.442,19.839c-0.5,0.172-0.953,0.439-1.361,0.803c-0.408,0.365-0.742,0.836-1.002,1.416
				c-0.262,0.58-0.391,1.279-0.391,2.094c0,0.608,0.094,1.182,0.281,1.717s0.461,1.002,0.816,1.398
				c0.355,0.395,0.785,0.709,1.289,0.94s1.072,0.348,1.705,0.348c0.473,0,0.922-0.084,1.35-0.252s0.791-0.442,1.086-0.827
				l0.084,0.877h1.668v-4.718h-3.504v1.836h1.166c-0.033,0.16-0.094,0.302-0.182,0.421c-0.088,0.12-0.195,0.219-0.322,0.295
				c-0.129,0.075-0.268,0.133-0.414,0.174c-0.148,0.039-0.299,0.061-0.451,0.061c-0.4,0-0.727-0.078-0.979-0.234
				s-0.447-0.346-0.588-0.57s-0.234-0.465-0.287-0.721s-0.078-0.481-0.078-0.684c0-0.096,0.002-0.227,0.006-0.391
				s0.02-0.338,0.049-0.521c0.027-0.184,0.076-0.369,0.143-0.559c0.068-0.188,0.166-0.357,0.295-0.51
				c0.127-0.15,0.295-0.275,0.498-0.371s0.457-0.145,0.764-0.145c0.311,0,0.586,0.1,0.82,0.301c0.236,0.199,0.379,0.455,0.426,0.768
				h2.531c-0.189-1.016-0.623-1.805-1.295-2.363c-0.672-0.561-1.557-0.842-2.652-0.842C30.433,19.579,29.942,19.667,29.442,19.839z"
				/>
			<path d="M33.431,0H5.179v45.057h34.699V6.251L33.431,0z M36.878,42.056H8.179V3h23.707v4.76h4.992V42.056L36.878,42.056z"/>
		</g>
	</g>
</g>
<g>
</g>
<g>
</g>
<g>
</g>
<g>
</g>
<g>
</g>
<g>
</g>
<g>
</g>
<g>
</g>
<g>
</g>
<g>
</g>
<g>
</g>
<g>
</g>
<g>
</g>
<g>
</g>
<g>
</g>
</svg>
