<?xml version="1.0" encoding="iso-8859-1"?>
<!-- Generator: Adobe Illustrator 16.0.0, SVG Export Plug-In . SVG Version: 6.00 Build 0)  -->
<!DOCTYPE svg PUBLIC "-//W3C//DTD SVG 1.1//EN" "http://www.w3.org/Graphics/SVG/1.1/DTD/svg11.dtd">
<svg version="1.1" id="Capa_1" xmlns="http://www.w3.org/2000/svg" xmlns:xlink="http://www.w3.org/1999/xlink" x="0px" y="0px"
	 width="41.732px" height="41.732px" viewBox="0 0 41.732 41.732" style="enable-background:new 0 0 41.732 41.732;"
	 xml:space="preserve">
<g>
	<g id="_x31_37_14_">
		<g>
			<path d="M34.834,14.362v-2.708h-2.679l-0.106-5.282l-4.246-4.119H9.184l0.158,9.4H6.791l0.016,2.708H0v13.95v0.508v7.283h7.108
				v-7.283h2.326v10.66h22.865V28.82h2.325v7.478h7.108V28.82v-0.313V14.362H34.834z M11.162,4.23h15.621v3.137h3.289l0.045,4.287
				h-18.89L11.162,4.23z M30.322,37.75h-18.91v-8.93h18.91V37.75z M34.006,18.608c-0.781,0-1.412-0.632-1.412-1.413
				c0-0.78,0.631-1.412,1.412-1.412c0.778,0,1.411,0.632,1.411,1.412C35.417,17.975,34.784,18.608,34.006,18.608z M38.506,18.608
				c-0.781,0-1.412-0.632-1.412-1.413c0-0.78,0.631-1.412,1.412-1.412c0.778,0,1.411,0.632,1.411,1.412
				C39.917,17.975,39.284,18.608,38.506,18.608z"/>
			<path d="M14.801,31.198c4.23,0,8.458,0,12.688,0c1.063,0,1.063-1.441,0-1.441c-4.229,0-8.457,0-12.688,0
				C13.739,29.757,13.739,31.198,14.801,31.198z"/>
			<path d="M14.556,34.419c4.229,0,8.458,0,12.687,0c1.063,0,1.063-1.441,0-1.441c-4.229,0-8.457,0-12.687,0
				C13.493,32.976,13.493,34.419,14.556,34.419z"/>
		</g>
	</g>
</g>
<g>
</g>
<g>
</g>
<g>
</g>
<g>
</g>
<g>
</g>
<g>
</g>
<g>
</g>
<g>
</g>
<g>
</g>
<g>
</g>
<g>
</g>
<g>
</g>
<g>
</g>
<g>
</g>
<g>
</g>
</svg>
