<?xml version="1.0" encoding="iso-8859-1"?>
<!-- Generator: Adobe Illustrator 16.0.0, SVG Export Plug-In . SVG Version: 6.00 Build 0)  -->
<!DOCTYPE svg PUBLIC "-//W3C//DTD SVG 1.1//EN" "http://www.w3.org/Graphics/SVG/1.1/DTD/svg11.dtd">
<svg version="1.1" id="Capa_1" xmlns="http://www.w3.org/2000/svg" xmlns:xlink="http://www.w3.org/1999/xlink" x="0px" y="0px"
	 width="48.637px" height="48.637px" viewBox="0 0 48.637 48.637" style="enable-background:new 0 0 48.637 48.637;"
	 xml:space="preserve">
<g>
	<g id="_x38_0_40_">
		<g>
			<path d="M28.477,21.124c0.018,0.271,0.059,0.534,0.127,0.79c-0.313,0.266-0.939,0.798-0.939,0.798v1.149l1.63,1.926
				c0,0,0.948,0.111,0.999,0.084s0.152-0.084,0.152-0.084s0.596-0.504,0.894-0.758c0.252,0.113,0.515,0.207,0.786,0.281
				c0.029,0.338,0.093,1.014,0.093,1.014l0.813,0.814l2.51-0.23l0.814-0.812c0,0-0.08-0.871-0.119-1.309
				c0.205-0.117,0.402-0.245,0.588-0.389c0.326,0.188,0.979,0.565,0.979,0.565l1.113-0.292l1.264-2.184l-0.293-1.113
				c0,0-0.841-0.487-1.262-0.729c-0.011-0.242-0.037-0.482-0.087-0.714c0.333-0.286,1-0.856,1-0.856v-1.15l-1.643-1.915h-1.152
				c0,0-0.545,0.468-0.817,0.7c-0.297-0.144-0.608-0.261-0.937-0.351c-0.025-0.324-0.078-0.974-0.078-0.974l-0.813-0.813
				l-2.515,0.204l-0.812,0.812c0,0,0.068,0.854,0.103,1.28c-0.246,0.14-0.479,0.299-0.694,0.475
				c-0.354-0.161-1.062-0.484-1.062-0.484l-1.113,0.292l-1.053,2.295l-0.037,0.155l0.33,0.958
				C27.244,20.562,28.064,20.937,28.477,21.124z M33.412,18.319c1.402,0,2.539,1.136,2.539,2.538c0,1.4-1.137,2.537-2.539,2.537
				c-1.4,0-2.537-1.137-2.537-2.537C30.875,19.455,32.011,18.319,33.412,18.319z"/>
			<path d="M40.343,14.121c0.009,0.133,0.028,0.262,0.062,0.387c-0.152,0.13-0.461,0.392-0.461,0.392v0.562l0.799,0.943
				c0,0,0.466,0.055,0.49,0.041s0.074-0.041,0.074-0.041s0.292-0.247,0.438-0.37c0.123,0.054,0.25,0.101,0.385,0.137
				c0.016,0.165,0.045,0.497,0.045,0.497l0.398,0.398l1.229-0.112l0.397-0.397c0,0-0.039-0.429-0.057-0.642
				c0.1-0.058,0.195-0.12,0.286-0.19c0.16,0.093,0.479,0.277,0.479,0.277l0.546-0.144l0.62-1.07l-0.145-0.545
				c0,0-0.412-0.238-0.619-0.356c-0.004-0.118-0.018-0.236-0.041-0.35c0.162-0.141,0.489-0.42,0.489-0.42v-0.563l-0.805-0.938H44.39
				c0,0-0.268,0.229-0.401,0.344c-0.146-0.069-0.297-0.128-0.457-0.172c-0.014-0.159-0.039-0.477-0.039-0.477l-0.398-0.399
				l-1.23,0.101l-0.398,0.398c0,0,0.034,0.418,0.051,0.627c-0.121,0.068-0.234,0.146-0.341,0.232
				c-0.172-0.079-0.521-0.238-0.521-0.238l-0.545,0.144l-0.517,1.124l-0.019,0.076l0.162,0.469
				C39.738,13.844,40.141,14.028,40.343,14.121z M42.76,12.747c0.688,0,1.243,0.556,1.243,1.243c0,0.687-0.558,1.242-1.243,1.242
				s-1.242-0.557-1.242-1.242C41.518,13.302,42.074,12.747,42.76,12.747z"/>
			<path d="M25.924,29.865v3.783h-3.213v-3.783H0v8.564h22.712v-3.781h3.213v3.781h22.712v-8.564H25.924z M20.058,36.584H2.652
				v-4.871h17.406V36.584z M45.984,36.584H28.578v-4.871h17.406V36.584z"/>
			<path d="M22.712,19.876H0v8.563h22.712V19.876z M5.073,25.895c-0.951,0-1.722-0.77-1.722-1.722c0-0.951,0.771-1.722,1.722-1.722
				c0.952,0,1.722,0.771,1.722,1.722C6.795,25.126,6.025,25.895,5.073,25.895z M11.422,25.895c-0.951,0-1.722-0.77-1.722-1.722
				c0-0.951,0.771-1.722,1.722-1.722s1.723,0.771,1.723,1.722C13.144,25.126,12.373,25.895,11.422,25.895z"/>
			<path d="M22.712,10.207H0v8.563h22.712V10.207z M5.073,16.228c-0.951,0-1.722-0.771-1.722-1.723s0.771-1.723,1.722-1.723
				c0.952,0,1.722,0.771,1.722,1.723C6.795,15.456,6.025,16.228,5.073,16.228z M11.422,16.228c-0.951,0-1.722-0.771-1.722-1.723
				s0.771-1.723,1.722-1.723s1.723,0.771,1.723,1.723C13.144,15.456,12.373,16.228,11.422,16.228z M17.995,16.21
				c-0.951,0-1.722-0.77-1.722-1.721s0.771-1.723,1.722-1.723c0.951,0,1.723,0.771,1.723,1.723S18.946,16.21,17.995,16.21z"/>
		</g>
	</g>
</g>
<g>
</g>
<g>
</g>
<g>
</g>
<g>
</g>
<g>
</g>
<g>
</g>
<g>
</g>
<g>
</g>
<g>
</g>
<g>
</g>
<g>
</g>
<g>
</g>
<g>
</g>
<g>
</g>
<g>
</g>
</svg>
