<?xml version="1.0" encoding="iso-8859-1"?>
<!-- Generator: Adobe Illustrator 16.0.0, SVG Export Plug-In . SVG Version: 6.00 Build 0)  -->
<!DOCTYPE svg PUBLIC "-//W3C//DTD SVG 1.1//EN" "http://www.w3.org/Graphics/SVG/1.1/DTD/svg11.dtd">
<svg version="1.1" id="Capa_1" xmlns="http://www.w3.org/2000/svg" xmlns:xlink="http://www.w3.org/1999/xlink" x="0px" y="0px"
	 width="37.902px" height="37.902px" viewBox="0 0 37.902 37.902" style="enable-background:new 0 0 37.902 37.902;"
	 xml:space="preserve">
<g>
	<g id="_x31_4_46_">
		<g>
			<path d="M35.158,19.239c0.094-2.565-1.086-5.165-3.969-5.27c-2.871-0.106-4.1,2.768-4.098,5.241
				c-0.338,0.036-0.639,0.104-0.838,0.254c-0.217,0.161-0.121,1.32-0.121,1.629c0,1.166,0,2.334,0,3.502c0,0.898,0,1.797,0,2.693
				c0,0.684,0.924,0.6,1.689,0.6c1.863,0,3.729,0,5.596,0c0.84,0,2.592,0.256,2.91-0.428c0.002,0,0.002-0.004,0.004-0.006
				c0.002-0.004,0.004-0.006,0.006-0.01s0-0.01,0-0.014c0.002-0.004,0.004-0.008,0.004-0.012c0-1.812,0-3.623,0-5.436
				c0-0.744,0-1.488,0-2.233C36.342,19.299,35.738,19.237,35.158,19.239z M32.404,26.012c-0.738,0-1.475,0-2.209,0
				c-0.135,0-0.248-0.143-0.205-0.277c0.225-0.707,0.449-1.414,0.674-2.121c-0.387-0.229-0.67-0.633-0.645-1.133
				c0.035-0.693,0.559-1.373,1.279-1.334c0.723,0.041,1.238,0.578,1.277,1.334c-0.021,0.447-0.25,0.885-0.6,1.133
				c0.211,0.707,0.42,1.414,0.631,2.121C32.648,25.869,32.537,26.012,32.404,26.012z M34.344,19.251c-1.693,0-3.387,0-5.082,0
				c-0.359,0-0.859-0.045-1.359-0.061c0-2.101,0.883-4.323,3.287-4.411C33.625,14.689,34.406,17.216,34.344,19.251z"/>
			<path d="M32.061,0H1.56v11.5h30.5V0z M8.373,8.086c-1.277,0-2.313-1.034-2.313-2.312S7.095,3.46,8.373,3.46
				c1.278,0,2.313,1.035,2.313,2.313S9.65,8.086,8.373,8.086z M16.9,8.086c-1.277,0-2.313-1.034-2.313-2.312S15.622,3.46,16.9,3.46
				c1.278,0,2.313,1.035,2.313,2.313S18.177,8.086,16.9,8.086z M25.727,8.063c-1.275,0-2.312-1.035-2.312-2.313
				c0-1.277,1.035-2.312,2.312-2.312c1.279,0,2.314,1.035,2.314,2.312C28.041,7.028,27.004,8.063,25.727,8.063z"/>
			<path d="M21.352,21.492c0-3.628,1.963-6.791,4.877-8.507H1.56v11.501h20.256C21.516,23.541,21.352,22.535,21.352,21.492z
				 M8.373,21.07c-1.277,0-2.313-1.035-2.313-2.312c0-1.278,1.035-2.313,2.313-2.313c1.278,0,2.313,1.035,2.313,2.313
				C10.686,20.035,9.65,21.07,8.373,21.07z M16.9,21.07c-1.277,0-2.313-1.035-2.313-2.312c0-1.278,1.035-2.313,2.313-2.313
				c1.278,0,2.313,1.035,2.313,2.313C19.213,20.035,18.177,21.07,16.9,21.07z"/>
			<path d="M28.498,30.975v4.447H5.123v-6.541h19.57c-0.803-0.709-1.488-1.545-2.025-2.479H1.56v11.5h30.5v-6.578
				c-0.275,0.023-0.553,0.043-0.834,0.043C30.279,31.367,29.367,31.225,28.498,30.975z"/>
		</g>
	</g>
</g>
<g>
</g>
<g>
</g>
<g>
</g>
<g>
</g>
<g>
</g>
<g>
</g>
<g>
</g>
<g>
</g>
<g>
</g>
<g>
</g>
<g>
</g>
<g>
</g>
<g>
</g>
<g>
</g>
<g>
</g>
</svg>
