<?xml version="1.0" encoding="iso-8859-1"?>
<!-- Generator: Adobe Illustrator 16.0.0, SVG Export Plug-In . SVG Version: 6.00 Build 0)  -->
<!DOCTYPE svg PUBLIC "-//W3C//DTD SVG 1.1//EN" "http://www.w3.org/Graphics/SVG/1.1/DTD/svg11.dtd">
<svg version="1.1" id="Capa_1" xmlns="http://www.w3.org/2000/svg" xmlns:xlink="http://www.w3.org/1999/xlink" x="0px" y="0px"
	 width="39.604px" height="39.603px" viewBox="0 0 39.604 39.603" style="enable-background:new 0 0 39.604 39.603;"
	 xml:space="preserve">
<g>
	<g id="_x31_22_28_">
		<g>
			<path d="M19.8,6.958c2.306,0.033,11.633-0.094,11.633-3.479c0-3.425-9.321-3.446-11.633-3.479
				C17.492,0.033,8.17,0.053,8.17,3.479C8.17,6.905,17.492,6.926,19.8,6.958z"/>
			<path d="M19.784,8.274c-2.013-0.032-8.89-0.058-11.614-2.246v5.294v4.288l0.013-9.116l0.016,9.187h0.059
				c2.783,2.119,9.536,2.144,11.527,2.175c1.985,0.033,8.722-0.061,11.516-2.175c0,0,0.121-0.103,0.133-0.112l-0.031-9.553
				C28.676,8.21,21.794,8.307,19.784,8.274z"/>
			<path d="M19.784,19.275c-2.013-0.031-8.89-0.058-11.614-2.246v5.295v4.287l0.013-9.116l0.016,9.188h0.059
				c2.783,2.119,9.536,2.144,11.527,2.175c1.985,0.033,8.722-0.061,11.516-2.175c0,0,0.121-0.103,0.133-0.112l-0.031-9.553
				C28.676,19.212,21.794,19.309,19.784,19.275z"/>
			<path d="M19.784,30.016c-2.013-0.031-8.89-0.058-11.614-2.246v5.295v4.287l0.013-9.115l0.016,9.187h0.059
				c2.783,2.119,9.536,2.144,11.527,2.175c1.985,0.033,8.722-0.061,11.516-2.175c0,0,0.121-0.103,0.133-0.112l-0.031-9.553
				C28.676,29.952,21.794,30.049,19.784,30.016z"/>
		</g>
	</g>
</g>
<g>
</g>
<g>
</g>
<g>
</g>
<g>
</g>
<g>
</g>
<g>
</g>
<g>
</g>
<g>
</g>
<g>
</g>
<g>
</g>
<g>
</g>
<g>
</g>
<g>
</g>
<g>
</g>
<g>
</g>
</svg>
