<?xml version="1.0" encoding="iso-8859-1"?>
<!-- Generator: Adobe Illustrator 16.0.0, SVG Export Plug-In . SVG Version: 6.00 Build 0)  -->
<!DOCTYPE svg PUBLIC "-//W3C//DTD SVG 1.1//EN" "http://www.w3.org/Graphics/SVG/1.1/DTD/svg11.dtd">
<svg version="1.1" id="Capa_1" xmlns="http://www.w3.org/2000/svg" xmlns:xlink="http://www.w3.org/1999/xlink" x="0px" y="0px"
	 width="47.574px" height="47.574px" viewBox="0 0 47.574 47.574" style="enable-background:new 0 0 47.574 47.574;"
	 xml:space="preserve">
<g>
	<g id="_x32_4_21_">
		<g>
			<path d="M31.201,11.323c0-0.114,0-0.228,0-0.342V7.896V7.632H18.037h-1.521v3.691v28.354h0.009v0.264h13.154h1.521h0.008v-1.662
				c0.006-0.041,0.006-0.079,0-0.116V36.25h-0.008C31.201,27.94,31.201,19.633,31.201,11.323z M19.408,22.808
				c0-0.24,0.194-0.435,0.436-0.435h8.062c0.24,0,0.436,0.195,0.436,0.435v0.916c0,0.241-0.193,0.437-0.436,0.437h-8.062
				c-0.241,0-0.436-0.195-0.436-0.437V22.808z M28.429,28.524c0,0.242-0.191,0.437-0.436,0.437h-8.062
				c-0.241,0-0.435-0.194-0.435-0.437v-0.915c0-0.241,0.193-0.435,0.435-0.435h8.062c0.242,0,0.436,0.193,0.436,0.435V28.524z
				 M28.429,18.959c0,0.24-0.191,0.435-0.436,0.435h-8.062c-0.241,0-0.435-0.195-0.435-0.435v-0.916
				c0-0.241,0.193-0.436,0.435-0.436h8.062c0.242,0,0.436,0.195,0.436,0.436V18.959z M28.429,14.375c0,0.24-0.191,0.435-0.436,0.435
				h-8.062c-0.241,0-0.435-0.195-0.435-0.435v-0.916c0-0.241,0.193-0.436,0.435-0.436h8.062c0.242,0,0.436,0.195,0.436,0.436V14.375
				z"/>
			<path d="M32.179,7.632v32.311l0.035-0.008v0.008l15.34-1.026l-0.008-0.134h0.008V9.818l0.02-0.521L32.179,7.632z M35.417,17.939
				c0.006-0.232,0.199-0.415,0.432-0.409l7.768,0.202c0.23,0.006,0.414,0.198,0.406,0.43l-0.02,0.883
				c-0.006,0.231-0.201,0.415-0.432,0.409l-7.768-0.202c-0.23-0.006-0.414-0.199-0.41-0.431L35.417,17.939z M43.578,28.437
				l-7.764,0.27c-0.232,0.008-0.428-0.173-0.436-0.404l-0.029-0.883c-0.008-0.23,0.172-0.426,0.404-0.434l7.764-0.271
				c0.232-0.008,0.426,0.173,0.434,0.405l0.031,0.882C43.992,28.234,43.808,28.429,43.578,28.437z M44.056,23.525
				c0,0.232-0.188,0.42-0.418,0.42h-7.771c-0.232,0-0.42-0.188-0.42-0.42v-0.883c0-0.231,0.188-0.419,0.42-0.419h7.771
				c0.23,0,0.418,0.188,0.418,0.419V23.525z M44.015,14.821c-0.018,0.231-0.219,0.405-0.449,0.389l-7.75-0.554
				c-0.23-0.017-0.406-0.217-0.389-0.449l0.062-0.88c0.018-0.231,0.217-0.405,0.449-0.389l7.748,0.553
				c0.232,0.017,0.406,0.217,0.389,0.449L44.015,14.821z"/>
			<path d="M0.017,9.818v28.963h0.008l-0.008,0.134l15.34,1.025v-0.008l0.035,0.008V7.632L0,9.298L0.017,9.818z M12.192,28.302
				c-0.008,0.231-0.202,0.412-0.435,0.404l-7.764-0.27c-0.231-0.008-0.413-0.202-0.404-0.435L3.62,27.12
				c0.008-0.23,0.201-0.413,0.433-0.405l7.765,0.271c0.231,0.008,0.412,0.203,0.404,0.434L12.192,28.302z M3.515,23.525v-0.883
				c0-0.231,0.188-0.419,0.419-0.419h7.771c0.232,0,0.42,0.188,0.42,0.419v0.883c0,0.232-0.188,0.42-0.42,0.42H3.934
				C3.703,23.945,3.515,23.757,3.515,23.525z M12.178,18.821c0.005,0.232-0.178,0.424-0.41,0.431l-7.767,0.202
				c-0.23,0.006-0.425-0.177-0.431-0.409l-0.021-0.883c-0.007-0.232,0.177-0.424,0.408-0.43l7.767-0.202
				c0.232-0.005,0.425,0.177,0.431,0.409L12.178,18.821z M3.884,13.492l7.749-0.553c0.232-0.017,0.433,0.157,0.449,0.389l0.063,0.88
				c0.018,0.231-0.158,0.432-0.389,0.449l-7.75,0.554c-0.231,0.016-0.432-0.158-0.449-0.389l-0.061-0.88
				C3.478,13.709,3.652,13.509,3.884,13.492z"/>
		</g>
	</g>
</g>
<g>
</g>
<g>
</g>
<g>
</g>
<g>
</g>
<g>
</g>
<g>
</g>
<g>
</g>
<g>
</g>
<g>
</g>
<g>
</g>
<g>
</g>
<g>
</g>
<g>
</g>
<g>
</g>
<g>
</g>
</svg>
