<?xml version="1.0" encoding="iso-8859-1"?>
<!-- Generator: Adobe Illustrator 16.0.0, SVG Export Plug-In . SVG Version: 6.00 Build 0)  -->
<!DOCTYPE svg PUBLIC "-//W3C//DTD SVG 1.1//EN" "http://www.w3.org/Graphics/SVG/1.1/DTD/svg11.dtd">
<svg version="1.1" id="Capa_1" xmlns="http://www.w3.org/2000/svg" xmlns:xlink="http://www.w3.org/1999/xlink" x="0px" y="0px"
	 width="197.081px" height="197.081px" viewBox="0 0 197.081 197.081" style="enable-background:new 0 0 197.081 197.081;"
	 xml:space="preserve">
<g>
	<g id="_x31_90_18_">
		<g>
			<path d="M159.657,0H1.061v59.798h158.596V0z M36.482,42.041c-6.639,0-12.027-5.38-12.027-12.025
				c0-6.647,5.383-12.03,12.027-12.03c6.647,0,12.027,5.383,12.027,12.03C48.51,36.661,43.129,42.041,36.482,42.041z M80.829,42.041
				c-6.642,0-12.03-5.38-12.03-12.025c0-6.647,5.382-12.03,12.03-12.03c6.645,0,12.027,5.383,12.027,12.03
				C92.855,36.661,87.468,42.041,80.829,42.041z M126.72,41.921c-6.642,0-12.024-5.38-12.024-12.027
				c0-6.645,5.383-12.027,12.024-12.027c6.647,0,12.025,5.382,12.025,12.027C138.746,36.541,133.363,41.921,126.72,41.921z"/>
			<path d="M103.971,111.751c0-18.859,10.207-35.307,25.359-44.229H1.061v59.798h105.327
				C104.825,122.399,103.971,117.175,103.971,111.751z M36.482,109.562c-6.639,0-12.027-5.383-12.027-12.027
				c0-6.647,5.383-12.027,12.027-12.027c6.647,0,12.027,5.38,12.027,12.027C48.51,104.18,43.129,109.562,36.482,109.562z
				 M80.829,109.562c-6.642,0-12.03-5.383-12.03-12.027c0-6.647,5.382-12.027,12.03-12.027c6.645,0,12.027,5.38,12.027,12.027
				C92.855,104.18,87.468,109.562,80.829,109.562z"/>
			<path d="M141.132,161.063v23.125H19.583v-34.013h101.75c-4.164-3.687-7.724-8.038-10.516-12.893H1.061v59.798h158.596v-34.2
				c-1.433,0.122-2.875,0.219-4.337,0.219C150.394,163.1,145.641,162.363,141.132,161.063z"/>
			<path d="M181.735,119.606v31.413l14.285-0.016C196.02,151.004,195.162,121.892,181.735,119.606z"/>
			<path d="M153.065,151.07v-31.413c-13.426,2.28-14.289,31.402-14.289,31.402L153.065,151.07z"/>
			<path d="M154.801,119.83v31.24h12.609v-0.046l12.588-0.005v-31.235c-0.965,0.447-5.159,2.174-12.604,2.174
				C159.961,121.963,155.756,120.267,154.801,119.83z"/>
			<path d="M173.611,73.453c-1.909-0.686-4.058-1.092-6.479-1.092c-2.428,0-4.57,0.411-6.479,1.102v13.411h12.959V73.453z
				 M167.482,84.614c-1.148,0-2.077-0.927-2.077-2.071c0-1.143,0.935-2.075,2.077-2.075c1.142,0,2.066,0.932,2.066,2.075
				C169.548,83.688,168.624,84.614,167.482,84.614z"/>
			<path d="M185.245,95.735h-36.222c-0.345,1.409-0.538,2.882-0.538,4.402c0,10.298,8.343,18.646,18.646,18.646
				c10.309,0,18.656-8.349,18.656-18.646C185.788,98.617,185.584,97.149,185.245,95.735z"/>
			<path d="M158.997,74.167c-9.415,4.608-12.056,16.661-12.604,19.916h42.015c-0.63-3.26-3.575-15.346-13.137-19.931v14.383h-16.274
				V74.167z"/>
		</g>
	</g>
</g>
<g>
</g>
<g>
</g>
<g>
</g>
<g>
</g>
<g>
</g>
<g>
</g>
<g>
</g>
<g>
</g>
<g>
</g>
<g>
</g>
<g>
</g>
<g>
</g>
<g>
</g>
<g>
</g>
<g>
</g>
</svg>
