<?xml version="1.0" encoding="iso-8859-1"?>
<!-- Generator: Adobe Illustrator 16.0.0, SVG Export Plug-In . SVG Version: 6.00 Build 0)  -->
<!DOCTYPE svg PUBLIC "-//W3C//DTD SVG 1.1//EN" "http://www.w3.org/Graphics/SVG/1.1/DTD/svg11.dtd">
<svg version="1.1" id="Capa_1" xmlns="http://www.w3.org/2000/svg" xmlns:xlink="http://www.w3.org/1999/xlink" x="0px" y="0px"
	 width="208.212px" height="208.212px" viewBox="0 0 208.212 208.212" style="enable-background:new 0 0 208.212 208.212;"
	 xml:space="preserve">
<g>
	<g id="_x31_6_52_">
		<g>
			<path d="M206.359,120.749c0,0-5.362-3.103-8.044-4.656c-0.071-1.549-0.238-3.067-0.559-4.55c2.123-1.818,6.373-5.459,6.373-5.459
				v-7.338l-10.471-12.213h-7.343c0,0-3.479,2.979-5.215,4.472c-1.89-0.914-3.88-1.663-5.962-2.232
				c-0.173-2.069-0.508-6.208-0.508-6.208l-5.189-5.19l-16.026,1.3l-5.189,5.19c0,0,0.437,5.438,0.649,8.157
				c-1.563,0.896-3.047,1.904-4.428,3.027c-2.254-1.028-6.773-3.092-6.773-3.092l-7.1,1.861l-6.703,14.627l-0.243,0.985l2.103,6.108
				c0,0,5.229,2.392,7.86,3.59c0.111,1.727,0.386,3.402,0.812,5.037c-2.001,1.696-6.002,5.078-6.002,5.078v7.338l10.399,12.273
				c0,0,6.043,0.716,6.368,0.538c0.324-0.178,0.975-0.538,0.975-0.538s3.793-3.22,5.697-4.824c1.604,0.711,3.271,1.32,5.007,1.788
				c0.198,2.152,0.589,6.469,0.589,6.469l5.19,5.189l16.006-1.462l5.189-5.189c0,0-0.508-5.561-0.757-8.344
				c1.311-0.757,2.564-1.569,3.747-2.483c2.088,1.204,6.246,3.616,6.246,3.616l7.1-1.864l8.054-13.929L206.359,120.749z
				 M165.065,133.611c-8.938,0-16.179-7.241-16.179-16.179c0-8.941,7.241-16.178,16.179-16.178c8.937,0,16.178,7.241,16.178,16.178
				C181.243,126.365,174.001,133.611,165.065,133.611z"/>
			<path d="M158.595,5.565H0v59.798h158.595V5.565z M35.421,47.611c-6.64,0-12.027-5.38-12.027-12.025
				c0-6.646,5.383-12.029,12.027-12.029s12.027,5.383,12.027,12.029C47.449,42.23,42.061,47.611,35.421,47.611z M79.76,47.611
				c-6.64,0-12.027-5.38-12.027-12.025c0-6.646,5.383-12.029,12.027-12.029c6.647,0,12.027,5.383,12.027,12.029
				C91.787,42.23,86.402,47.611,79.76,47.611z M125.66,47.491c-6.643,0-12.024-5.38-12.024-12.027
				c0-6.645,5.382-12.027,12.024-12.027c6.642,0,12.024,5.383,12.024,12.027C137.684,42.111,132.301,47.491,125.66,47.491z"/>
			<path d="M102.91,117.316c0-18.86,10.202-35.308,25.36-44.229H0v59.799h105.327C103.768,127.97,102.91,122.745,102.91,117.316z
				 M35.421,115.128c-6.64,0-12.027-5.383-12.027-12.025c0-6.649,5.383-12.029,12.027-12.029s12.027,5.38,12.027,12.029
				C47.449,109.745,42.061,115.128,35.421,115.128z M79.76,115.128c-6.64,0-12.027-5.383-12.027-12.025
				c0-6.649,5.383-12.029,12.027-12.029c6.647,0,12.027,5.38,12.027,12.029C91.787,109.745,86.402,115.128,79.76,115.128z"/>
			<path d="M140.071,166.628v23.126H18.522v-34.013h101.755c-4.169-3.691-7.729-8.038-10.521-12.893H0v59.798h158.595v-34.2
				c-1.432,0.122-2.874,0.219-4.331,0.219C149.328,168.665,144.58,167.929,140.071,166.628z"/>
		</g>
	</g>
</g>
<g>
</g>
<g>
</g>
<g>
</g>
<g>
</g>
<g>
</g>
<g>
</g>
<g>
</g>
<g>
</g>
<g>
</g>
<g>
</g>
<g>
</g>
<g>
</g>
<g>
</g>
<g>
</g>
<g>
</g>
</svg>
