<?xml version="1.0" encoding="iso-8859-1"?>
<!-- Generator: Adobe Illustrator 16.0.0, SVG Export Plug-In . SVG Version: 6.00 Build 0)  -->
<!DOCTYPE svg PUBLIC "-//W3C//DTD SVG 1.1//EN" "http://www.w3.org/Graphics/SVG/1.1/DTD/svg11.dtd">
<svg version="1.1" id="Capa_1" xmlns="http://www.w3.org/2000/svg" xmlns:xlink="http://www.w3.org/1999/xlink" x="0px" y="0px"
	 width="49.371px" height="49.371px" viewBox="0 0 49.371 49.371" style="enable-background:new 0 0 49.371 49.371;"
	 xml:space="preserve">
<g>
	<g id="_x37_5_88_">
		<g>
			<path d="M27.071,34.146H22.3v-4.014H0v8.406h22.3v-3.395h4.771v3.396h22.3v-8.406h-22.3V34.146z M19.695,36.729H2.604v-4.783
				h17.091V36.729z M29.676,31.947h17.09v4.783h-17.09V31.947z"/>
			<path d="M27.071,24.029H22.3v-3.705H0v8.406h22.3v-3.701h4.771v3.705h22.3v-8.408h-22.3V24.029z M4.98,26.234
				c-0.934,0-1.69-0.756-1.69-1.69s0.757-1.69,1.69-1.69s1.691,0.757,1.691,1.69C6.671,25.479,5.914,26.234,4.98,26.234z
				 M11.214,26.234c-0.934,0-1.69-0.756-1.69-1.69s0.757-1.69,1.69-1.69c0.933,0,1.691,0.757,1.691,1.69
				C12.906,25.479,12.148,26.234,11.214,26.234z M38.287,22.854c0.934,0,1.689,0.758,1.689,1.691c0,0.933-0.756,1.69-1.689,1.69
				c-0.936,0-1.691-0.758-1.691-1.69C36.596,23.612,37.352,22.854,38.287,22.854z M32.053,22.854c0.934,0,1.689,0.758,1.689,1.691
				c0,0.933-0.758,1.69-1.689,1.69c-0.934,0-1.691-0.758-1.691-1.69C30.361,23.612,31.119,22.854,32.053,22.854z"/>
			<path d="M27.071,10.833v3.701H22.3V10.83H0v8.407h22.3v-3.703h4.771v3.707h22.3v-8.408H27.071z M4.98,16.742
				c-0.934,0-1.69-0.759-1.69-1.691s0.757-1.69,1.69-1.69s1.691,0.758,1.691,1.69S5.914,16.742,4.98,16.742z M11.214,16.742
				c-0.934,0-1.69-0.759-1.69-1.691s0.757-1.69,1.69-1.69c0.933,0,1.691,0.758,1.691,1.69S12.148,16.742,11.214,16.742z
				 M17.668,16.726c-0.935,0-1.69-0.757-1.69-1.69c0-0.935,0.756-1.69,1.69-1.69s1.69,0.757,1.69,1.69
				C19.359,15.969,18.603,16.726,17.668,16.726z M32.053,16.744c-0.935,0-1.691-0.758-1.691-1.69c0-0.935,0.758-1.691,1.691-1.691
				c0.932,0,1.689,0.758,1.689,1.691C33.743,15.986,32.986,16.744,32.053,16.744z M38.287,16.744c-0.936,0-1.691-0.758-1.691-1.69
				c0-0.935,0.758-1.691,1.691-1.691s1.689,0.758,1.689,1.691C39.977,15.986,39.221,16.744,38.287,16.744z M44.74,16.728
				c-0.934,0-1.689-0.757-1.689-1.689c0-0.934,0.756-1.691,1.689-1.691c0.933,0,1.691,0.758,1.691,1.691
				C46.432,15.971,45.673,16.728,44.74,16.728z"/>
		</g>
	</g>
</g>
<g>
</g>
<g>
</g>
<g>
</g>
<g>
</g>
<g>
</g>
<g>
</g>
<g>
</g>
<g>
</g>
<g>
</g>
<g>
</g>
<g>
</g>
<g>
</g>
<g>
</g>
<g>
</g>
<g>
</g>
</svg>
