<?xml version="1.0" encoding="iso-8859-1"?>
<!-- Generator: Adobe Illustrator 16.0.0, SVG Export Plug-In . SVG Version: 6.00 Build 0)  -->
<!DOCTYPE svg PUBLIC "-//W3C//DTD SVG 1.1//EN" "http://www.w3.org/Graphics/SVG/1.1/DTD/svg11.dtd">
<svg version="1.1" id="Capa_1" xmlns="http://www.w3.org/2000/svg" xmlns:xlink="http://www.w3.org/1999/xlink" x="0px" y="0px"
	 width="234.39px" height="234.39px" viewBox="0 0 234.39 234.39" style="enable-background:new 0 0 234.39 234.39;"
	 xml:space="preserve">
<g>
	<path d="M158.596,18.652H0V78.45h158.596V18.652z M35.421,60.697c-6.639,0-12.027-5.38-12.027-12.025
		c0-6.646,5.388-12.024,12.027-12.024c6.64,0,12.027,5.383,12.027,12.03C47.449,55.322,42.066,60.697,35.421,60.697z M79.76,60.697
		c-6.64,0-12.027-5.38-12.027-12.025c0-6.646,5.383-12.024,12.027-12.024c6.647,0,12.027,5.383,12.027,12.03
		C91.787,55.322,86.402,60.697,79.76,60.697z M125.66,60.578c-6.64,0-12.028-5.38-12.028-12.027c0-6.645,5.383-12.027,12.028-12.027
		c6.642,0,12.024,5.383,12.024,12.027C137.685,55.198,132.302,60.578,125.66,60.578z M102.91,130.403
		c0-18.86,10.202-35.308,25.359-44.229H0v59.799h105.327C103.764,141.056,102.91,135.832,102.91,130.403z M35.421,128.214
		c-6.639,0-12.027-5.383-12.027-12.025c0-6.649,5.382-12.029,12.027-12.029s12.027,5.38,12.027,12.029
		C47.449,122.832,42.066,128.214,35.421,128.214z M79.76,128.214c-6.64,0-12.027-5.383-12.027-12.025
		c0-6.649,5.383-12.029,12.027-12.029c6.647,0,12.027,5.38,12.027,12.029C91.787,122.832,86.402,128.214,79.76,128.214z
		 M140.071,179.714v23.12H18.522v-34.007h101.75c-4.168-3.687-7.731-8.038-10.523-12.888H0v59.798h158.596v-34.2
		c-1.433,0.117-2.874,0.219-4.337,0.219C149.333,181.751,144.58,181.015,140.071,179.714z M205.658,129.524
		c0-23.904-19.449-43.351-43.355-43.351c-23.907,0-43.356,19.446-43.356,43.351c0,23.902,19.449,43.351,43.356,43.351
		C186.209,172.875,205.658,153.426,205.658,129.524z M162.303,161.993c-17.905,0-32.469-14.563-32.469-32.469
		c0-17.905,14.563-32.468,32.469-32.468c17.904,0,32.468,14.563,32.468,32.468C194.771,147.429,180.207,161.993,162.303,161.993z
		 M191.501,170.189l9.582-9.588l33.307,33.302l-9.588,9.582L191.501,170.189z"/>
</g>
<g>
</g>
<g>
</g>
<g>
</g>
<g>
</g>
<g>
</g>
<g>
</g>
<g>
</g>
<g>
</g>
<g>
</g>
<g>
</g>
<g>
</g>
<g>
</g>
<g>
</g>
<g>
</g>
<g>
</g>
</svg>
