<?xml version="1.0" encoding="iso-8859-1"?>
<!-- Generator: Adobe Illustrator 16.0.0, SVG Export Plug-In . SVG Version: 6.00 Build 0)  -->
<!DOCTYPE svg PUBLIC "-//W3C//DTD SVG 1.1//EN" "http://www.w3.org/Graphics/SVG/1.1/DTD/svg11.dtd">
<svg version="1.1" id="Capa_1" xmlns="http://www.w3.org/2000/svg" xmlns:xlink="http://www.w3.org/1999/xlink" x="0px" y="0px"
	 width="47.814px" height="47.814px" viewBox="0 0 47.814 47.814" style="enable-background:new 0 0 47.814 47.814;"
	 xml:space="preserve">
<g>
	<g id="_x33_0_34_">
		<g>
			<path d="M10.961,25.354c-2.395-0.129-4.323,1.325-5.344,3.289l0.623,0.299c0.934-1.627,2.813-2.684,4.721-2.785
				c2.07-0.111,3.74,1.135,4.63,2.828l0.729-0.35C15.305,26.723,13.377,25.484,10.961,25.354z"/>
			<path d="M10.828,26.957c-1.724-0.094-3.119,0.927-3.886,2.322l0.657,0.315c0.674-1.073,1.939-1.767,3.229-1.836
				c1.441-0.078,2.604,0.787,3.229,1.962l0.725-0.348C14.032,27.966,12.609,27.053,10.828,26.957z"/>
			<path d="M10.828,28.56c-1.073-0.058-1.948,0.554-2.454,1.406l0.638,0.308c0.77-1.158,2.789-1.103,3.595,0.145l0.731-0.352
				C12.845,29.193,11.951,28.621,10.828,28.56z"/>
			<path d="M10.961,30.164c-0.443-0.024-0.811,0.207-1.045,0.543l0.743,0.357c0.17-0.103,0.4-0.1,0.577,0.012l0.77-0.369
				C11.771,30.39,11.405,30.188,10.961,30.164z"/>
			<circle cx="10.969" cy="32.001" r="0.392"/>
			<path d="M0,35.865h7.964v3.017h6.009v-3.017h8.237V21.221H0V35.865z M2.251,23.472h17.707v10.144H2.251V23.472z"/>
			<rect x="4.727" y="38.939" width="12.48" height="0.619"/>
			<path d="M36.959,26.041c2.07-0.111,3.74,1.136,4.631,2.828l0.729-0.35c-1.014-1.91-2.941-3.15-5.357-3.281
				c-2.396-0.129-4.324,1.326-5.345,3.289l0.623,0.299C33.172,27.199,35.051,26.144,36.959,26.041z"/>
			<path d="M36.826,26.843c-1.725-0.093-3.119,0.927-3.886,2.321l0.657,0.316c0.674-1.072,1.938-1.767,3.229-1.836
				c1.441-0.078,2.604,0.787,3.229,1.963l0.726-0.349C40.03,27.851,38.607,26.939,36.826,26.843z"/>
			<path d="M36.826,28.445c-1.072-0.058-1.947,0.555-2.454,1.406l0.638,0.307c0.771-1.158,2.789-1.102,3.596,0.146l0.73-0.353
				C38.844,29.078,37.949,28.507,36.826,28.445z"/>
			<path d="M36.959,30.05c-0.443-0.024-0.811,0.208-1.045,0.543l0.743,0.356c0.17-0.102,0.399-0.099,0.577,0.013l0.77-0.369
				C37.77,30.275,37.403,30.074,36.959,30.05z"/>
			<circle cx="36.967" cy="31.887" r="0.393"/>
			<path d="M25.604,21.221v14.645h7.965v3.017h6.009v-3.017h8.237V21.221H25.604z M45.562,33.615H27.855V23.472h17.707V33.615z"/>
			<rect x="30.332" y="38.939" width="12.48" height="0.619"/>
			<path d="M6.449,11.876h3.694v8.764h0.68c0.001,0,0.001,0,0.001,0h0.743v-8.764h3.694v-1.125h17.37v1.125h3.305v8.764h0.779l0,0
				h0.645v-8.764h4.085v-1.125h5.687V9.256h-5.687v-1h-1.097c-2.211,0-4.422,0-6.631,0h-1.086v1h-17.37v-1h-1.086
				c-2.21,0-4.421,0-6.631,0H6.449v1H0.458v1.496h5.991V11.876z"/>
		</g>
	</g>
</g>
<g>
</g>
<g>
</g>
<g>
</g>
<g>
</g>
<g>
</g>
<g>
</g>
<g>
</g>
<g>
</g>
<g>
</g>
<g>
</g>
<g>
</g>
<g>
</g>
<g>
</g>
<g>
</g>
<g>
</g>
</svg>
