<?xml version="1.0" encoding="iso-8859-1"?>
<!-- Generator: Adobe Illustrator 16.0.0, SVG Export Plug-In . SVG Version: 6.00 Build 0)  -->
<!DOCTYPE svg PUBLIC "-//W3C//DTD SVG 1.1//EN" "http://www.w3.org/Graphics/SVG/1.1/DTD/svg11.dtd">
<svg version="1.1" id="Capa_1" xmlns="http://www.w3.org/2000/svg" xmlns:xlink="http://www.w3.org/1999/xlink" x="0px" y="0px"
	 width="215.732px" height="215.733px" viewBox="0 0 215.732 215.733" style="enable-background:new 0 0 215.732 215.733;"
	 xml:space="preserve">
<g>
	<g id="_x31_26_66_">
		<g>
			<path d="M22.287,0v215.733h171.158V0H22.287z M112.919,29.899h56.995v29.899h-56.995V29.899z M112.919,70.375h56.995v29.899
				h-56.995V70.375z M112.919,110.457h56.995v29.898h-56.995V110.457z M44.953,29.899h56.99v29.899h-56.99V29.899z M44.953,70.375
				h56.99v29.899h-56.99V70.375z M44.953,110.457h56.99v29.898h-56.99V110.457z M87.354,193.197
				c-1.109,1.787-2.549,3.22-4.339,4.306c-1.792,1.087-3.806,1.869-6.051,2.347c-2.247,0.467-4.509,0.711-6.792,0.711
				c-0.759,0-1.731-0.062-2.912-0.173c-1.186-0.112-2.438-0.366-3.771-0.741c-1.335-0.381-2.666-0.895-3.999-1.544
				c-1.335-0.64-2.531-1.514-3.598-2.62c-1.061-1.107-1.94-2.438-2.625-4.002c-0.686-1.563-1.025-3.428-1.025-5.596H64.8
				c0,0.985,0.152,1.879,0.459,2.682c0.457,1.219,1.272,2.021,2.458,2.396c1.18,0.386,2.356,0.574,3.542,0.574
				c0.495,0,1.046-0.046,1.653-0.147c0.604-0.092,1.181-0.284,1.711-0.563c0.536-0.29,0.973-0.666,1.311-1.143
				c0.342-0.478,0.52-1.098,0.52-1.859c0-0.538-0.134-0.975-0.401-1.34c-0.27-0.366-0.729-0.701-1.371-1.031
				c-0.645-0.32-1.541-0.665-2.684-1.031c-1.146-0.355-2.59-0.792-4.342-1.279c-1.597-0.457-3.225-0.944-4.877-1.462
				c-1.655-0.508-3.141-1.193-4.451-2.052c-1.313-0.858-2.387-1.945-3.225-3.255c-0.838-1.311-1.254-2.991-1.254-5.053
				c0-2.361,0.465-4.388,1.399-6.083c0.937-1.691,2.158-3.088,3.682-4.195c1.523-1.097,3.275-1.909,5.258-2.427
				c1.975-0.513,4.009-0.772,6.104-0.772c2.209,0,4.322,0.234,6.34,0.691c2.021,0.451,3.806,1.208,5.365,2.254
				c1.559,1.052,2.818,2.418,3.771,4.113c0.952,1.696,1.465,3.778,1.544,6.251H75.418c0.114-0.757,0.033-1.406-0.254-1.944
				c-0.292-0.538-0.696-0.976-1.227-1.311c-0.536-0.375-1.125-0.649-1.774-0.802c-0.645-0.152-1.29-0.224-1.94-0.224
				c-0.414,0-0.894,0.03-1.424,0.111c-0.536,0.076-1.023,0.214-1.48,0.396c-0.459,0.193-0.838,0.467-1.145,0.833
				c-0.307,0.355-0.457,0.822-0.457,1.396c0.036,0.726,0.412,1.319,1.112,1.797c0.708,0.473,1.612,0.899,2.709,1.26
				c1.107,0.36,2.351,0.706,3.745,1.021c1.386,0.335,2.803,0.681,4.248,1.057c1.445,0.426,2.854,0.919,4.228,1.492
				c1.374,0.569,2.6,1.301,3.682,2.194c1.086,0.894,1.95,1.995,2.6,3.311c0.645,1.311,0.973,2.904,0.973,4.769
				C89.012,189.175,88.456,191.399,87.354,193.197z M125.431,193.197c-1.106,1.787-2.549,3.22-4.337,4.306
				c-1.797,1.087-3.808,1.869-6.053,2.347c-2.244,0.467-4.506,0.711-6.796,0.711c-0.759,0-1.732-0.062-2.91-0.173
				c-1.186-0.112-2.44-0.366-3.771-0.741c-1.338-0.381-2.668-0.895-3.999-1.544c-1.338-0.64-2.534-1.514-3.598-2.62
				c-1.062-1.107-1.94-2.438-2.628-4.002c-0.686-1.563-1.023-3.428-1.023-5.596h12.558c0,0.985,0.15,1.879,0.457,2.682
				c0.457,1.219,1.274,2.021,2.46,2.396c1.181,0.386,2.354,0.574,3.539,0.574c0.495,0,1.046-0.046,1.658-0.147
				c0.599-0.092,1.178-0.284,1.706-0.563c0.538-0.29,0.975-0.666,1.311-1.143c0.345-0.478,0.518-1.098,0.518-1.859
				c0-0.538-0.132-0.975-0.396-1.34c-0.273-0.366-0.73-0.701-1.371-1.031c-0.649-0.32-1.543-0.665-2.686-1.031
				c-1.142-0.355-2.589-0.792-4.341-1.279c-1.597-0.457-3.225-0.944-4.877-1.462c-1.653-0.508-3.141-1.193-4.451-2.052
				s-2.386-1.945-3.224-3.255c-0.835-1.311-1.252-2.991-1.252-5.053c0-2.361,0.462-4.388,1.399-6.083
				c0.935-1.691,2.158-3.088,3.682-4.195c1.523-1.097,3.275-1.909,5.255-2.427c1.976-0.513,4.009-0.772,6.104-0.772
				c2.211,0,4.322,0.234,6.342,0.691c2.021,0.451,3.804,1.208,5.362,2.254c1.564,1.052,2.823,2.418,3.768,4.113
				c0.955,1.696,1.473,3.778,1.549,6.251h-11.877c0.111-0.757,0.03-1.406-0.254-1.944c-0.295-0.538-0.701-0.976-1.229-1.311
				c-0.539-0.375-1.123-0.649-1.772-0.802c-0.645-0.152-1.29-0.224-1.94-0.224c-0.417,0-0.894,0.03-1.424,0.111
				c-0.536,0.076-1.026,0.214-1.483,0.396c-0.457,0.193-0.838,0.467-1.143,0.833c-0.307,0.355-0.459,0.822-0.459,1.396
				c0.038,0.726,0.411,1.319,1.115,1.797c0.706,0.473,1.612,0.899,2.709,1.26c1.107,0.36,2.349,0.706,3.743,1.021
				c1.386,0.335,2.803,0.681,4.25,1.057c1.442,0.426,2.854,0.919,4.225,1.492c1.371,0.569,2.601,1.301,3.682,2.194
				c1.087,0.894,1.95,1.995,2.601,3.311c0.645,1.311,0.97,2.904,0.97,4.769C127.086,189.175,126.533,191.399,125.431,193.197z
				 M168.705,187.626c-0.838,2.533-2.112,4.677-3.823,6.454c-1.717,1.767-3.885,3.128-6.51,4.082
				c-2.626,0.95-5.713,1.422-9.247,1.422h-18.148v-40.761h20.605c3.383,0,6.246,0.584,8.592,1.742
				c2.336,1.157,4.23,2.681,5.678,4.57c1.452,1.879,2.493,4.047,3.144,6.499c0.649,2.458,0.97,4.956,0.97,7.511
				C169.955,182.269,169.538,185.102,168.705,187.626z"/>
			<path d="M155.889,173.159c-0.67-1.066-1.655-1.985-2.971-2.742c-1.311-0.762-3.113-1.137-5.393-1.137h-3.996v19.859h4.904
				c1.94,0,3.504-0.351,4.683-1.056c1.178-0.701,2.082-1.569,2.712-2.601c0.619-1.021,1.041-2.127,1.249-3.311
				c0.208-1.183,0.314-2.249,0.314-3.199c0-0.649-0.086-1.513-0.254-2.6C156.976,175.296,156.549,174.22,155.889,173.159z"/>
		</g>
	</g>
</g>
<g>
</g>
<g>
</g>
<g>
</g>
<g>
</g>
<g>
</g>
<g>
</g>
<g>
</g>
<g>
</g>
<g>
</g>
<g>
</g>
<g>
</g>
<g>
</g>
<g>
</g>
<g>
</g>
<g>
</g>
</svg>
