<?xml version="1.0" encoding="iso-8859-1"?>
<!-- Generator: Adobe Illustrator 16.0.0, SVG Export Plug-In . SVG Version: 6.00 Build 0)  -->
<!DOCTYPE svg PUBLIC "-//W3C//DTD SVG 1.1//EN" "http://www.w3.org/Graphics/SVG/1.1/DTD/svg11.dtd">
<svg version="1.1" id="Capa_1" xmlns="http://www.w3.org/2000/svg" xmlns:xlink="http://www.w3.org/1999/xlink" x="0px" y="0px"
	 width="43.266px" height="43.266px" viewBox="0 0 43.266 43.266" style="enable-background:new 0 0 43.266 43.266;"
	 xml:space="preserve">
<g>
	<g id="_x33_6_37_">
		<g>
			<path d="M30.35,25.944l0.062,0.762c0.019,0.215,0.197,0.371,0.406,0.38c0.506,1.932,2.14,3.711,4.209,3.711
				c2.099,0,3.758-1.771,4.277-3.698c0.194-0.021,0.359-0.172,0.375-0.377l0.066-0.762c0.019-0.198-0.108-0.37-0.288-0.43
				c-0.003-0.047-0.005-0.094-0.007-0.138c-0.041-1.745-0.344-3.155-1.717-3.735c-1.451-0.615-2.728-0.625-3.666-0.26
				c-0.062,0.026-0.222,0.236-0.283,0.274c-0.062,0.039-0.391-0.069-0.516-0.041c-2.058,0.294-2.736,2.231-2.587,3.745
				c-0.002,0.041-0.009,0.084-0.011,0.126C30.471,25.553,30.33,25.733,30.35,25.944z M31.258,25.577
				c0.902-0.33,2.635-1.02,2.822-1.383c0.789,0.818,3.568,1.279,4.793,1.434c0.004,0.079,0.014,0.156,0.014,0.236
				c0,2.008-1.688,4.344-3.859,4.344c-2.164,0-3.783-2.292-3.783-4.344C31.242,25.767,31.252,25.674,31.258,25.577z"/>
			<path d="M38.342,30.104c-0.107-0.016-0.215,0.008-0.284,0.037l-1.733,2.344l-1.312-1.049l-0.007,0.008v0.006l-0.003-0.002
				l-1.314,1.05l-1.734-2.345c-0.067-0.028-0.176-0.052-0.282-0.035c-3.274,0.461-3.483,7.855-3.483,7.855l6.819,0.004v-0.012
				l6.815-0.004C41.822,37.961,41.617,30.567,38.342,30.104z"/>
			<path d="M22.838,29.364c0-6.074,4.924-11,10.999-11c2.269,0,4.376,0.688,6.127,1.865v-5.336H13.335v-4.807H0v27.89h12.788h0.546
				h13.674C24.47,35.963,22.838,32.856,22.838,29.364z"/>
			<path d="M17.935,11.081V7.224V5.949V5.288H3.098v1.936h13.041v3.857v1.56v0.286h25.309v8.508
				c0.703,0.676,1.313,1.446,1.818,2.289V12.926v-1.492V11.08L17.935,11.081L17.935,11.081z"/>
		</g>
	</g>
</g>
<g>
</g>
<g>
</g>
<g>
</g>
<g>
</g>
<g>
</g>
<g>
</g>
<g>
</g>
<g>
</g>
<g>
</g>
<g>
</g>
<g>
</g>
<g>
</g>
<g>
</g>
<g>
</g>
<g>
</g>
</svg>
