<?xml version="1.0" encoding="iso-8859-1"?>
<!-- Generator: Adobe Illustrator 16.0.0, SVG Export Plug-In . SVG Version: 6.00 Build 0)  -->
<!DOCTYPE svg PUBLIC "-//W3C//DTD SVG 1.1//EN" "http://www.w3.org/Graphics/SVG/1.1/DTD/svg11.dtd">
<svg version="1.1" id="Capa_1" xmlns="http://www.w3.org/2000/svg" xmlns:xlink="http://www.w3.org/1999/xlink" x="0px" y="0px"
	 width="243.316px" height="243.316px" viewBox="0 0 243.316 243.316" style="enable-background:new 0 0 243.316 243.316;"
	 xml:space="preserve">
<g>
	<g id="_x31_39_10_">
		<g>
			<path d="M142.528,187.448c1.396,0.183,2.961-0.081,3.677-1.493c0.162-0.345,1.701-1.411,2.966-2.752
				c0.416-0.264,0.792-0.63,1.081-1.193c0.087-0.147,0.157-0.416,0.233-0.64c0.025-0.041,0.076-0.097,0.097-0.127
				c0.03-0.087,0.011-0.152,0.041-0.224c1.995-6.596,3.519-32.575-2.245-35.027c-2.559-1.087-3.422-1.758-6.021-1.433
				c-10.304,1.28-11.37-5.606-11.232-15.346c0.162-12.509-3.088-29.866,13.588-28.343c1.158,0.109,2.204-0.711,2.804-1.607
				c4.834-7.254,9.12-24.293,4.783-35.203c-5.007-12.593-23.125-4.834-30.562,1.716c-22.569,19.875-19.89,64.468-13.634,90.238
				C112.807,175.424,123.847,184.92,142.528,187.448z"/>
			<path d="M44.757,0v42.805h-8.247v15.6h8.247v29.343h-8.247v15.6h8.247v31.85h-8.247v15.6h8.247v34.448h-8.247v15.6h8.247v42.473
				h162.048V0H44.757z M191.206,227.712H60.357v-26.873h9.953v-15.6h-9.953V150.79h9.953v-15.599h-9.953v-31.85h9.953v-15.6h-9.953
				V58.399h9.953V42.8h-9.953V15.6h130.849V227.712z"/>
		</g>
	</g>
</g>
<g>
</g>
<g>
</g>
<g>
</g>
<g>
</g>
<g>
</g>
<g>
</g>
<g>
</g>
<g>
</g>
<g>
</g>
<g>
</g>
<g>
</g>
<g>
</g>
<g>
</g>
<g>
</g>
<g>
</g>
</svg>
