<?xml version="1.0" encoding="iso-8859-1"?>
<!-- Generator: Adobe Illustrator 16.0.0, SVG Export Plug-In . SVG Version: 6.00 Build 0)  -->
<!DOCTYPE svg PUBLIC "-//W3C//DTD SVG 1.1//EN" "http://www.w3.org/Graphics/SVG/1.1/DTD/svg11.dtd">
<svg version="1.1" id="Capa_1" xmlns="http://www.w3.org/2000/svg" xmlns:xlink="http://www.w3.org/1999/xlink" x="0px" y="0px"
	 width="45.057px" height="45.057px" viewBox="0 0 45.057 45.057" style="enable-background:new 0 0 45.057 45.057;"
	 xml:space="preserve">
<g>
	<g id="_x37_9_74_">
		<g>
			<polygon points="10.354,21.219 12.755,21.219 12.755,27.592 15.394,27.592 15.394,21.219 17.794,21.219 17.794,19.024 
				10.354,19.024 			"/>
			<polygon points="26.805,19.024 23.878,19.024 22.606,21.352 21.309,19.024 18.214,19.024 21.034,23.031 17.938,27.592 
				20.962,27.592 22.473,25.035 23.938,27.592 27.118,27.592 24.057,23.055 			"/>
			<polygon points="27.262,21.219 29.663,21.219 29.663,27.592 32.302,27.592 32.302,21.219 34.702,21.219 34.702,19.024 
				27.262,19.024 			"/>
			<path d="M33.431,0H5.179v45.057h34.699V6.251L33.431,0z M36.878,42.056H8.179V3h23.706v4.76h4.992L36.878,42.056L36.878,42.056z"
				/>
		</g>
	</g>
</g>
<g>
</g>
<g>
</g>
<g>
</g>
<g>
</g>
<g>
</g>
<g>
</g>
<g>
</g>
<g>
</g>
<g>
</g>
<g>
</g>
<g>
</g>
<g>
</g>
<g>
</g>
<g>
</g>
<g>
</g>
</svg>
