<?xml version="1.0" encoding="iso-8859-1"?>
<!-- Generator: Adobe Illustrator 16.0.0, SVG Export Plug-In . SVG Version: 6.00 Build 0)  -->
<!DOCTYPE svg PUBLIC "-//W3C//DTD SVG 1.1//EN" "http://www.w3.org/Graphics/SVG/1.1/DTD/svg11.dtd">
<svg version="1.1" id="Capa_1" xmlns="http://www.w3.org/2000/svg" xmlns:xlink="http://www.w3.org/1999/xlink" x="0px" y="0px"
	 width="234.287px" height="234.288px" viewBox="0 0 234.287 234.288" style="enable-background:new 0 0 234.287 234.288;"
	 xml:space="preserve">
<g>
	<g id="_x38_4_48_">
		<g>
			<path d="M173.832,0H26.931v234.288h180.426V32.504L173.832,0z M191.757,218.683H42.53V15.6h123.269v24.75h25.958V218.683z"/>
			<polygon points="142.653,83.482 70.007,83.482 70.007,138.954 142.653,138.954 142.653,122.755 167.316,136.527 167.316,88.111 
				142.653,100.173 			"/>
			<path d="M125.316,151.354v-2.666v-4.931v-2.63h-2.62H95.009h-3.501v10.227H102.1l-13.182,23.471l1.95,1.097
				c0.193,0.132,0.386,0.249,0.604,0.335l3.186,1.788l13.614-24.242l11.393,23.957l5.941-2.833l-11.208-23.572H125.316z"/>
		</g>
	</g>
</g>
<g>
</g>
<g>
</g>
<g>
</g>
<g>
</g>
<g>
</g>
<g>
</g>
<g>
</g>
<g>
</g>
<g>
</g>
<g>
</g>
<g>
</g>
<g>
</g>
<g>
</g>
<g>
</g>
<g>
</g>
</svg>
