<?xml version="1.0" encoding="iso-8859-1"?>
<!-- Generator: Adobe Illustrator 16.0.0, SVG Export Plug-In . SVG Version: 6.00 Build 0)  -->
<!DOCTYPE svg PUBLIC "-//W3C//DTD SVG 1.1//EN" "http://www.w3.org/Graphics/SVG/1.1/DTD/svg11.dtd">
<svg version="1.1" id="Capa_1" xmlns="http://www.w3.org/2000/svg" xmlns:xlink="http://www.w3.org/1999/xlink" x="0px" y="0px"
	 width="49.054px" height="49.055px" viewBox="0 0 49.054 49.055" style="enable-background:new 0 0 49.054 49.055;"
	 xml:space="preserve">
<g>
	<g id="_x32_5_60_">
		<g>
			<path d="M24.457,18.398c-7.049,0.316-12.217,5.482-12.531,12.531c-0.317,7.04,5.955,12.235,12.531,12.531
				c7.039,0.314,12.234-5.955,12.529-12.531C37.302,23.887,31.031,18.693,24.457,18.398z M29.457,21.862
				c0.207-0.1,1.041,0.338,1.746,1.08c-0.477,1.765-1.588,1.555-1.588,1.555s-0.814-0.02-0.711-0.708l0.85-0.567
				C29.753,23.221,29.396,22.309,29.457,21.862z M21.769,34.212c-0.053,0.266-0.371,0.9-0.582,1.324s-0.317,0.582-0.584,0.795
				c-0.265,0.215-0.424,0.584-0.424,0.584l-0.051,0.9c0,0,0.104,0.742,0.262,1.008c0.157,0.265-0.568,1.843-0.568,1.843
				c-0.459-0.091-0.716-0.625-0.877-1.046c-0.158-0.426-0.369-0.651-0.316-1.129c0.053-0.475-0.412-0.728-0.568-0.992
				c-0.158-0.268-0.371-0.637-0.371-0.901c0-0.266-0.584-0.638-0.584-0.638s-1.061-0.477-1.217-0.688
				c-0.161-0.213-0.32-1.115-0.373-1.486c-0.053-0.369,0.158-1.322,0.158-1.322s0.429-0.32,0.158-0.583
				c-0.264-0.265-0.316-0.956-0.316-0.956l-0.479-0.529c0,0-0.369-0.529-0.422-0.795c-0.053-0.264,0-0.424,0.053-0.689
				c0.051-0.266-0.105-0.742-0.105-1.006c1.979-4.855,5.298-5.988,5.298-5.988l0.269,1.11c0,0-0.584,0.16-0.901,0.055
				c-0.317-0.106-0.479-0.106-0.479-0.106l-0.422,0.583c0,0-0.16,0.372-0.215,0.583c-0.051,0.213,0.105,0.529,0.105,0.529
				s0.742,0.053,0.742-0.159c0-0.211-0.104-0.317-0.104-0.317l-0.107-0.372c0,0,0.479-0.265,1.748-0.161
				c1.273,0.107,0.799,1.008,1.328,1.222c0.531,0.211-0.426,0.953-0.637,1.376c-0.211,0.425-0.531-0.53-0.531-0.53
				s0.32-0.367-0.211-0.477c-0.53-0.104-0.881,0.954-0.612,0.902c0.265-0.053,0.56,0.285,0.506,0.549
				c-0.054,0.267-0.054,0.246-0.318,0.826c-0.265,0.584-0.84,1.016-0.84,1.016s-0.271-0.166-0.114,0.152
				c0.161,0.318-0.052,1.06-0.052,1.272c0,0.212-0.637-0.372-0.742-0.903c-0.106-0.526-0.729-0.067-0.94-0.013
				c-0.212,0.054-0.598-0.093-0.701-0.356c-0.107-0.266-1.063,0.529-1.328,0.688c-0.266,0.159-0.156,0.584,0.266,0.372
				s0.794-0.054,0.689,0.374c-0.106,0.421-0.53,0.158-0.477,0.421c0.051,0.265,0.477,0.531,0.581,0.903
				c0.106,0.369,1.114,0.053,1.432-0.105c0.317-0.16,1.221-0.318,1.325,0.105c0.108,0.424,1.113,0.58,1.484,0.688
				c0.373,0.105,1.113,0.158,1.538,0.584C22.564,33.151,21.824,33.946,21.769,34.212z M24.154,21.808
				c-0.053,0.531-0.899,1.219-0.794,1.433c0.106,0.213,0,1.12-0.743,0.324c-0.742-0.795-1.485-1.065-1.43-1.598
				c0.012-0.105,0.768-0.272,0.779-0.458c1.124-1.044,2.92-0.83,3.058-0.583C24.702,21.454,24.208,21.278,24.154,21.808z
				 M33.365,25.368c0.717,1.229,1.764,4.511,1.375,5.096c-0.23-0.104-0.426-0.191-0.426-0.191H32.9l0.846,0.99
				c0,0,0.41,0.602,0.992,0.562c-0.383,4.434-4.082,7.281-4.082,7.281c-0.564-0.566-0.281-1.059-0.281-1.059l0.158-0.852l0.09-1.43
				c0,0,0-1.482-1.416-0.779c-1.518,0.39-0.885,0.39-2.42,0.496c-1.537,0.105-1.283-3.135-1.283-3.135
				c0-4.851,3.72-1.189,3.72-1.189c2.123,1.412,2.404-1.17,2.404-1.17l1.555-0.562l0.141-0.708l-0.225-0.987l-2.258-0.933
				c0,0-0.219,0.733,0.361,1.638c0,0-0.193,1.023-0.67,0.76l-1.309-0.658c0,0-0.441-0.19-1.148,0.234
				c-0.707,0.424-1.906-0.021-1.906-0.021s0.1-0.711,0.842-1.08l0.607-0.401c0,0-0.158-0.727-0.02-1.291
				c0.141-0.565,0.389-0.07,0.953-0.494s0.955,0.828,1.803,0.688c0.848-0.142,0.424-0.282,0.99-0.565
				c0.564-0.283,0.988,0.565,0.988,0.565l1.131,0.14C33.464,26.313,33.287,25.036,33.365,25.368z"/>
			<path d="M42.39,24.143v0.438v1.688v3.166h-1.914v-1.492l-2.436,2.094l2.436,1.898v-1.492h1.914v3.533v0.913v0.313h0.312h6.037
				h0.314v-0.313v-0.911v-7.709v-1.687v-0.438L42.39,24.143L42.39,24.143z M45.21,27.245h1.025v1.305l-0.246,2.365h-0.531
				L45.21,28.55V27.245z M46.291,32.228h-1.135v-0.81h1.135V32.228z"/>
			<path d="M8.578,29.435H6.664v-3.166v-1.687v-0.438H0v0.438v1.687v7.709v0.914v0.312h0.314h6.035h0.314v-0.312v-0.914v-3.533
				h1.915v1.492l2.436-1.897l-2.436-2.097V29.435z M2.818,27.245h1.025v1.305l-0.246,2.365H3.066l-0.248-2.366V27.245z M3.9,32.228
				H2.763v-0.81H3.9V32.228z"/>
			<path d="M21.429,12.248h3.166v1.914h-1.491l2.095,2.435l1.898-2.435h-1.492v-1.914h3.533h0.912h0.314v-0.314V5.897V5.583H30.05
				h-0.912h-7.709h-1.687h-0.438v6.665h0.438H21.429z M24.511,6.424h1.024v1.305l-0.248,2.365h-0.53l-0.246-2.365V6.424z
				 M24.455,10.597h1.137v0.768h-1.137V10.597z"/>
		</g>
	</g>
</g>
<g>
</g>
<g>
</g>
<g>
</g>
<g>
</g>
<g>
</g>
<g>
</g>
<g>
</g>
<g>
</g>
<g>
</g>
<g>
</g>
<g>
</g>
<g>
</g>
<g>
</g>
<g>
</g>
<g>
</g>
</svg>
